SplineFontDB: 3.2
FontName: D-DIN-PRO-Exp-ExtraBold
FullName: D-DIN-PRO-Exp-ExtraBold
FamilyName: D-DIN-PRO-Exp
Weight: Extrabold
Copyright: Copyright (c) CyberFei. All rights reserved
Version: 1.1.0
ItalicAngle: 0
UnderlinePosition: -150
UnderlineWidth: 50
Ascent: 831
Descent: 169
InvalidEm: 0
sfntRevision: 0x00010000
LayerCount: 2
Layer: 0 0 "Back" 1
Layer: 1 0 "Fore" 0
XUID: [1021 868 -1451673819 9519]
StyleMap: 0x0020
FSType: 4
OS2Version: 4
OS2_WeightWidthSlopeOnly: 1
OS2_UseTypoMetrics: 0
CreationTime: 1462909513
ModificationTime: 1778060079
PfmFamily: 17
TTFWeight: 800
TTFWidth: 7
LineGap: 0
VLineGap: 0
Panose: 2 11 8 4 2 2 2 3 2 4
OS2TypoAscent: 831
OS2TypoAOffset: 0
OS2TypoDescent: -169
OS2TypoDOffset: 0
OS2TypoLinegap: 86
OS2WinAscent: 902
OS2WinAOffset: 0
OS2WinDescent: 184
OS2WinDOffset: 0
HheadAscent: 902
HheadAOffset: 0
HheadDescent: -184
HheadDOffset: 0
OS2SubXSize: 650
OS2SubYSize: 600
OS2SubXOff: 0
OS2SubYOff: 75
OS2SupXSize: 650
OS2SupYSize: 600
OS2SupXOff: 0
OS2SupYOff: 350
OS2StrikeYSize: 50
OS2StrikeYPos: 312
OS2CapHeight: 690
OS2XHeight: 520
OS2Vendor: 'MONO'
OS2CodePages: 00000001.00000000
OS2UnicodeRanges: 8000006f.4000000a.00000000.00000000
Lookup: 1 0 0 "'rtla' Right to Left Alternates lookup 0" { "'rtla' Right to Left Alternates lookup 0 subtable"  } ['rtla' ('DFLT' <'dflt' > ) ]
Lookup: 1 0 0 "'sups' Superscript lookup 1" { "'sups' Superscript lookup 1 subtable" ("superior") } ['sups' ('DFLT' <'dflt' > ) ]
Lookup: 4 0 0 "'frac' Diagonal Fractions lookup 2" { "'frac' Diagonal Fractions lookup 2 subtable"  } ['frac' ('DFLT' <'dflt' > ) ]
Lookup: 258 0 0 "'kern' Horizontal Kerning in Latin lookup 0" { "'kern' Horizontal Kerning in Latin lookup 0 subtable"  } ['kern' ('DFLT' <'dflt' > 'latn' <'dflt' > ) ]
Lookup: 258 0 0 "Pairwise Positioning (kerning) lookup 1" { "Pairwise Positioning (kerning) lookup 1 subtable"  } []
Lookup: 258 0 0 "Pairwise Positioning (kerning) lookup 2" { "Pairwise Positioning (kerning) lookup 2 subtable"  } []

StartChar: .notdef
Encoding: 65536 -1 0
Width: 602
GlyphClass: 1
Flags: MW
HStem: -0.0771484 48.0205<150.891 458.61 150.891 506.631> 642.804 48.0195<150.891 458.61 150.891 150.891>
VStem: 102.87 48.0205<47.9434 47.9434 47.9434 642.804> 458.61 48.0205<47.9434 642.804 642.804 642.804>
LayerCount: 2
Fore
SplineSet
102.870117188 690.823242188 m 1
 506.630859375 690.823242188 l 1
 506.630859375 -0.0771484375 l 1
 102.870117188 -0.0771484375 l 1
 102.870117188 690.823242188 l 1
150.890625 47.943359375 m 1
 458.610351562 47.943359375 l 1
 458.610351562 642.803710938 l 1
 150.890625 642.803710938 l 1
 150.890625 47.943359375 l 1
EndSplineSet
EndChar

StartChar: exclam
Encoding: 33 33 4
Width: 256
GlyphClass: 2
Flags: MW
HStem: -0.0771484 142.101<61.7109 204.79 61.7109 204.79> 670.823 20G<56.417 210.084 210.084 210.084>
VStem: 61.7109 143.079<-0.0771484 142.023 -0.0771484 142.023> 80.7041 105.093<225.323 225.323>
LayerCount: 2
Fore
SplineSet
56.4169921875 690.823242188 m 1xd0
 210.083984375 690.823242188 l 1
 185.796875 225.323242188 l 1
 80.7041015625 225.323242188 l 1
 56.4169921875 690.823242188 l 1xd0
61.7109375 142.0234375 m 1xe0
 204.790039062 142.0234375 l 1
 204.790039062 -0.0771484375 l 1
 61.7109375 -0.0771484375 l 1
 61.7109375 142.0234375 l 1xe0
EndSplineSet
EndChar

StartChar: quotedbl
Encoding: 34 34 5
Width: 401
GlyphClass: 2
Flags: MW
HStem: 384.083 306.74<41.1309 170.49 41.1309 170.49 41.1309 241.051 241.051 369.431>
VStem: 41.1309 129.359<384.083 690.823 384.083 690.823> 241.051 128.38<384.083 690.823 384.083 690.823>
LayerCount: 2
Fore
SplineSet
41.130859375 690.823242188 m 1
 170.490234375 690.823242188 l 1
 170.490234375 384.083007812 l 1
 41.130859375 384.083007812 l 1
 41.130859375 690.823242188 l 1
241.05078125 690.823242188 m 1
 369.430664062 690.823242188 l 1
 369.430664062 384.083007812 l 1
 241.05078125 384.083007812 l 1
 241.05078125 690.823242188 l 1
EndSplineSet
EndChar

StartChar: numbersign
Encoding: 35 35 6
Width: 604
GlyphClass: 2
Flags: MW
HStem: -0.0771484 21G<96.9326 212.702 96.9326 96.9326 307.633 424.383 307.633 307.633> 199.844 104.859<21.5303 123.393 21.5303 137.124 252.901 334.093 21.5303 239.162 464.506 563.471> 397.804 104.859<48.9707 149.819 48.9707 163.545 48.9707 265.597 279.311 360.52 490.01 590.91> 670.823 20G<188.045 303.811 303.811 303.811 398.745 514.51 514.51 514.51>
LayerCount: 2
Fore
SplineSet
590.91015625 502.663085938 m 1
 590.91015625 397.803710938 l 1
 476.354492188 397.803710938 l 1
 464.505859375 304.703125 l 1
 563.470703125 304.703125 l 1
 563.470703125 199.84375 l 1
 450.842773438 199.84375 l 1
 424.3828125 -0.0771484375 l 1
 307.6328125 -0.0771484375 l 1
 334.092773438 199.84375 l 1
 239.162109375 199.84375 l 1
 212.702148438 -0.0771484375 l 1
 96.9326171875 -0.0771484375 l 1
 123.392578125 199.84375 l 1
 21.5302734375 199.84375 l 1
 21.5302734375 304.703125 l 1
 137.124023438 304.703125 l 1
 149.819335938 397.803710938 l 1
 48.970703125 397.803710938 l 1
 48.970703125 502.663085938 l 1
 163.544921875 502.663085938 l 1
 188.044921875 690.823242188 l 1
 303.810546875 690.823242188 l 1
 279.310546875 502.663085938 l 1
 374.245117188 502.663085938 l 1
 398.745117188 690.823242188 l 1
 514.509765625 690.823242188 l 1
 490.009765625 502.663085938 l 1
 590.91015625 502.663085938 l 1
347.82421875 304.703125 m 1
 360.51953125 397.803710938 l 1
 265.596679688 397.803710938 l 1
 252.901367188 304.703125 l 1
 347.82421875 304.703125 l 1
EndSplineSet
EndChar

StartChar: dollar
Encoding: 36 36 7
Width: 538
GlyphClass: 2
Flags: MW
HStem: 31.0732 116.831<220.47 304.302> 549.702 112.719<220.472 318.314>
VStem: 30.9805 126.905<237.084 237.084> 47.0117 133.278<466.686 500.647> 220.47 101.92<-58.876 31.0732 31.0732 31.0732> 377.271 134.259<198.91 239.311>
LayerCount: 2
Fore
SplineSet
274.861328125 147.904296875 m 0xec
 333.7421875 147.904296875 377.271484375 165.612304688 377.271484375 217.974609375 c 0
 377.271484375 260.646484375 355.6171875 281.15625 304.262695312 287.12890625 c 2
 230.767578125 296.928710938 l 2
 110.314453125 312.900390625 47.01171875 372.576171875 47.01171875 474.734375 c 0
 47.01171875 526.559570312 62.8056640625 569.619140625 94.6259765625 602.80859375 c 0
 125.197265625 634.693359375 167.424804688 654.427734375 220.471679688 662.420898438 c 1
 220.471679688 739.822265625 l 1
 322.391601562 739.822265625 l 1
 322.391601562 663.54296875 l 1
 391.231445312 654.66796875 491.325195312 617.4453125 501.709960938 477.2421875 c 2
 502.294921875 469.342773438 l 1
 373.037109375 469.342773438 l 1
 370.151367188 499.630859375 364.708007812 549.702148438 271.920898438 549.702148438 c 0
 232.045898438 549.702148438 180.290039062 539.01953125 180.290039062 483.552734375 c 0xdc
 180.290039062 449.819335938 198.69140625 425.752929688 263.154296875 416.350585938 c 0
 263.188476562 416.345703125 339.6015625 405.5703125 339.6015625 405.5703125 c 2
 452.555664062 389.529296875 511.530273438 329.217773438 511.530273438 226.79296875 c 0
 511.530273438 171.026367188 494.231445312 125.556640625 459.318359375 91.669921875 c 0
 425.801757812 59.1396484375 379.899414062 39.44921875 322.389648438 32.1044921875 c 1
 322.389648438 -58.8759765625 l 1
 220.469726562 -58.8759765625 l 1
 220.469726562 31.0732421875 l 1
 108.266601562 44.603515625 36.8154296875 111.65625 31.3388671875 229.387695312 c 2
 30.98046875 237.083984375 l 1
 157.885742188 237.083984375 l 1
 163.583984375 190.551757812 175.626953125 147.904296875 274.861328125 147.904296875 c 0xec
EndSplineSet
EndChar

StartChar: percent
Encoding: 37 37 8
Width: 979
GlyphClass: 2
Flags: MW
HStem: -5.95508 101.92<774.109 790.908 774.109 841.579> 258.644 101.921<196.89 213.688 196.89 264.359> 331.164 100.941<774.144 790.482> 595.765 100.938<196.924 213.263>
VStem: 48.9707 115.64<426.713 431.614 431.614 523.734 417.492 536.475 417.492 571.311> 243.99 115.641<431.615 523.735 523.735 536.474 381.356 537.861> 626.19 115.64<162.115 167.016 167.016 259.135 152.893 271.875 152.893 306.716> 821.211 115.64<167.015 259.134 259.134 271.875 116.759 273.26>
LayerCount: 2
Fore
SplineSet
204.30078125 258.643554688 m 0xdf
 120.46484375 258.643554688 48.970703125 296.743164062 48.970703125 426.712890625 c 2
 48.970703125 536.474609375 l 2
 48.970703125 606.147460938 74.34375 696.703125 206.260742188 696.703125 c 0
 288.708984375 696.703125 359.630859375 660.623046875 359.630859375 536.473632812 c 2
 359.630859375 426.712890625 l 2
 359.630859375 336 324.41796875 258.643554688 204.30078125 258.643554688 c 0xdf
656.94921875 695.724609375 m 1
 774.357421875 695.724609375 l 1
 329.846679688 -0.076171875 l 1
 213.439453125 -0.076171875 l 1
 656.94921875 695.724609375 l 1
243.990234375 431.615234375 m 2
 243.990234375 523.735351562 l 2
 243.990234375 551.987304688 240.520507812 571.415039062 235.0703125 581.497070312 c 0
 230.090820312 590.70703125 221.245117188 595.764648438 205.280273438 595.764648438 c 0
 188.568359375 595.764648438 179.184570312 590.591796875 173.947265625 581.364257812 c 0
 168.24609375 571.317382812 164.610351562 551.966796875 164.610351562 523.734375 c 2
 164.610351562 431.614257812 l 2
 164.610351562 403.370117188 168.272460938 384.204101562 173.904296875 374.549804688 c 0
 179.09375 365.653320312 188.499023438 360.564453125 205.280273438 360.564453125 c 0
 222.095703125 360.564453125 230.965820312 365.637695312 235.525390625 374.27734375 c 0
 240.6640625 384.012695312 243.990234375 403.33984375 243.990234375 431.615234375 c 2
781.520507812 -5.955078125 m 0
 697.684570312 -5.955078125 626.190429688 32.14453125 626.190429688 162.115234375 c 2
 626.190429688 271.875 l 2
 626.190429688 341.556640625 651.568359375 432.10546875 783.48046875 432.10546875 c 0xbf
 865.928710938 432.10546875 936.850585938 396.024414062 936.850585938 271.875 c 2
 936.850585938 162.115234375 l 2
 936.850585938 71.40234375 901.637695312 -5.955078125 781.520507812 -5.955078125 c 0
821.2109375 167.014648438 m 2
 821.2109375 259.133789062 l 2
 821.2109375 287.38671875 817.740234375 306.814453125 812.290039062 316.896484375 c 0
 807.311523438 326.107421875 798.46484375 331.1640625 782.5 331.1640625 c 0
 765.788085938 331.1640625 756.405273438 325.9921875 751.166992188 316.763671875 c 0
 745.466796875 306.720703125 741.830078125 287.370117188 741.830078125 259.134765625 c 2
 741.830078125 167.015625 l 2
 741.830078125 138.770507812 745.4921875 119.60546875 751.124023438 109.951171875 c 0
 756.313476562 101.053710938 765.71875 95.96484375 782.5 95.96484375 c 0
 799.315429688 95.96484375 808.185546875 101.038085938 812.74609375 109.677734375 c 0
 817.883789062 119.4140625 821.2109375 138.73828125 821.2109375 167.014648438 c 2
EndSplineSet
EndChar

StartChar: ampersand
Encoding: 38 38 9
Width: 666
GlyphClass: 2
Flags: MW
HStem: -13.7979 119.562<254.617 289.824 254.617 306.964> -0.078125 119.561<538.553 625.211 596.302 625.211 596.302 625.211> 595.763 108.78<289.332 308.472>
VStem: 48.9717 130.339<176.907 209.933 176.907 228.321> 108.75 128.382<524.807 559.896> 361.592 126.419<518.643 546.425>
LayerCount: 2
Fore
SplineSet
488.010742188 534.513671875 m 0xac
 488.010742188 466.025390625 451.526367188 417.154296875 359.407226562 356.534179688 c 1
 456.260742188 243.83203125 l 1
 543.811523438 342.083007812 l 1
 630.149414062 263.594726562 l 1
 532.689453125 154.3203125 l 1
 553.185546875 131.772460938 564.357421875 119.482421875 596.301757812 119.482421875 c 2
 625.2109375 119.482421875 l 1
 625.2109375 -0.078125 l 1
 564.94140625 -0.078125 l 2x6c
 512.1640625 -0.078125 482.377929688 18.8662109375 446.973632812 60.548828125 c 1
 405.375 22.197265625 350.827148438 -13.7978515625 263.1015625 -13.7978515625 c 0
 197.08203125 -13.7978515625 144.327148438 4.4697265625 106.077148438 41.6953125 c 0
 67.978515625 78.7734375 48.9716796875 127.15625 48.9716796875 185.6328125 c 0xb4
 48.9716796875 271.009765625 93.4140625 329.94921875 175.845703125 383.447265625 c 1
 126.624023438 446.1328125 108.75 485.026367188 108.75 534.513671875 c 0
 108.75 585.279296875 126.422851562 626.938476562 161.70703125 658.112304688 c 0
 196.892578125 689.19921875 242.450195312 704.54296875 297.400390625 704.54296875 c 0
 353.000976562 704.54296875 399.05078125 689.038085938 434.567382812 657.620117188 c 0
 470.134765625 626.155273438 488.010742188 584.677734375 488.010742188 534.513671875 c 0xac
298.381835938 595.762695312 m 0
 280.28125 595.762695312 237.131835938 590.4140625 237.131835938 539.413085938 c 0
 237.131835938 510.200195312 252.818359375 483.370117188 285.247070312 444.145507812 c 1
 331.68359375 473.081054688 361.591796875 499.833984375 361.591796875 537.452148438 c 0
 361.591796875 555.3984375 355.956054688 569.041992188 344.774414062 579.650390625 c 0
 333.641601562 590.211914062 318.561523438 595.762695312 298.381835938 595.762695312 c 0
251.907226562 292.517578125 m 1
 199.893554688 257.560546875 179.310546875 229.333007812 179.310546875 190.533203125 c 0
 179.310546875 163.28125 187.359375 142.989257812 202.971679688 128.259765625 c 0
 218.635742188 113.482421875 240.251953125 105.763671875 268.981445312 105.763671875 c 0xb4
 310.666015625 105.763671875 341.16796875 123.766601562 371.51171875 151.000976562 c 1
 251.907226562 292.517578125 l 1
EndSplineSet
EndChar

StartChar: quotesingle
Encoding: 39 39 10
Width: 201
GlyphClass: 2
Flags: MW
HStem: 384.083 306.74<41.1309 170.49 41.1309 170.49>
VStem: 41.1309 129.359<384.083 690.823 384.083 690.823>
LayerCount: 2
Fore
SplineSet
41.130859375 690.823242188 m 1
 170.490234375 690.823242188 l 1
 170.490234375 384.083007812 l 1
 41.130859375 384.083007812 l 1
 41.130859375 690.823242188 l 1
EndSplineSet
EndChar

StartChar: parenleft
Encoding: 40 40 11
Width: 329
GlyphClass: 2
Flags: MW
VStem: 48.9707 135.24<277.709 403.011>
LayerCount: 2
Fore
SplineSet
48.970703125 329.694335938 m 0
 48.970703125 476.328125 90.421875 616.247070312 191.008789062 739.823242188 c 1
 296.663085938 739.823242188 l 1
 267.506835938 691.23046875 184.2109375 552.404296875 184.2109375 328.712890625 c 0
 184.2109375 226.705078125 202.5625 75.5234375 289.038085938 -71.3251953125 c 2
 295.55859375 -82.396484375 l 1
 189.919921875 -82.396484375 l 1
 147.5703125 -27.771484375 48.970703125 110.4453125 48.970703125 329.694335938 c 0
EndSplineSet
Substitution2: "'rtla' Right to Left Alternates lookup 0 subtable" parenright
EndChar

StartChar: parenright
Encoding: 41 41 12
Width: 329
GlyphClass: 2
Flags: MW
VStem: 155.79 135.24<259.991 380.843>
LayerCount: 2
Fore
SplineSet
155.790039062 328.712890625 m 0
 155.790039062 432.97265625 136.85546875 583.962890625 50.013671875 728.69921875 c 2
 43.3388671875 739.823242188 l 1
 149.05078125 739.823242188 l 1
 194.844726562 682.083984375 291.030273438 546.3203125 291.030273438 329.694335938 c 0
 291.030273438 190.288085938 251.982421875 49.041015625 150.081054688 -82.396484375 c 1
 43.4619140625 -82.396484375 l 1
 49.982421875 -71.3251953125 l 2
 98.1123046875 10.4052734375 155.790039062 146.356445312 155.790039062 328.712890625 c 0
EndSplineSet
Substitution2: "'rtla' Right to Left Alternates lookup 0 subtable" parenleft
EndChar

StartChar: asterisk
Encoding: 42 42 13
Width: 418
GlyphClass: 2
Flags: MW
HStem: 381.144 309.68<173.431 255.75 173.431 255.75>
VStem: 173.431 82.3193<381.144 475.525 599.326 690.823>
LayerCount: 2
Fore
SplineSet
255.75 381.143554688 m 1
 173.430664062 381.143554688 l 1
 173.430664062 476.451171875 l 1
 81.669921875 429.634765625 l 1
 46.2958984375 495.504882812 l 1
 128.369140625 537.453125 l 1
 46.2958984375 579.40234375 l 1
 81.642578125 645.220703125 l 1
 173.430664062 599.326171875 l 1
 173.430664062 690.823242188 l 1
 255.75 690.823242188 l 1
 255.75 598.455078125 l 1
 347.604492188 645.319335938 l 1
 381.809570312 579.353515625 l 1
 299.90234375 537.489257812 l 1
 382.998046875 495.485351562 l 1
 346.454101562 429.706054688 l 1
 255.75 475.525390625 l 1
 255.75 381.143554688 l 1
EndSplineSet
EndChar

StartChar: plus
Encoding: 43 43 14
Width: 532
GlyphClass: 2
Flags: MW
HStem: 214.543 126.42<50.9307 207.73 50.9307 207.73 334.15 489.971>
VStem: 207.73 126.42<57.7432 214.543 57.7432 214.543 340.963 497.764>
LayerCount: 2
Fore
SplineSet
334.150390625 214.54296875 m 1
 334.150390625 57.7431640625 l 1
 207.73046875 57.7431640625 l 1
 207.73046875 214.54296875 l 1
 50.9306640625 214.54296875 l 1
 50.9306640625 340.962890625 l 1
 207.73046875 340.962890625 l 1
 207.73046875 497.763671875 l 1
 334.150390625 497.763671875 l 1
 334.150390625 340.962890625 l 1
 489.970703125 340.962890625 l 1
 489.970703125 214.54296875 l 1
 334.150390625 214.54296875 l 1
EndSplineSet
EndChar

StartChar: comma
Encoding: 44 44 15
Width: 201
GlyphClass: 2
Flags: MW
HStem: -167.332 316.216<41.1309 170.49>
VStem: 41.1309 129.359<-57.874 148.884 -57.874 148.884 -57.874 148.884>
LayerCount: 2
Fore
SplineSet
41.130859375 148.883789062 m 1
 170.490234375 148.883789062 l 1
 170.490234375 -57.8740234375 l 1
 41.130859375 -167.33203125 l 1
 41.130859375 148.883789062 l 1
EndSplineSet
EndChar

StartChar: hyphen
Encoding: 45 45 16
Width: 405
GlyphClass: 2
Flags: MW
HStem: 282.163 127.4<48.9707 366.49 48.9707 366.49>
VStem: 48.9707 317.52<282.163 409.563 282.163 409.563>
LayerCount: 2
Fore
SplineSet
48.970703125 409.563476562 m 1
 366.490234375 409.563476562 l 1
 366.490234375 282.163085938 l 1
 48.970703125 282.163085938 l 1
 48.970703125 409.563476562 l 1
EndSplineSet
EndChar

StartChar: period
Encoding: 46 46 17
Width: 222
GlyphClass: 2
Flags: MW
HStem: -0.0771484 153.86<41.1309 192.051 41.1309 192.051>
VStem: 41.1309 150.92<-0.0771484 153.783 -0.0771484 153.783>
LayerCount: 2
Fore
SplineSet
41.130859375 153.783203125 m 1
 192.05078125 153.783203125 l 1
 192.05078125 -0.0771484375 l 1
 41.130859375 -0.0771484375 l 1
 41.130859375 153.783203125 l 1
EndSplineSet
EndChar

StartChar: slash
Encoding: 47 47 18
Width: 449
GlyphClass: 2
Flags: MW
HStem: -9.87695 21G<45.9277 163.434 45.9277 45.9277> 675.724 20G<295.14 413.646 413.646 413.646>
LayerCount: 2
Fore
SplineSet
295.139648438 695.723632812 m 1
 413.646484375 695.723632812 l 1
 163.43359375 -9.876953125 l 1
 45.927734375 -9.876953125 l 1
 295.139648438 695.723632812 l 1
EndSplineSet
EndChar

StartChar: zero
Encoding: 48 48 19
Width: 566
GlyphClass: 2
Flags: MW
HStem: -10.8564 126.42<275.663 309.689 275.663 391.285> 574.204 127.399<275.646 309.352>
VStem: 57.79 144.061<244.434 255.214 255.214 435.534> 384.131 143.08<255.214 435.534 435.534 454.153>
LayerCount: 2
Fore
SplineSet
292.5 -10.8564453125 m 0
 159.778320312 -10.8564453125 57.7900390625 51.8134765625 57.7900390625 244.43359375 c 2
 57.7900390625 454.153320312 l 2
 57.7900390625 521.70703125 69.1845703125 701.603515625 292.5 701.603515625 c 0
 376.750976562 701.603515625 527.2109375 678.139648438 527.2109375 454.153320312 c 2
 527.2109375 244.43359375 l 2
 527.2109375 129.744140625 490.0703125 -10.8564453125 292.5 -10.8564453125 c 0
384.130859375 255.213867188 m 2
 384.130859375 435.534179688 l 2
 384.130859375 486.520507812 376.311523438 522.36328125 362.34375 543.1640625 c 0
 348.6484375 563.561523438 326.203125 574.204101562 292.5 574.204101562 c 0
 258.791992188 574.204101562 236.552734375 563.564453125 223.1875 543.225585938 c 0
 209.510742188 522.413085938 201.850585938 486.53125 201.850585938 435.534179688 c 2
 201.850585938 255.213867188 l 2
 201.850585938 204.22265625 209.499023438 168.16015625 223.213867188 146.9921875 c 0
 236.600585938 126.328125 258.825195312 115.563476562 292.5 115.563476562 c 0
 326.877929688 115.563476562 349.409179688 126.374023438 362.767578125 146.9921875 c 0
 376.481445312 168.16015625 384.130859375 204.22265625 384.130859375 255.213867188 c 2
EndSplineSet
EndChar

StartChar: one
Encoding: 49 49 20
Width: 384
GlyphClass: 2
Flags: MW
HStem: -0.0771484 21G<183.23 326.311 183.23 183.23> 670.823 20G<188.568 326.311 326.311 326.311>
VStem: 183.23 143.08<-0.0771484 536.473 536.473 536.473>
LayerCount: 2
Fore
SplineSet
39.1708984375 453.172851562 m 1
 39.1708984375 602.404296875 l 1
 188.568359375 690.823242188 l 1
 326.310546875 690.823242188 l 1
 326.310546875 -0.0771484375 l 1
 183.23046875 -0.0771484375 l 1
 183.23046875 536.47265625 l 1
 39.1708984375 453.172851562 l 1
EndSplineSet
Substitution2: "'sups' Superscript lookup 1 subtable" uni00B9
EndChar

StartChar: two
Encoding: 50 50 21
Width: 547
GlyphClass: 2
Flags: MW
HStem: -0.0771484 127.4<254.727 512.511 254.727 512.511> 578.122 123.481<263.686 292.225>
VStem: 52.8896 137.2<481.103 504.133 481.103 511.973 481.103 540.653> 367.47 144.061<490.412 491.394 491.394 501.192 501.192 504.134 461.63 513.417>
LayerCount: 2
Fore
SplineSet
279.759765625 701.603515625 m 0
 424.994140625 701.603515625 511.530273438 619.56640625 511.530273438 504.133789062 c 2
 511.530273438 491.393554688 l 2
 511.530273438 431.8671875 491.573242188 376.904296875 425.165039062 306.92578125 c 2
 254.7265625 127.323242188 l 1
 512.510742188 127.323242188 l 1
 512.510742188 -0.0771484375 l 1
 56.810546875 -0.0771484375 l 1
 56.810546875 112.091796875 l 1
 141.836914062 203.041992188 225.491210938 295.340820312 311.884765625 384.948242188 c 0
 351.095703125 425.618164062 367.469726562 452.827148438 367.469726562 490.412109375 c 2
 367.469726562 501.192382812 l 2
 367.469726562 525.642578125 359.6015625 543.870117188 344.036132812 557.379882812 c 0
 328.399414062 570.950195312 306.649414062 578.122070312 277.799804688 578.122070312 c 0
 249.572265625 578.122070312 228.270507812 571.252929688 212.962890625 558.299804688 c 0
 197.776367188 545.44921875 190.08984375 527.91796875 190.08984375 504.1328125 c 2
 190.08984375 481.102539062 l 1
 52.8896484375 481.102539062 l 1
 52.8896484375 511.97265625 l 2
 52.8896484375 569.333007812 73.4052734375 615.9609375 114.310546875 650.388671875 c 0
 155.192382812 684.797851562 210.649414062 701.603515625 279.759765625 701.603515625 c 0
EndSplineSet
Substitution2: "'sups' Superscript lookup 1 subtable" uni00B2
EndChar

StartChar: three
Encoding: 51 51 22
Width: 558
GlyphClass: 2
Flags: MW
HStem: -10.8564 123.479<247.896 313.596 244.09 319.911> 293.922 123.48<226.35 270.939 270.939 271.92 226.35 270.939> 578.122 123.48<261.739 316.241 246.547 316.283>
VStem: 52.8896 134.26<180.733 183.673 183.673 198.863 166.371 198.863> 365.51 141.12<493.353 505.112 505.112 517.853 493.19 519.155> 377.27 141.121<196.412 211.112 211.112 211.113 163.88 232.212>
LayerCount: 2
Fore
SplineSet
423.444335938 367.741210938 m 1xf8
 442.901367188 359.204101562 518.390625 324.173828125 518.390625 211.11328125 c 2
 518.390625 195.43359375 l 2
 518.390625 132.327148438 497.180664062 81.4765625 454.6171875 44.3623046875 c 0
 412.143554688 7.3251953125 355.161132812 -10.8564453125 284.66015625 -10.8564453125 c 0
 211.130859375 -10.8564453125 153.7578125 5.166015625 113.397460938 38.3427734375 c 0
 72.9228515625 71.615234375 52.8896484375 119.653320312 52.8896484375 180.733398438 c 2
 52.8896484375 198.86328125 l 1
 187.149414062 198.86328125 l 1
 187.149414062 183.672851562 l 2
 187.149414062 149.068359375 205.48046875 112.623046875 282.69921875 112.623046875 c 0
 344.4921875 112.623046875 377.26953125 143.129882812 377.26953125 196.412109375 c 2
 377.26953125 211.112304688 l 2xf4
 377.26953125 253.311523438 360.303710938 293.921875 271.919921875 293.921875 c 2
 226.349609375 293.921875 l 1
 226.349609375 417.40234375 l 1
 270.939453125 417.40234375 l 2
 313.006835938 417.40234375 365.509765625 429.5078125 365.509765625 493.352539062 c 2
 365.509765625 505.112304688 l 2
 365.509765625 533.197265625 353.787109375 578.122070312 278.779296875 578.122070312 c 0
 244.698242188 578.122070312 191.069335938 569.08984375 191.069335938 506.092773438 c 2
 191.069335938 489.921875 l 1
 58.76953125 489.921875 l 1
 58.76953125 506.092773438 l 2
 58.76953125 568.365234375 78.033203125 617.311523438 117.1640625 651.29296875 c 0
 156.190429688 685.185546875 211.374023438 701.602539062 281.719726562 701.602539062 c 0
 350.76171875 701.602539062 405.834960938 685.668945312 446.092773438 652.916015625 c 0
 486.4375 620.09375 506.629882812 574.543945312 506.629882812 517.852539062 c 2
 506.629882812 505.112304688 l 2
 506.629882812 481.268554688 503.130859375 411.06640625 423.444335938 367.741210938 c 1xf8
EndSplineSet
Substitution2: "'sups' Superscript lookup 1 subtable" uni00B3
EndChar

StartChar: four
Encoding: 52 52 23
Width: 579
GlyphClass: 2
Flags: MW
HStem: -0.0771484 21G<348.851 491.931 348.851 348.851> 107.724 127.399<191.455 348.851 191.455 348.851 491.931 553.671> 670.823 20G<261.395 409.015 409.015 409.015>
VStem: 348.851 143.08<-0.0771484 107.724 -0.0771484 107.724 235.123 393.884>
LayerCount: 2
Fore
SplineSet
491.930664062 235.123046875 m 1
 553.670898438 235.123046875 l 1
 553.670898438 107.723632812 l 1
 491.930664062 107.723632812 l 1
 491.930664062 -0.0771484375 l 1
 348.850585938 -0.0771484375 l 1
 348.850585938 107.723632812 l 1
 42.1103515625 107.723632812 l 1
 42.1103515625 229.432617188 l 1
 261.39453125 690.823242188 l 1
 409.014648438 690.823242188 l 1
 191.455078125 235.123046875 l 1
 348.850585938 235.123046875 l 1
 348.850585938 393.883789062 l 1
 491.930664062 393.883789062 l 1
 491.930664062 235.123046875 l 1
EndSplineSet
EndChar

StartChar: five
Encoding: 53 53 24
Width: 550
GlyphClass: 2
Flags: MW
HStem: -10.8564 123.479<253.332 288.717 253.332 315.014> 339.983 119.56<285.743 312.228> 566.363 124.46<194.99 489.971 194.99 194.99>
VStem: 69.5508 125.439<429.831 566.363 429.831 690.823 429.831 690.823> 369.431 141.12<210.134 240.514 240.514 245.413 174.129 269.551>
LayerCount: 2
Fore
SplineSet
369.430664062 240.513671875 m 2
 369.430664062 298.587890625 344.6953125 339.983398438 279.760742188 339.983398438 c 0
 261.950195312 339.983398438 217.385742188 335.696289062 196.12109375 294.940429688 c 2
 194.056640625 290.983398438 l 1
 69.55078125 290.983398438 l 1
 69.55078125 690.823242188 l 1
 489.970703125 690.823242188 l 1
 489.970703125 566.36328125 l 1
 194.990234375 566.36328125 l 1
 194.990234375 429.831054688 l 1
 226.728515625 449.69921875 264.286132812 459.54296875 307.200195312 459.54296875 c 0
 370.700195312 459.54296875 421.138671875 440.857421875 457.08984375 402.852539062 c 0
 493.005859375 364.883789062 510.55078125 312.0078125 510.55078125 245.413085938 c 2
 510.55078125 208.172851562 l 2
 510.55078125 140.084960938 490.3828125 85.900390625 449.4609375 47.0244140625 c 0
 408.541015625 8.1513671875 351.247070312 -10.8564453125 278.780273438 -10.8564453125 c 0
 212.318359375 -10.8564453125 158.584960938 4.779296875 118.385742188 36.8017578125 c 0
 78.0146484375 68.9619140625 57.7890625 113.888671875 57.7890625 169.953125 c 2
 57.7890625 185.143554688 l 1
 194.989257812 185.143554688 l 1
 194.989257812 173.873046875 l 2
 194.989257812 137.631835938 226.903320312 112.623046875 279.759765625 112.623046875 c 0
 297.673828125 112.623046875 369.430664062 112.90234375 369.430664062 210.133789062 c 2
 369.430664062 240.513671875 l 2
EndSplineSet
EndChar

StartChar: six
Encoding: 54 54 25
Width: 571
GlyphClass: 2
Flags: MW
HStem: -10.8564 123.479<278.41 310.507 278.41 331.023> 305.683 121.521<278.091 363.802> 670.823 20G<279.445 435.594 435.594 435.594>
VStem: 52.8896 143.08<202.292 219.933 187.059 221.893 187.059 247.546> 393.93 143.08<201.312 206.213 206.213 218.951 218.951 226.793 172.725 233.192>
LayerCount: 2
Fore
SplineSet
52.8896484375 202.291992188 m 2
 52.8896484375 221.892578125 l 2
 52.8896484375 273.19921875 69.7724609375 328.029296875 102.875976562 386.291992188 c 2
 279.4453125 690.823242188 l 1
 435.59375 690.823242188 l 1
 278.915039062 420.456054688 l 1
 294.701171875 425.014648438 312.959960938 427.203125 333.659179688 427.203125 c 0
 393.9453125 427.203125 443.407226562 409.145507812 480.8828125 372.69140625 c 0
 518.413085938 336.184570312 537.009765625 287.124023438 537.009765625 226.79296875 c 2
 537.009765625 206.212890625 l 2
 537.009765625 139.236328125 515.024414062 85.60546875 470.801757812 46.826171875 c 0
 426.700195312 8.1513671875 367.5859375 -10.8564453125 294.4609375 -10.8564453125 c 0
 219.465820312 -10.8564453125 160.010742188 7.5869140625 117.125 45.3671875 c 0
 74.1826171875 83.197265625 52.8896484375 136.014648438 52.8896484375 202.291992188 c 2
294.459960938 305.682617188 m 0
 261.721679688 305.682617188 195.969726562 296.189453125 195.969726562 219.932617188 c 2
 195.969726562 201.3125 l 2
 195.969726562 172.805664062 204.620117188 151.58203125 221.5 136.182617188 c 0
 238.409179688 120.7578125 262.360351562 112.622070312 294.459960938 112.622070312 c 0
 326.553710938 112.622070312 350.69921875 120.754882812 367.956054688 136.225585938 c 0
 385.1484375 151.639648438 393.9296875 172.837890625 393.9296875 201.311523438 c 2
 393.9296875 218.951171875 l 2
 393.9296875 247.432617188 385.153320312 268.231445312 368.064453125 282.963867188 c 0
 350.817382812 297.83203125 326.607421875 305.682617188 294.459960938 305.682617188 c 0
EndSplineSet
EndChar

StartChar: seven
Encoding: 55 55 26
Width: 511
GlyphClass: 2
Flags: MW
HStem: -0.0771484 21G<102.046 248.378 102.046 102.046> 564.403 126.42<36.2305 342.146 36.2305 488.99>
LayerCount: 2
Fore
SplineSet
488.990234375 690.823242188 m 1
 488.990234375 570.263671875 l 1
 248.377929688 -0.0771484375 l 1
 102.045898438 -0.0771484375 l 1
 342.145507812 564.403320312 l 1
 36.23046875 564.403320312 l 1
 36.23046875 690.823242188 l 1
 488.990234375 690.823242188 l 1
EndSplineSet
EndChar

StartChar: eight
Encoding: 56 56 27
Width: 580
GlyphClass: 2
Flags: MW
HStem: -10.8564 123.48<269.038 317.24 269.038 335.586> 299.805 120.539<283.927 314.788 256.726 316.757> 578.123 123.48<285.863 314.47>
VStem: 57.7891 141.12<198.373 200.334 200.334 212.094 212.094 215.034 171.047 226.669> 72.4893 140.14<496.293 506.094 489.107 507.073 489.107 562.619> 387.068 141.121<495.314 496.293 496.293 506.095 506.095 507.073 480.964 517.653> 400.79 140.141<200.334 213.073 167.128 215.034 167.128 228.572>
LayerCount: 2
Fore
SplineSet
300.33984375 701.603515625 m 0xe8
 446.634765625 701.603515625 528.189453125 618.1484375 528.189453125 507.073242188 c 2
 528.189453125 496.29296875 l 2xec
 528.189453125 465.635742188 520.473632812 437.592773438 505.05078125 412.57421875 c 0
 492.110351562 391.581054688 475.278320312 374.688476562 454.776367188 362.112304688 c 1
 480.220703125 347.198242188 500.516601562 327.668945312 515.33984375 303.65625 c 0
 532.3671875 276.071289062 540.930664062 245.748046875 540.930664062 213.073242188 c 2
 540.930664062 199.353515625 l 2
 540.930664062 134.90234375 518.86328125 83.044921875 474.649414062 45.2919921875 c 0
 430.555664062 7.642578125 371.811523438 -10.8564453125 299.360351562 -10.8564453125 c 0
 226.91015625 -10.8564453125 168.166015625 7.642578125 124.072265625 45.2919921875 c 0
 79.876953125 83.0283203125 57.7890625 134.551757812 57.7890625 198.373046875 c 2
 57.7890625 212.09375 l 2xf2
 57.7890625 241.245117188 65.8134765625 317.454101562 144.708984375 362.23828125 c 1
 108.487304688 384.514648438 72.4892578125 428.451171875 72.4892578125 496.29296875 c 2
 72.4892578125 507.073242188 l 2
 72.4892578125 618.1640625 154.061523438 701.603515625 300.33984375 701.603515625 c 0xe8
212.62890625 495.313476562 m 2
 212.62890625 482.900390625 213.11328125 420.34375 300.338867188 420.34375 c 0
 329.237304688 420.34375 350.432617188 427.391601562 365.005859375 440.5078125 c 0
 379.624023438 453.6640625 387.068359375 471.451171875 387.068359375 495.314453125 c 2
 387.068359375 506.094726562 l 2
 387.068359375 529.211914062 379.55859375 546.250976562 364.6953125 558.782226562 c 0
 349.744140625 571.387695312 328.600585938 578.123046875 300.338867188 578.123046875 c 0
 271.387695312 578.123046875 249.91796875 571.358398438 235.001953125 558.782226562 c 0
 220.138671875 546.25 212.62890625 529.2109375 212.62890625 506.09375 c 2
 212.62890625 495.313476562 l 2
300.338867188 112.624023438 m 0
 334.141601562 112.624023438 400.790039062 122.494140625 400.790039062 200.333984375 c 2
 400.790039062 215.034179688 l 2
 400.790039062 242.109375 392.09765625 262.28125 374.924804688 277.0859375 c 0
 357.708984375 291.927734375 333.173828125 299.8046875 300.340820312 299.8046875 c 0
 267.512695312 299.8046875 242.784179688 291.932617188 225.216796875 277.044921875 c 0
 207.729492188 262.224609375 198.909179688 242.073242188 198.909179688 215.034179688 c 2
 198.909179688 200.333984375 l 2xf2
 198.909179688 141.759765625 237.737304688 112.624023438 300.338867188 112.624023438 c 0
EndSplineSet
EndChar

StartChar: nine
Encoding: 57 57 28
Width: 571
GlyphClass: 2
Flags: MW
HStem: -0.0771484 21G<154.345 309.475 154.345 154.345> 263.543 121.521<226.089 310.524> 578.123 123.48<278.411 310.524>
VStem: 52.8906 143.08<464.934 472.773 472.773 485.514 485.514 489.434 458.518 518.985> 392.95 144.061<471.793 489.434 442.866 490.413 442.866 504.669>
LayerCount: 2
Fore
SplineSet
256.240234375 263.54296875 m 0
 195.938476562 263.54296875 146.463867188 281.780273438 108.9921875 318.569335938 c 0
 71.4853515625 355.393554688 52.890625 404.6015625 52.890625 464.93359375 c 2
 52.890625 485.513671875 l 2
 52.890625 552.45703125 74.5185546875 605.921875 118.099609375 644.39453125 c 0
 161.584960938 682.784179688 220.712890625 701.603515625 294.4609375 701.603515625 c 0
 369.458984375 701.603515625 429.0625 683.158203125 472.263671875 645.3984375 c 0
 515.520507812 607.591796875 537.010742188 555.095703125 537.010742188 489.43359375 c 2
 537.010742188 468.853515625 l 2
 537.010742188 416.87890625 519.831054688 362.091796875 486.043945312 304.454101562 c 0
 486.026367188 304.423828125 311.603515625 3.5947265625 311.603515625 3.5947265625 c 1
 309.474609375 -0.0771484375 l 1
 154.344726562 -0.0771484375 l 1
 310.318359375 270.724609375 l 1
 293.86328125 265.912109375 275.817382812 263.54296875 256.240234375 263.54296875 c 0
392.950195312 471.79296875 m 2
 392.950195312 490.413085938 l 2
 392.950195312 518.924804688 384.301757812 539.947265625 367.47265625 555.004882812 c 0
 350.5703125 570.127929688 326.586914062 578.123046875 294.4609375 578.123046875 c 0
 262.361328125 578.123046875 238.41015625 569.987304688 221.500976562 554.5625 c 0
 204.62109375 539.1640625 195.970703125 517.940429688 195.970703125 489.43359375 c 2
 195.970703125 472.7734375 l 2
 195.970703125 444.262695312 204.619140625 423.239257812 221.448242188 408.181640625 c 0
 238.350585938 393.05859375 262.333984375 385.063476562 294.4609375 385.063476562 c 0
 326.586914062 385.063476562 350.5703125 393.05859375 367.47265625 408.181640625 c 0
 384.340820312 423.274414062 392.950195312 443.983398438 392.950195312 471.79296875 c 2
EndSplineSet
EndChar

StartChar: colon
Encoding: 58 58 29
Width: 222
GlyphClass: 2
Flags: MW
HStem: -0.0771484 153.86<41.1309 192.051 41.1309 192.051> 331.163 153.86<41.1309 192.051 41.1309 192.051>
VStem: 41.1309 150.92<-0.0771484 153.783 -0.0771484 153.783 331.163 485.023>
LayerCount: 2
Fore
SplineSet
41.130859375 485.0234375 m 1
 192.05078125 485.0234375 l 1
 192.05078125 331.163085938 l 1
 41.130859375 331.163085938 l 1
 41.130859375 485.0234375 l 1
41.130859375 153.783203125 m 1
 192.05078125 153.783203125 l 1
 192.05078125 -0.0771484375 l 1
 41.130859375 -0.0771484375 l 1
 41.130859375 153.783203125 l 1
EndSplineSet
EndChar

StartChar: semicolon
Encoding: 59 59 30
Width: 222
GlyphClass: 2
Flags: MW
HStem: 331.163 153.86<41.1309 192.051 41.1309 192.051>
VStem: 41.1309 150.92<331.163 485.023 331.163 485.023> 60.7305 129.36<-57.874 148.884 -57.874 148.884 -57.874 148.884>
LayerCount: 2
Fore
SplineSet
41.130859375 485.0234375 m 1xc0
 192.05078125 485.0234375 l 1
 192.05078125 331.163085938 l 1
 41.130859375 331.163085938 l 1
 41.130859375 485.0234375 l 1xc0
60.73046875 148.883789062 m 1xa0
 190.090820312 148.883789062 l 1
 190.090820312 -57.8740234375 l 1
 60.73046875 -167.33203125 l 1
 60.73046875 148.883789062 l 1xa0
EndSplineSet
EndChar

StartChar: less
Encoding: 60 60 31
Width: 532
GlyphClass: 2
Flags: W
LayerCount: 2
Fore
SplineSet
50.9306640625 220.805664062 m 1
 50.9306640625 331.771484375 l 1
 488.990234375 503.142578125 l 1
 488.990234375 374.608398438 l 1
 229.919921875 275.826171875 l 1
 488.990234375 177.975585938 l 1
 488.990234375 48.4208984375 l 1
 50.9306640625 220.805664062 l 1
EndSplineSet
Substitution2: "'rtla' Right to Left Alternates lookup 0 subtable" greater
EndChar

StartChar: equal
Encoding: 61 61 32
Width: 532
GlyphClass: 2
Flags: MW
HStem: 112.623 125.44<51.9102 488.99 51.9102 488.99> 317.443 125.44<51.9102 488.99 51.9102 488.99>
LayerCount: 2
Fore
SplineSet
51.91015625 442.883789062 m 1
 488.990234375 442.883789062 l 1
 488.990234375 317.443359375 l 1
 51.91015625 317.443359375 l 1
 51.91015625 442.883789062 l 1
51.91015625 238.063476562 m 1
 488.990234375 238.063476562 l 1
 488.990234375 112.623046875 l 1
 51.91015625 112.623046875 l 1
 51.91015625 238.063476562 l 1
EndSplineSet
EndChar

StartChar: greater
Encoding: 62 62 33
Width: 532
GlyphClass: 2
Flags: W
LayerCount: 2
Fore
SplineSet
50.9306640625 374.608398438 m 1
 50.9306640625 503.142578125 l 1
 488.990234375 331.771484375 l 1
 488.990234375 220.805664062 l 1
 50.9306640625 48.4208984375 l 1
 50.9306640625 177.975585938 l 1
 310.000976562 275.826171875 l 1
 50.9306640625 374.608398438 l 1
EndSplineSet
Substitution2: "'rtla' Right to Left Alternates lookup 0 subtable" less
EndChar

StartChar: question
Encoding: 63 63 34
Width: 504
GlyphClass: 2
Flags: MW
HStem: -0.0761719 138.181<176.371 319.451 176.371 319.451> 575.184 125.439<207.85 278.145>
VStem: 176.371 143.08<-0.0761719 138.104 -0.0761719 138.104> 335.131 140.14<499.319 532.418>
LayerCount: 2
Fore
SplineSet
335.130859375 511.974609375 m 0
 335.130859375 552.861328125 307.889648438 575.18359375 248.400390625 575.18359375 c 0
 167.298828125 575.18359375 164.278320312 530.934570312 163.44921875 497.763671875 c 1
 30.1171875 497.763671875 l 1
 32.0283203125 558.92578125 42.443359375 700.623046875 251.340820312 700.623046875 c 0
 320.366210938 700.623046875 375.2734375 684.866210938 415.21875 652.431640625 c 0
 455.2578125 619.920898438 475.270507812 574.524414062 475.270507812 517.853515625 c 0
 475.270507812 461.642578125 452.200195312 413.416015625 409.426757812 371.541015625 c 0
 389.905273438 352.430664062 372.755859375 330.9609375 353.439453125 311.642578125 c 0
 324.895507812 283.096679688 316.510742188 264.69140625 316.510742188 226.79296875 c 2
 316.510742188 189.063476562 l 1
 180.290039062 189.063476562 l 1
 180.290039062 241.493164062 l 2
 180.290039062 309.44921875 195.1640625 339.01953125 238.368164062 380.0390625 c 0
 255.829101562 396.6171875 271.12890625 415.407226562 288.481445312 432.100585938 c 0
 325.245117188 467.466796875 335.130859375 486.663085938 335.130859375 511.974609375 c 0
176.37109375 138.104492188 m 1
 319.451171875 138.104492188 l 1
 319.451171875 -0.076171875 l 1
 176.37109375 -0.076171875 l 1
 176.37109375 138.104492188 l 1
EndSplineSet
EndChar

StartChar: at
Encoding: 64 64 35
Width: 871
GlyphClass: 2
Flags: MW
HStem: -133.356 112.702<402.394 484.585 353.691 500.736> 52.8438 104.86<641.973 670.851 641.973 682.78> 402.702 106.821<339.367 448.767> 585.966 112.696<402.396 468.418>
VStem: 48.9727 124.458<248.353 249.336 249.336 316.952 316.952 318.916 170.428 354.411> 253.789 124.463<237.573 243.452 243.452 323.812 229.16 323.813 229.16 362.724> 494.872 123.479<240.513 322.832 322.832 359.259> 706.551 124.46<252.274 253.253 253.253 320.874 320.874 321.854 221.307 355.801>
LayerCount: 2
Fore
SplineSet
173.430664062 249.3359375 m 2
 173.430664062 91.5205078125 266.90234375 -20.654296875 440.48046875 -20.654296875 c 0
 528.689453125 -20.654296875 584.258789062 0.10546875 646.509765625 31.8408203125 c 1
 696.194335938 -64.1396484375 l 1
 633.926757812 -100.641601562 560.991210938 -133.356445312 440.48046875 -133.356445312 c 0
 364.307617188 -133.356445312 296.405273438 -117.436523438 237.079101562 -85.4404296875 c 0
 177.794921875 -53.466796875 131.452148438 -8.474609375 98.4482421875 49.19921875 c 0
 65.4111328125 106.931640625 48.97265625 173.434570312 48.97265625 248.352539062 c 2
 48.97265625 316.952148438 l 2
 48.97265625 391.870117188 65.4111328125 458.373046875 98.4482421875 516.10546875 c 0
 131.452148438 573.779296875 177.796875 618.772460938 237.081054688 650.74609375 c 0
 296.407226562 682.7421875 364.309570312 698.662109375 440.482421875 698.662109375 c 0
 670.317382812 698.662109375 831.010742188 543.828125 831.010742188 321.853515625 c 2
 831.010742188 253.252929688 l 2
 831.010742188 189.360351562 815.01171875 139.408203125 781.948242188 104.622070312 c 0
 749.208007812 70.17578125 707.520507812 52.84375 658.040039062 52.84375 c 0
 619.791015625 52.84375 567.161132812 62.5947265625 534.864257812 109.409179688 c 1
 510.786132812 71.3994140625 467.922851562 52.84375 409.119140625 52.84375 c 0
 324.536132812 52.84375 253.7890625 95.3525390625 253.7890625 237.573242188 c 2
 253.7890625 323.813476562 l 2
 253.7890625 401.633789062 276.47265625 509.5234375 402.260742188 509.5234375 c 0
 424.323242188 509.5234375 466.677734375 505.028320312 496.830078125 474.081054688 c 1
 496.830078125 498.744140625 l 1
 618.350585938 498.744140625 l 1
 618.350585938 212.094726562 l 2
 618.350585938 188.41015625 624.924804688 157.704101562 659.020507812 157.704101562 c 0
 682.680664062 157.704101562 706.55078125 171.149414062 706.55078125 252.274414062 c 2
 706.55078125 320.874023438 l 2
 706.55078125 390.728515625 687.584960938 496.905273438 583.485351562 553.53515625 c 0
 543.92578125 575.055664062 496.356445312 585.965820312 440.48046875 585.965820312 c 0
 356.299804688 585.965820312 291.340820312 561.989257812 244.303710938 514.637695312 c 0
 197.241210938 467.259765625 173.430664062 402.439453125 173.430664062 318.916015625 c 2
 173.430664062 249.3359375 l 2
437.541992188 159.662109375 m 0
 459.692382812 159.662109375 494.872070312 166.505859375 494.872070312 240.512695312 c 2
 494.872070312 322.83203125 l 2
 494.872070312 395.686523438 459.991210938 402.702148438 437.541992188 402.702148438 c 0
 416.354492188 402.702148438 402.279296875 395.891601562 393.091796875 382.805664062 c 0
 383.493164062 369.135742188 378.251953125 349.650390625 378.251953125 323.8125 c 2
 378.251953125 243.452148438 l 2
 378.251953125 214.868164062 383.432617188 193.806640625 392.702148438 179.90234375 c 0
 401.54296875 166.642578125 415.670898438 159.662109375 437.541992188 159.662109375 c 0
EndSplineSet
EndChar

StartChar: A
Encoding: 65 65 36
Width: 681
GlyphClass: 2
Flags: MW
HStem: -0.0771484 21G<4.2002 4.2002 4.2002 157.464 532.396 532.396 532.396 685.66> 131.243 121.521<252.135 437.69 252.135 483.396 206.464 437.69> 670.823 20G<287.569 402.291 402.291 402.291>
LayerCount: 2
Fore
SplineSet
4.2001953125 -0.0771484375 m 1
 287.569335938 690.823242188 l 1
 402.291015625 690.823242188 l 1
 685.66015625 -0.0771484375 l 1
 532.396484375 -0.0771484375 l 1
 483.396484375 131.243164062 l 1
 206.463867188 131.243164062 l 1
 157.463867188 -0.0771484375 l 1
 4.2001953125 -0.0771484375 l 1
252.134765625 252.763671875 m 1
 437.690429688 252.763671875 l 1
 344.47265625 499.87890625 l 1
 252.134765625 252.763671875 l 1
EndSplineSet
EndChar

StartChar: B
Encoding: 66 66 37
Width: 655
GlyphClass: 2
Flags: MW
HStem: -0.0771484 126.42<204.791 374.821> 288.042 126.42<204.791 363.062 363.062 371.882 204.791 363.062> 564.402 126.421<204.791 362.081 362.081 367.961 204.791 204.791>
VStem: 61.7109 143.08<126.343 288.042 414.462 564.402> 462.531 143.08<472.332 505.378> 473.312 142.1<188.935 227.176>
LayerCount: 2
Fore
SplineSet
519.661132812 355.571289062 m 1xf8
 549.401367188 341.284179688 615.411132812 301.723632812 615.411132812 201.3125 c 0xf4
 615.411132812 137.620117188 594.569335938 87.3291015625 552.505859375 52.1064453125 c 0
 510.524414062 16.951171875 450.994140625 -0.0771484375 374.821289062 -0.0771484375 c 2
 61.7109375 -0.0771484375 l 1
 61.7109375 690.823242188 l 1
 362.081054688 690.823242188 l 2
 439.495117188 690.823242188 499.755859375 674.502929688 542.08203125 640.709960938 c 0
 584.538085938 606.813476562 605.611328125 557.758789062 605.611328125 495.313476562 c 0
 605.611328125 434.720703125 573.580078125 384.751953125 519.661132812 355.571289062 c 1xf8
462.53125 487.47265625 m 0xf8
 462.53125 523.283203125 449.041015625 564.40234375 367.9609375 564.40234375 c 2
 204.791015625 564.40234375 l 1
 204.791015625 414.461914062 l 1
 363.061523438 414.461914062 l 2
 451.87890625 414.461914062 462.53125 457.190429688 462.53125 487.47265625 c 0xf8
376.78125 126.342773438 m 2
 456.508789062 126.342773438 473.311523438 167.736328125 473.311523438 210.1328125 c 0xf4
 473.311523438 244.219726562 460.802734375 288.041992188 371.881835938 288.041992188 c 2
 204.791015625 288.041992188 l 1
 204.791015625 126.342773438 l 1
 376.78125 126.342773438 l 2
EndSplineSet
EndChar

StartChar: C
Encoding: 67 67 38
Width: 673
GlyphClass: 2
Flags: MW
HStem: -10.8564 130.34<307.192 377.204 302.093 395.668> 576.163 127.4<308.171 376.203>
VStem: 57.791 144.061<293.433 295.394 295.394 392.413 237.331 399.272 237.331 449.201> 490.951 142.101<231.693 243.943 193.622 243.943>
LayerCount: 2
Fore
SplineSet
201.8515625 295.393554688 m 2
 201.8515625 179.268554688 248.963867188 119.483398438 355.221679688 119.483398438 c 0
 399.186523438 119.483398438 432.4140625 129.831054688 455.834960938 149.6015625 c 0
 479.20703125 169.331054688 490.951171875 196.177734375 490.951171875 231.693359375 c 2
 490.951171875 243.943359375 l 1
 633.051757812 243.943359375 l 1
 633.051757812 231.693359375 l 2
 633.051757812 155.549804688 607.768554688 95.3125 556.924804688 52.603515625 c 0
 506.266601562 10.05078125 438.07421875 -10.8564453125 353.26171875 -10.8564453125 c 0
 261.123046875 -10.8564453125 188.262695312 14.421875 135.9453125 65.7265625 c 0
 83.4482421875 117.20703125 57.791015625 193.584960938 57.791015625 293.432617188 c 2
 57.791015625 399.272460938 l 2
 57.791015625 499.129882812 83.6220703125 575.51953125 136.454101562 626.997070312 c 0
 189.08984375 678.284179688 262.100585938 703.563476562 354.241210938 703.563476562 c 0
 438.405273438 703.563476562 506.41015625 682.81640625 557.374023438 640.626953125 c 0
 608.517578125 598.2890625 634.03125 539.19140625 634.03125 464.93359375 c 2
 634.03125 449.743164062 l 1
 490.951171875 449.743164062 l 1
 490.951171875 461.013671875 l 2
 490.951171875 497.19140625 479.030273438 524.719726562 455.295898438 545.106445312 c 0
 431.526367188 565.5234375 398.1640625 576.163085938 354.241210938 576.163085938 c 0
 258.588867188 576.163085938 201.8515625 525.948242188 201.8515625 392.413085938 c 2
 201.8515625 295.393554688 l 2
EndSplineSet
EndChar

StartChar: D
Encoding: 68 68 39
Width: 663
GlyphClass: 2
Flags: MW
HStem: -0.0771484 126.422<204.789 327.78> 564.404 126.419<204.789 331.699 204.789 204.789>
VStem: 61.7109 143.078<126.345 564.404 126.345 690.823 126.345 690.823> 480.17 143.079<304.214 380.654 380.654 387.515 253.337 443.839>
LayerCount: 2
Fore
SplineSet
623.249023438 387.514648438 m 2
 623.249023438 304.213867188 l 2
 623.249023438 202.4609375 597.802734375 125.559570312 545.548828125 75.0009765625 c 0
 493.530273438 24.6708984375 420.525390625 -0.0771484375 327.780273438 -0.0771484375 c 2
 61.7109375 -0.0771484375 l 1
 61.7109375 690.823242188 l 1
 332.6796875 690.823242188 l 2
 424.127929688 690.823242188 496.012695312 666.229492188 547.052734375 616.203125 c 0
 598.321289062 565.952148438 623.249023438 489.237304688 623.249023438 387.514648438 c 2
480.169921875 380.654296875 m 2
 480.169921875 507.0234375 435.100585938 564.404296875 331.69921875 564.404296875 c 2
 204.7890625 564.404296875 l 1
 204.7890625 126.344726562 l 1
 331.69921875 126.344726562 l 2
 432.859375 126.344726562 480.169921875 180.194335938 480.169921875 304.213867188 c 2
 480.169921875 380.654296875 l 2
EndSplineSet
EndChar

StartChar: E
Encoding: 69 69 40
Width: 589
GlyphClass: 2
Flags: MW
HStem: -0.0771484 126.421<204.79 559.551 204.79 559.551> 285.104 126.42<204.79 509.57 204.79 509.57> 564.403 126.42<204.79 559.551 204.79 204.79>
VStem: 61.7109 143.079<126.344 126.344 126.344 285.104 411.523 564.403>
LayerCount: 2
Fore
SplineSet
204.790039062 126.34375 m 1
 559.55078125 126.34375 l 1
 559.55078125 -0.0771484375 l 1
 61.7109375 -0.0771484375 l 1
 61.7109375 690.823242188 l 1
 559.55078125 690.823242188 l 1
 559.55078125 564.403320312 l 1
 204.790039062 564.403320312 l 1
 204.790039062 411.5234375 l 1
 509.5703125 411.5234375 l 1
 509.5703125 285.103515625 l 1
 204.790039062 285.103515625 l 1
 204.790039062 126.34375 l 1
EndSplineSet
EndChar

StartChar: F
Encoding: 70 70 41
Width: 584
GlyphClass: 2
Flags: MW
HStem: -0.0771484 21G<61.7109 204.79 61.7109 61.7109> 279.224 126.42<204.79 511.53 204.79 511.53> 564.403 126.42<204.79 559.551 204.79 204.79>
VStem: 61.7109 143.079<-0.0771484 279.224 -0.0771484 405.644 405.644 564.403>
LayerCount: 2
Fore
SplineSet
204.790039062 279.223632812 m 1
 204.790039062 -0.0771484375 l 1
 61.7109375 -0.0771484375 l 1
 61.7109375 690.823242188 l 1
 559.55078125 690.823242188 l 1
 559.55078125 564.403320312 l 1
 204.790039062 564.403320312 l 1
 204.790039062 405.643554688 l 1
 511.530273438 405.643554688 l 1
 511.530273438 279.223632812 l 1
 204.790039062 279.223632812 l 1
EndSplineSet
EndChar

StartChar: G
Encoding: 71 71 42
Width: 673
GlyphClass: 2
Flags: MW
HStem: -10.8564 130.339<307.511 396.343> 256.683 120.54<343.95 491.931 343.95 634.03> 576.162 127.4<308.17 375.159 308.17 376.202>
VStem: 57.79 144.061<293.432 296.372 296.372 393.393 236.882 399.271 236.882 449.2> 491.931 142.1<239.532 256.683 256.683 256.683>
LayerCount: 2
Fore
SplineSet
355.220703125 119.482421875 m 0
 445.360351562 119.482421875 491.930664062 155.600585938 491.930664062 239.532226562 c 2
 491.930664062 256.682617188 l 1
 343.950195312 256.682617188 l 1
 343.950195312 377.22265625 l 1
 634.030273438 377.22265625 l 1
 634.030273438 258.15234375 l 2
 634.030273438 169.291015625 609.23046875 101.40625 558.561523438 56.1787109375 c 0
 508.208984375 11.234375 439.42578125 -10.8564453125 353.260742188 -10.8564453125 c 0
 261.760742188 -10.8564453125 189.078125 14.43359375 136.453125 65.7099609375 c 0
 83.62109375 117.186523438 57.7900390625 193.57421875 57.7900390625 293.431640625 c 2
 57.7900390625 399.271484375 l 2
 57.7900390625 499.12890625 83.62109375 575.518554688 136.453125 626.99609375 c 0
 189.088867188 678.283203125 262.100585938 703.5625 354.240234375 703.5625 c 0
 396.078125 703.5625 530.782226562 699.22265625 599.03515625 594.375 c 0
 622.427734375 558.4375 634.030273438 516.107421875 634.030273438 467.872070312 c 2
 634.030273438 452.682617188 l 1
 490.950195312 452.682617188 l 1
 490.950195312 463.952148438 l 2
 490.950195312 498.048828125 479.126953125 524.634765625 455.294921875 545.10546875 c 0
 431.525390625 565.522460938 398.163085938 576.162109375 354.240234375 576.162109375 c 0
 253.404296875 576.162109375 201.850585938 520.918945312 201.850585938 393.392578125 c 2
 201.850585938 296.372070312 l 2
 201.850585938 177.392578125 248.107421875 119.482421875 355.220703125 119.482421875 c 0
EndSplineSet
EndChar

StartChar: H
Encoding: 72 72 43
Width: 671
GlyphClass: 2
Flags: MW
HStem: -0.0771484 21G<61.7109 204.79 61.7109 61.7109 475.271 618.351 475.271 475.271> 286.083 126.42<204.79 475.271 204.79 475.271> 670.823 20G<61.7109 204.79 204.79 204.79 475.271 618.351 618.351 618.351>
VStem: 61.7109 143.079<-0.0771484 286.083 -0.0771484 412.503 412.503 690.823> 475.271 143.08<-0.0771484 286.083 286.083 286.083 412.503 690.823 -0.0771484 690.823>
LayerCount: 2
Fore
SplineSet
618.350585938 690.823242188 m 1
 618.350585938 -0.0771484375 l 1
 475.270507812 -0.0771484375 l 1
 475.270507812 286.083007812 l 1
 204.790039062 286.083007812 l 1
 204.790039062 -0.0771484375 l 1
 61.7109375 -0.0771484375 l 1
 61.7109375 690.823242188 l 1
 204.790039062 690.823242188 l 1
 204.790039062 412.502929688 l 1
 475.270507812 412.502929688 l 1
 475.270507812 690.823242188 l 1
 618.350585938 690.823242188 l 1
EndSplineSet
EndChar

StartChar: I
Encoding: 73 73 44
Width: 268
GlyphClass: 2
Flags: MW
HStem: -0.0771484 21G<67.5908 210.671 67.5908 67.5908> 670.823 20G<67.5908 210.671 210.671 210.671>
VStem: 67.5908 143.08<-0.0771484 690.823 -0.0771484 690.823>
LayerCount: 2
Fore
SplineSet
67.5908203125 690.823242188 m 1
 210.670898438 690.823242188 l 1
 210.670898438 -0.0771484375 l 1
 67.5908203125 -0.0771484375 l 1
 67.5908203125 690.823242188 l 1
EndSplineSet
EndChar

StartChar: J
Encoding: 74 74 45
Width: 368
GlyphClass: 2
Flags: MW
HStem: -0.0771484 127.4<27.4102 94.54 94.54 109.23 27.4102 127.86 27.4102 94.54> 670.823 20G<165.591 309.65 309.65 309.65>
VStem: 165.591 144.06<198.373 690.823>
LayerCount: 2
Fore
SplineSet
309.650390625 176.813476562 m 2
 309.650390625 117.528320312 294.500976562 -0.0771484375 127.860351562 -0.0771484375 c 2
 27.41015625 -0.0771484375 l 1
 27.41015625 127.323242188 l 1
 94.5400390625 127.323242188 l 2
 123.920898438 127.323242188 142.244140625 133.219726562 151.008789062 142.243164062 c 0
 159.89453125 151.389648438 165.590820312 169.677734375 165.590820312 198.373046875 c 2
 165.590820312 690.823242188 l 1
 309.650390625 690.823242188 l 1
 309.650390625 176.813476562 l 2
EndSplineSet
EndChar

StartChar: K
Encoding: 75 75 46
Width: 678
GlyphClass: 2
Flags: MW
HStem: -0.0771484 21G<61.7109 204.79 61.7109 61.7109 509.984 683.599 509.984 509.984> 670.823 20G<61.7109 204.79 204.79 204.79 482.233 667.003 667.003 667.003>
VStem: 61.7109 143.079<-0.0771484 192.549 374.689 690.823>
LayerCount: 2
Fore
SplineSet
509.984375 -0.0771484375 m 1
 311.063476562 306.99609375 l 1
 204.790039062 192.548828125 l 1
 204.790039062 -0.0771484375 l 1
 61.7109375 -0.0771484375 l 1
 61.7109375 690.823242188 l 1
 204.790039062 690.823242188 l 1
 204.790039062 374.689453125 l 1
 482.233398438 690.823242188 l 1
 667.002929688 690.823242188 l 1
 407.681640625 410.3125 l 1
 683.598632812 -0.0771484375 l 1
 509.984375 -0.0771484375 l 1
EndSplineSet
EndChar

StartChar: L
Encoding: 76 76 47
Width: 572
GlyphClass: 2
Flags: MW
HStem: -0.0771484 126.421<204.79 553.671 204.79 553.671> 670.823 20G<61.7109 204.79 204.79 204.79>
VStem: 61.7109 143.079<126.344 690.823 126.344 690.823 126.344 690.823>
LayerCount: 2
Fore
SplineSet
61.7109375 690.823242188 m 1
 204.790039062 690.823242188 l 1
 204.790039062 126.34375 l 1
 553.670898438 126.34375 l 1
 553.670898438 -0.0771484375 l 1
 61.7109375 -0.0771484375 l 1
 61.7109375 690.823242188 l 1
EndSplineSet
EndChar

StartChar: M
Encoding: 77 77 48
Width: 808
GlyphClass: 2
Flags: MW
HStem: -0.0771484 21G<61.7109 204.79 61.7109 61.7109 610.511 753.591 610.511 610.511> 670.823 20G<61.7109 201.799 201.799 201.799 613.473 753.591 753.591 753.591>
VStem: 61.7109 143.079<-0.0771484 410.316 -0.0771484 690.823> 610.511 143.08<-0.0771484 407.185 407.185 407.185>
LayerCount: 2
Fore
SplineSet
753.590820312 690.823242188 m 1
 753.590820312 -0.0771484375 l 1
 610.510742188 -0.0771484375 l 1
 610.510742188 407.184570312 l 1
 456.564453125 130.263671875 l 1
 361.693359375 130.263671875 l 1
 204.790039062 410.31640625 l 1
 204.790039062 -0.0771484375 l 1
 61.7109375 -0.0771484375 l 1
 61.7109375 690.823242188 l 1
 201.798828125 690.823242188 l 1
 409.075195312 311.776367188 l 1
 613.47265625 690.823242188 l 1
 753.590820312 690.823242188 l 1
EndSplineSet
EndChar

StartChar: N
Encoding: 78 78 49
Width: 699
GlyphClass: 2
Flags: MW
HStem: -0.0771484 21G<61.7109 204.79 61.7109 61.7109 506.229 645.79 506.229 506.229> 670.823 20G<61.7109 201.277 201.277 201.277 502.711 645.79 645.79 645.79>
VStem: 61.7109 143.079<-0.0771484 431.764 -0.0771484 690.823> 502.711 143.079<258.045 690.823 -0.0771484 690.823>
LayerCount: 2
Fore
SplineSet
645.790039062 690.823242188 m 1
 645.790039062 -0.0771484375 l 1
 506.228515625 -0.0771484375 l 1
 204.790039062 431.763671875 l 1
 204.790039062 -0.0771484375 l 1
 61.7109375 -0.0771484375 l 1
 61.7109375 690.823242188 l 1
 201.27734375 690.823242188 l 1
 502.7109375 258.044921875 l 1
 502.7109375 690.823242188 l 1
 645.790039062 690.823242188 l 1
EndSplineSet
EndChar

StartChar: O
Encoding: 79 79 50
Width: 673
GlyphClass: 2
Flags: MW
HStem: -10.8564 130.339<303.254 382.517 303.254 387.937> 576.162 127.402<304.758 381.286>
VStem: 57.7891 144.06<293.434 295.393 295.393 392.412 229.334 399.273 229.334 449.188> 490.949 143.081<295.393 392.412 392.412 399.273 243.829 470>
LayerCount: 2
Fore
SplineSet
57.7890625 293.43359375 m 2
 57.7890625 399.2734375 l 2
 57.7890625 499.1015625 83.1025390625 575.458984375 134.930664062 626.947265625 c 0
 186.560546875 678.241210938 257.802734375 703.564453125 347.379882812 703.564453125 c 0
 435.676757812 703.564453125 506.109375 678.217773438 557.396484375 626.930664062 c 0
 608.889648438 575.4375 634.030273438 499.092773438 634.030273438 399.2734375 c 2
 634.030273438 293.43359375 l 2
 634.030273438 194.224609375 608.359375 118.0234375 555.892578125 66.2333984375 c 0
 503.637695312 14.65234375 432.412109375 -10.8564453125 343.4609375 -10.8564453125 c 0
 254.528320312 -10.8564453125 184.068359375 14.4775390625 133.409179688 65.8115234375 c 0
 82.587890625 117.311523438 57.7890625 193.6328125 57.7890625 293.43359375 c 2
347.379882812 119.482421875 m 0
 417.653320312 119.482421875 490.94921875 149.073242188 490.94921875 295.392578125 c 2
 490.94921875 392.412109375 l 2
 490.94921875 547.588867188 415.192382812 576.162109375 347.379882812 576.162109375 c 0
 262.135742188 576.162109375 201.848632812 533.614257812 201.848632812 392.412109375 c 2
 201.848632812 295.392578125 l 2
 201.848632812 163.276367188 259.12890625 119.482421875 347.379882812 119.482421875 c 0
EndSplineSet
EndChar

StartChar: P
Encoding: 80 80 51
Width: 629
GlyphClass: 2
Flags: MW
HStem: -0.0771484 21G<61.7109 204.79 61.7109 61.7109> 256.684 127.399<204.79 356.2 204.79 366> 564.403 126.42<204.79 361.101 361.101 366 204.79 204.79>
VStem: 61.7109 143.079<-0.0771484 256.684 -0.0771484 384.083 384.083 564.403> 467.431 143.08<450.068 483.934>
LayerCount: 2
Fore
SplineSet
610.510742188 471.79296875 m 0
 610.510742188 404.803710938 588.34375 351.456054688 543.7421875 313.325195312 c 0
 499.169921875 275.217773438 436.3359375 256.68359375 356.200195312 256.68359375 c 2
 204.790039062 256.68359375 l 1
 204.790039062 -0.0771484375 l 1
 61.7109375 -0.0771484375 l 1
 61.7109375 690.823242188 l 1
 361.100585938 690.823242188 l 2
 438.037109375 690.823242188 499.236328125 672.232421875 543.743164062 634.181640625 c 0
 588.41796875 595.986328125 610.510742188 541.30859375 610.510742188 471.79296875 c 0
366 384.083007812 m 2
 449.211914062 384.083007812 467.430664062 427.362304688 467.430664062 472.7734375 c 0
 467.430664062 495.094726562 465.688476562 564.403320312 366 564.403320312 c 2
 204.790039062 564.403320312 l 1
 204.790039062 384.083007812 l 1
 366 384.083007812 l 2
EndSplineSet
EndChar

StartChar: Q
Encoding: 81 81 52
Width: 673
GlyphClass: 2
Flags: MW
HStem: -153.642 21G<505.182 505.182> -10.8574 130.34<303.255 357.671> 576.162 127.402<304.759 381.287>
VStem: 57.7891 144.061<293.434 295.393 295.393 392.412 229.334 399.273 229.334 449.188> 490.95 143.08<295.393 392.412 392.412 399.273 239.202 470>
LayerCount: 2
Fore
SplineSet
57.7890625 293.43359375 m 2
 57.7890625 399.2734375 l 2
 57.7890625 499.1015625 83.1025390625 575.458984375 134.930664062 626.947265625 c 0
 186.560546875 678.241210938 257.802734375 703.564453125 347.379882812 703.564453125 c 0
 435.676757812 703.564453125 506.109375 678.217773438 557.396484375 626.930664062 c 0
 608.889648438 575.4375 634.030273438 499.092773438 634.030273438 399.2734375 c 2
 634.030273438 293.43359375 l 2
 634.030273438 184.969726562 602.37890625 103.333007812 538.079101562 50.4658203125 c 1
 616.056640625 -92.66015625 l 1
 505.181640625 -153.641601562 l 1
 422.956054688 -3.05859375 l 1
 398.384765625 -8.271484375 371.8828125 -10.857421875 343.459960938 -10.857421875 c 0
 254.52734375 -10.857421875 184.067382812 14.4765625 133.409179688 65.810546875 c 0
 82.5869140625 117.311523438 57.7890625 193.6328125 57.7890625 293.43359375 c 2
201.849609375 295.392578125 m 2
 201.849609375 163.276367188 259.129882812 119.482421875 347.380859375 119.482421875 c 0
 417.654296875 119.482421875 490.950195312 149.073242188 490.950195312 295.392578125 c 2
 490.950195312 392.412109375 l 2
 490.950195312 547.588867188 415.193359375 576.162109375 347.380859375 576.162109375 c 0
 262.13671875 576.162109375 201.849609375 533.614257812 201.849609375 392.412109375 c 2
 201.849609375 295.392578125 l 2
EndSplineSet
EndChar

StartChar: R
Encoding: 82 82 53
Width: 664
GlyphClass: 2
Flags: MW
HStem: -0.0771484 21G<475.361 645.495 475.361 475.361> 265.502 124.46<204.79 225.222> 564.402 126.42<204.79 363.061 363.061 366.98 204.79 204.79>
VStem: 61.7109 143.079<-0.078125 265.502 -0.078125 389.962 389.962 564.402> 467.431 142.1<455.28 492.618>
LayerCount: 2
Fore
SplineSet
609.530273438 477.671875 m 0
 609.530273438 428.301757812 598.651367188 327.98046875 475.95703125 284.470703125 c 1
 645.495117188 -0.0771484375 l 1
 475.361328125 -0.0771484375 l 1
 327.381835938 265.502929688 l 1
 286.517578125 265.502929688 245.654296875 265.501953125 204.790039062 265.501953125 c 1
 204.790039062 -0.078125 l 1
 61.7109375 -0.078125 l 1
 61.7109375 690.822265625 l 1
 363.060546875 690.822265625 l 2
 438.03125 690.822265625 498.190429688 672.888671875 542.661132812 636.225585938 c 0
 587.395507812 599.346679688 609.530273438 545.916992188 609.530273438 477.671875 c 0
366.98046875 389.961914062 m 2
 449.516601562 389.961914062 467.430664062 432.888671875 467.430664062 477.671875 c 0
 467.430664062 507.564453125 458.575195312 528.584960938 441.678710938 542.567382812 c 0
 424.469726562 556.810546875 399.864257812 564.40234375 366.98046875 564.40234375 c 2
 204.790039062 564.40234375 l 1
 204.790039062 389.961914062 l 1
 366.98046875 389.961914062 l 2
EndSplineSet
EndChar

StartChar: S
Encoding: 83 83 54
Width: 610
GlyphClass: 2
Flags: MW
HStem: -5.95703 124.463<263.566 347.889> 578.123 122.501<287.816 349.876 271.047 364.959>
VStem: 47.9893 139.161<481.134 522.059> 442.93 141.121<177.203 223.82>
LayerCount: 2
Fore
SplineSet
308.180664062 578.123046875 m 0
 267.452148438 578.123046875 187.150390625 571.220703125 187.150390625 499.233398438 c 0
 187.150390625 463.03515625 206.475585938 432.010742188 300.333984375 420.279296875 c 2
 381.674804688 409.499023438 l 2
 483.298828125 396.017578125 584.05078125 348.3046875 584.05078125 212.09375 c 0
 584.05078125 142.311523438 558.90234375 87.638671875 508.583984375 49.8994140625 c 0
 458.544921875 12.3701171875 390.538085938 -5.95703125 305.240234375 -5.95703125 c 0
 221.891601562 -5.95703125 156.38671875 12.3720703125 109.5390625 50.0537109375 c 0
 62.658203125 87.76171875 36.6923828125 142.405273438 31.3505859375 212.510742188 c 2
 30.748046875 220.42578125 l 1
 167.654296875 220.42578125 l 1
 173.134765625 177.361328125 185.154296875 118.505859375 312.099609375 118.505859375 c 0
 403.109375 118.505859375 442.9296875 147.330078125 442.9296875 202.295898438 c 0
 442.9296875 245.34375 420.44921875 274.479492188 331.772460938 284.180664062 c 2
 260.228515625 293.000976562 l 2
 121.013671875 310.237304688 47.9892578125 375.9453125 47.9892578125 489.434570312 c 0
 47.9892578125 554.682617188 71.837890625 606.954101562 119.37890625 644.646484375 c 0
 166.794921875 682.240234375 230.973632812 700.624023438 311.120117188 700.624023438 c 0
 388.631835938 700.624023438 450.215820312 683.076171875 495.057617188 647.068359375 c 0
 539.966796875 611.004882812 564.959960938 558.827148438 570.306640625 491.987304688 c 2
 570.942382812 484.043945312 l 1
 432.71484375 484.043945312 l 1
 429.556640625 523.498046875 421.73828125 578.123046875 308.180664062 578.123046875 c 0
EndSplineSet
EndChar

StartChar: T
Encoding: 84 84 55
Width: 560
GlyphClass: 2
Flags: MW
HStem: -0.0771484 21G<212.631 355.711 212.631 212.631> 564.403 126.42<9.77051 212.631 9.77051 558.57 355.711 355.711 355.711 558.57>
VStem: 212.631 143.08<-0.0771484 564.403 -0.0771484 564.403>
LayerCount: 2
Fore
SplineSet
212.630859375 564.403320312 m 1
 9.7705078125 564.403320312 l 1
 9.7705078125 690.823242188 l 1
 558.5703125 690.823242188 l 1
 558.5703125 564.403320312 l 1
 355.7109375 564.403320312 l 1
 355.7109375 -0.0771484375 l 1
 212.630859375 -0.0771484375 l 1
 212.630859375 564.403320312 l 1
EndSplineSet
EndChar

StartChar: U
Encoding: 85 85 56
Width: 676
GlyphClass: 2
Flags: MW
HStem: -5.95703 126.418<284.392 360.318 284.392 426.418> 670.822 20G<61.7109 204.791 204.791 204.791 480.171 623.25 623.25 623.25>
VStem: 61.7109 143.08<250.312 254.232 254.232 690.822> 480.171 143.079<254.232 690.822>
LayerCount: 2
Fore
SplineSet
341.5 -5.95703125 m 0
 173.609375 -5.95703125 61.7109375 93.01953125 61.7109375 250.3125 c 2
 61.7109375 690.822265625 l 1
 204.791015625 690.822265625 l 1
 204.791015625 254.232421875 l 2
 204.791015625 195.2890625 227.284179688 120.4609375 341.5 120.4609375 c 0
 379.13671875 120.4609375 480.170898438 128.11328125 480.170898438 254.232421875 c 2
 480.170898438 690.822265625 l 1
 623.25 690.822265625 l 1
 623.25 250.3125 l 2
 623.25 92.771484375 511.336914062 -5.95703125 341.5 -5.95703125 c 0
EndSplineSet
EndChar

StartChar: V
Encoding: 86 86 57
Width: 624
GlyphClass: 2
Flags: MW
HStem: -0.0771484 21G<258.952 372.095 258.952 258.952> 670.823 20G<4.62109 157.646 157.646 157.646 475.385 628.429 628.429 628.429>
LayerCount: 2
Fore
SplineSet
4.62109375 690.823242188 m 1
 157.646484375 690.823242188 l 1
 316.041015625 219.431640625 l 1
 475.384765625 690.823242188 l 1
 628.428710938 690.823242188 l 1
 372.094726562 -0.0771484375 l 1
 258.952148438 -0.0771484375 l 1
 4.62109375 690.823242188 l 1
EndSplineSet
EndChar

StartChar: W
Encoding: 87 87 58
Width: 933
GlyphClass: 2
Flags: MW
HStem: -0.0771484 21G<204.649 332.373 204.649 204.649 612.277 741.038 612.277 612.277> 670.823 20G<5.38965 152.169 152.169 152.169 387.643 557.867 557.867 557.867 792.349 934.29 934.29 934.29>
LayerCount: 2
Fore
SplineSet
612.27734375 -0.0771484375 m 1
 472.796875 500.357421875 l 1
 332.373046875 -0.0771484375 l 1
 204.649414062 -0.0771484375 l 1
 5.3896484375 690.823242188 l 1
 152.168945312 690.823242188 l 1
 274.577148438 218.94140625 l 1
 387.642578125 690.823242188 l 1
 557.8671875 690.823242188 l 1
 682.114257812 219.057617188 l 1
 792.348632812 690.823242188 l 1
 934.290039062 690.823242188 l 1
 741.038085938 -0.0771484375 l 1
 612.27734375 -0.0771484375 l 1
EndSplineSet
EndChar

StartChar: X
Encoding: 88 88 59
Width: 666
GlyphClass: 2
Flags: MW
HStem: -0.0771484 21G<1.0957 1.0957 1.0957 174.02 498.292 498.292 498.292 674.027> 670.823 20G<18.7334 194.499 194.499 194.499 476.595 649.574 649.574 649.574>
LayerCount: 2
Fore
SplineSet
1.095703125 -0.0771484375 m 1
 250.227539062 358.112304688 l 1
 18.7333984375 690.823242188 l 1
 194.499023438 690.823242188 l 1
 340.311523438 473.533203125 l 1
 476.594726562 690.823242188 l 1
 649.57421875 690.823242188 l 1
 421.987304688 363.981445312 l 1
 674.02734375 -0.0771484375 l 1
 498.291992188 -0.0771484375 l 1
 332.807617188 247.670898438 l 1
 174.01953125 -0.0771484375 l 1
 1.095703125 -0.0771484375 l 1
EndSplineSet
EndChar

StartChar: Y
Encoding: 89 89 60
Width: 610
GlyphClass: 2
Flags: MW
HStem: -0.0771484 21G<238.11 381.19 238.11 238.11> 670.823 20G<2.41406 164.64 164.64 164.64 453.681 615.896 615.896 615.896>
VStem: 238.11 143.08<-0.0771484 283.619 283.619 283.619>
LayerCount: 2
Fore
SplineSet
453.680664062 690.823242188 m 1
 615.895507812 690.823242188 l 1
 381.190429688 284.602539062 l 1
 381.190429688 -0.0771484375 l 1
 238.110351562 -0.0771484375 l 1
 238.110351562 283.619140625 l 1
 2.4140625 690.823242188 l 1
 164.639648438 690.823242188 l 1
 309.16015625 416.043945312 l 1
 453.680664062 690.823242188 l 1
EndSplineSet
EndChar

StartChar: Z
Encoding: 90 90 61
Width: 564
GlyphClass: 2
Flags: MW
HStem: -0.0771484 127.4<203.249 541.91 203.249 541.91> 564.403 126.42<40.1504 363.106 40.1504 532.11>
LayerCount: 2
Fore
SplineSet
541.91015625 127.323242188 m 1
 541.91015625 -0.0771484375 l 1
 33.2900390625 -0.0771484375 l 1
 33.2900390625 122.412109375 l 1
 363.106445312 564.403320312 l 1
 40.150390625 564.403320312 l 1
 40.150390625 690.823242188 l 1
 532.110351562 690.823242188 l 1
 532.110351562 569.3203125 l 1
 203.249023438 127.323242188 l 1
 541.91015625 127.323242188 l 1
EndSplineSet
EndChar

StartChar: bracketleft
Encoding: 91 91 62
Width: 347
GlyphClass: 2
Flags: MW
HStem: -82.3965 127.399<197.931 308.671 197.931 308.671> 613.403 127.4<197.931 308.671 197.931 197.931>
VStem: 61.7109 136.22<45.0029 613.403 45.0029 740.804 45.0029 740.804> 61.7109 246.96<-82.3965 45.0029 613.403 740.804>
LayerCount: 2
Fore
SplineSet
61.7109375 740.803710938 m 1xd0
 308.670898438 740.803710938 l 1
 308.670898438 613.403320312 l 1xd0
 197.930664062 613.403320312 l 1
 197.930664062 45.0029296875 l 1xe0
 308.670898438 45.0029296875 l 1
 308.670898438 -82.396484375 l 1
 61.7109375 -82.396484375 l 1
 61.7109375 740.803710938 l 1xd0
EndSplineSet
Substitution2: "'rtla' Right to Left Alternates lookup 0 subtable" bracketright
EndChar

StartChar: backslash
Encoding: 92 92 63
Width: 449
GlyphClass: 2
Flags: MW
HStem: -9.87695 21G<296.127 413.646 296.127 296.127> 675.724 20G<45.9141 163.434 163.434 163.434>
LayerCount: 2
Fore
SplineSet
45.9140625 695.723632812 m 1
 163.43359375 695.723632812 l 1
 413.646484375 -9.876953125 l 1
 296.126953125 -9.876953125 l 1
 45.9140625 695.723632812 l 1
EndSplineSet
EndChar

StartChar: bracketright
Encoding: 93 93 64
Width: 348
GlyphClass: 2
Flags: MW
HStem: -82.3965 127.399<48.9707 159.711 48.9707 295.931 48.9707 159.711> 612.423 126.421<48.9707 159.711 48.9707 295.931>
VStem: 48.9707 246.96<-82.3965 45.0029 45.0029 45.0029 612.423 738.844 -82.3965 738.844> 159.711 136.22<45.0029 612.423 612.423 612.423>
LayerCount: 2
Fore
SplineSet
159.7109375 612.422851562 m 1xd0
 48.970703125 612.422851562 l 1
 48.970703125 738.84375 l 1
 295.930664062 738.84375 l 1
 295.930664062 -82.396484375 l 1
 48.970703125 -82.396484375 l 1
 48.970703125 45.0029296875 l 1xe0
 159.7109375 45.0029296875 l 1
 159.7109375 612.422851562 l 1xd0
EndSplineSet
Substitution2: "'rtla' Right to Left Alternates lookup 0 subtable" bracketleft
EndChar

StartChar: asciicircum
Encoding: 94 94 65
Width: 532
GlyphClass: 2
Flags: MW
HStem: 675.724 20G<214.027 325.894 325.894 325.894>
LayerCount: 2
Fore
SplineSet
214.02734375 695.723632812 m 1
 325.893554688 695.723632812 l 1
 498.387695312 265.502929688 l 1
 381.563476562 265.502929688 l 1
 269.9609375 550.606445312 l 1
 158.357421875 265.502929688 l 1
 41.533203125 265.502929688 l 1
 214.02734375 695.723632812 l 1
EndSplineSet
EndChar

StartChar: underscore
Encoding: 95 95 66
Width: 565
GlyphClass: 2
Flags: MW
HStem: -118.656 94.0791<3.89062 570.33 3.89062 570.33>
LayerCount: 2
Fore
SplineSet
3.890625 -24.5771484375 m 1
 570.330078125 -24.5771484375 l 1
 570.330078125 -118.65625 l 1
 3.890625 -118.65625 l 1
 3.890625 -24.5771484375 l 1
EndSplineSet
EndChar

StartChar: grave
Encoding: 96 96 67
Width: 504
GlyphClass: 2
Flags: MW
HStem: 576.163 145.04<35.3848 362.089 35.3848 227.317>
VStem: 35.3848 326.704<576.163 721.203>
LayerCount: 2
Fore
SplineSet
35.384765625 721.203125 m 1
 218.138671875 721.203125 l 1
 362.088867188 576.163085938 l 1
 227.317382812 576.163085938 l 1
 35.384765625 721.203125 l 1
EndSplineSet
EndChar

StartChar: a
Encoding: 97 97 68
Width: 556
GlyphClass: 2
Flags: MW
HStem: -5.95703 111.72<219.554 267.591> 217.482 98.001<243.5 266.039 266.039 372.369> 422.304 107.8<255.965 311.644 242.008 314.306>
VStem: 40.1504 132.299<153.466 174.813 153.466 189.05> 372.369 135.24<193.473 217.482 217.482 217.482>
LayerCount: 2
Fore
SplineSet
372.370117188 338.513671875 m 2
 372.370117188 378.907226562 356.69140625 422.303710938 271.920898438 422.303710938 c 0
 240.009765625 422.303710938 218.07421875 416.365234375 205.45703125 406.271484375 c 0
 192.331054688 395.770507812 186.170898438 383.087890625 186.170898438 366.93359375 c 2
 186.170898438 356.643554688 l 1
 55.830078125 356.643554688 l 1
 55.830078125 366.93359375 l 2
 55.830078125 417.384765625 76.1572265625 457.965820312 116.197265625 487.053710938 c 0
 156.061523438 516.014648438 209.15625 530.103515625 274.860351562 530.103515625 c 0
 348.427734375 530.103515625 406.00390625 513.559570312 446.674804688 479.3828125 c 0
 487.465820312 445.104492188 507.609375 395.622070312 507.609375 332.6328125 c 2
 507.609375 -0.078125 l 1
 375.309570312 -0.078125 l 1
 375.309570312 38.15234375 l 1
 340.227539062 9.689453125 300.501953125 -5.95703125 234.680664062 -5.95703125 c 0
 172.243164062 -5.95703125 123.762695312 7.9501953125 90.22265625 36.9951171875 c 0
 56.689453125 66.03515625 40.150390625 107.294921875 40.150390625 159.172851562 c 0
 40.150390625 218.926757812 67.39453125 315.483398438 243.5 315.483398438 c 2
 372.370117188 315.483398438 l 1
 372.370117188 338.513671875 l 2
261.139648438 105.762695312 m 0
 357.10546875 105.762695312 372.369140625 153.56640625 372.369140625 193.47265625 c 2
 372.369140625 217.482421875 l 1
 266.0390625 217.482421875 l 2
 182.485351562 217.482421875 172.44921875 187.513671875 172.44921875 162.112304688 c 0
 172.44921875 144.8203125 177.967773438 105.762695312 261.139648438 105.762695312 c 0
EndSplineSet
EndChar

StartChar: b
Encoding: 98 98 69
Width: 573
GlyphClass: 2
Flags: MW
HStem: -8.89648 123.479<299.076 327.44 281.863 386.72> -0.0771484 21G<56.8105 190.091 56.8105 56.8105> 410.543 122.5<294.276 321.733> 670.823 20G<56.8105 193.03 193.03 193.03>
VStem: 56.8105 136.22<210.798 228.753 228.753 293.434 478.619 690.823> 397.851 136.221<238.554 291.474 291.474 297.354 156.766 340.792>
LayerCount: 2
Fore
SplineSet
193.030273438 478.619140625 m 1x7c
 217.770507812 503.950195312 260.770507812 533.04296875 327.78125 533.04296875 c 0
 390.174804688 533.04296875 440.788085938 512.713867188 478.240234375 471.857421875 c 0
 515.81640625 430.865234375 534.071289062 372.319335938 534.071289062 297.353515625 c 2
 534.071289062 233.653320312 l 2
 534.071289062 79.8779296875 446.638671875 -8.896484375 326.80078125 -8.896484375 c 0xbc
 271.350585938 -8.896484375 225.435546875 7.6962890625 190.090820312 40.9716796875 c 1
 190.090820312 -0.0771484375 l 1
 56.810546875 -0.0771484375 l 1
 56.810546875 690.823242188 l 1
 193.030273438 690.823242188 l 1
 193.030273438 478.619140625 l 1x7c
298.380859375 114.583007812 m 0
 356.499023438 114.583007812 397.850585938 146.83203125 397.850585938 238.553710938 c 2
 397.850585938 291.473632812 l 2
 397.850585938 390.109375 347.044921875 410.54296875 296.420898438 410.54296875 c 0
 263.379882812 410.54296875 238.586914062 400.296875 220.556640625 380.163085938 c 0
 202.49609375 359.99609375 193.030273438 331.440429688 193.030273438 293.43359375 c 2
 193.030273438 228.752929688 l 2
 193.030273438 192.84375 202.70703125 165.3125 221.455078125 145.052734375 c 0
 240.165039062 124.834960938 265.345703125 114.583007812 298.380859375 114.583007812 c 0
EndSplineSet
EndChar

StartChar: c
Encoding: 99 99 70
Width: 562
GlyphClass: 2
Flags: MW
HStem: -8.89648 123.479<251.651 309.609 251.204 324.421> 410.542 122.5<251.658 320.47>
VStem: 48.9707 135.24<232.672 233.652 233.652 291.473 198.476 293.433 198.476 331.973> 388.051 133.279<185.634 196.903 155.682 196.903>
LayerCount: 2
Fore
SplineSet
184.2109375 233.65234375 m 2
 184.2109375 163.299804688 207.946289062 114.583007812 294.4609375 114.583007812 c 0
 324.7578125 114.583007812 347.66015625 121.377929688 363.928710938 134.096679688 c 0
 380.115234375 146.750976562 388.05078125 163.40625 388.05078125 185.633789062 c 2
 388.05078125 196.903320312 l 1
 521.330078125 196.903320312 l 1
 521.330078125 185.633789062 l 2
 521.330078125 125.73046875 500.541992188 77.5986328125 458.91015625 42.7919921875 c 0
 417.340820312 8.0380859375 360.262695312 -8.896484375 288.580078125 -8.896484375 c 0
 214.72265625 -8.896484375 155.770507812 11.4912109375 112.94921875 52.953125 c 0
 69.9697265625 94.568359375 48.970703125 154.952148438 48.970703125 232.671875 c 2
 48.970703125 293.432617188 l 2
 48.970703125 370.513671875 69.9833984375 430.421875 112.971679688 471.703125 c 0
 155.796875 512.829101562 214.735351562 533.041992188 288.580078125 533.041992188 c 0
 360.901367188 533.041992188 418.307617188 516.120117188 459.891601562 481.353515625 c 0
 501.543945312 446.529296875 522.311523438 398.063476562 522.311523438 337.532226562 c 2
 522.311523438 324.302734375 l 1
 389.03125 324.302734375 l 1
 389.03125 335.572265625 l 2
 389.03125 385.307617188 349.418945312 410.541992188 291.521484375 410.541992188 c 0
 206.989257812 410.541992188 184.2109375 359.399414062 184.2109375 291.47265625 c 2
 184.2109375 233.65234375 l 2
EndSplineSet
EndChar

StartChar: d
Encoding: 100 100 71
Width: 573
GlyphClass: 2
Flags: MW
HStem: -8.89648 123.479<236.751 283.639> -0.0771484 21G<391.971 525.25 391.971 391.971> 410.543 122.5<251.711 280.82 197.386 302.509> 670.823 20G<390.011 525.25 525.25 525.25>
VStem: 48.9717 136.22<230.714 235.613 235.613 288.533 217.212 294.414 217.212 375.284> 390.011 135.239<480.668 690.823 -0.0771484 690.823>
LayerCount: 2
Fore
SplineSet
48.9716796875 294.4140625 m 2xbc
 48.9716796875 456.153320312 141.470703125 533.04296875 253.30078125 533.04296875 c 0
 308.338867188 533.04296875 354.248046875 515.551757812 390.010742188 480.66796875 c 1
 390.010742188 690.823242188 l 1
 525.25 690.823242188 l 1
 525.25 -0.0771484375 l 1
 391.970703125 -0.0771484375 l 1x7c
 391.970703125 42.681640625 l 1
 357.995117188 8.2392578125 312.016601562 -8.896484375 255.260742188 -8.896484375 c 0
 193.462890625 -8.896484375 143.014648438 11.8076171875 105.2734375 53.2900390625 c 0
 67.37890625 94.939453125 48.9716796875 154.452148438 48.9716796875 230.713867188 c 2
 48.9716796875 294.4140625 l 2xbc
185.19140625 235.61328125 m 2
 185.19140625 198.811523438 190.801757812 114.583007812 282.701171875 114.583007812 c 0xbc
 316.454101562 114.583007812 342.166015625 124.731445312 361.174804688 144.646484375 c 0
 380.166015625 164.541992188 390.01171875 192.1796875 390.01171875 228.752929688 c 2
 390.01171875 293.43359375 l 2
 390.01171875 331.440429688 380.545898438 359.99609375 362.485351562 380.163085938 c 0
 344.484375 400.262695312 319.375976562 410.54296875 285.641601562 410.54296875 c 0
 217.780273438 410.54296875 185.19140625 368.772460938 185.19140625 288.533203125 c 2
 185.19140625 235.61328125 l 2
EndSplineSet
EndChar

StartChar: e
Encoding: 101 101 72
Width: 573
GlyphClass: 2
Flags: MW
HStem: -8.89648 120.54<259.166 314.722 259.135 330.936> 221.403 98<184.273 220.333 184.83 220.333 184.83 534.07> 414.463 118.58<261.108 308.227>
VStem: 48.9688 135.305<221.403 284.613 221.403 324.13> 397.849 136.222
LayerCount: 2
Fore
SplineSet
184.2734375 221.403320312 m 1
 185.828125 156.202148438 215.969726562 111.643554688 302.299804688 111.643554688 c 0
 327.14453125 111.643554688 388.301757812 116.684570312 395.071289062 165.755859375 c 1
 397.940429688 174.36328125 l 1
 529.169921875 174.36328125 l 1
 529.169921875 160.884765625 l 1
 529.153320312 160.637695312 l 2
 525.750976562 109.612304688 502.78515625 68.03515625 461.014648438 37.130859375 c 0
 419.232421875 6.2197265625 364.471679688 -8.896484375 297.399414062 -8.896484375 c 0
 220.931640625 -8.896484375 159.868164062 12.140625 115.415039062 54.896484375 c 0
 70.7919921875 97.8154296875 48.96875 160.171875 48.96875 240.513671875 c 2
 48.96875 284.61328125 l 2
 48.96875 363.646484375 70.296875 425.455078125 113.86328125 468.6796875 c 0
 157.314453125 511.791015625 216.955078125 533.04296875 291.51953125 533.04296875 c 0
 366.0703125 533.04296875 425.69921875 511.966796875 469.155273438 469.190429688 c 0
 512.715820312 426.310546875 534.0703125 365.30859375 534.0703125 287.553710938 c 2
 534.0703125 221.403320312 l 1
 184.2734375 221.403320312 l 1
291.51953125 414.462890625 m 0
 230.697265625 414.462890625 191.723632812 387.740234375 184.830078125 319.403320312 c 1
 255.836914062 319.403320312 326.842773438 319.40234375 397.848632812 319.40234375 c 1
 397.751953125 351.640625 388.088867188 374.6640625 369.602539062 390.216796875 c 0
 350.657226562 406.154296875 324.934570312 414.462890625 291.51953125 414.462890625 c 0
EndSplineSet
EndChar

StartChar: f
Encoding: 102 102 73
Width: 373
GlyphClass: 2
Flags: MW
HStem: -0.0771484 21G<107.771 243.011 107.771 107.771> 424.264 99.96<39.1709 107.771 39.1709 107.771 243.011 352.771> 593.804 97.0195<288.968 300.341 300.341 352.771>
VStem: 107.771 135.24<-0.0771484 424.264 -0.0771484 424.264 524.224 537.453 537.453 542.354 -0.0771484 561.166>
LayerCount: 2
Fore
SplineSet
107.770507812 537.453125 m 2
 107.770507812 584.877929688 118.697265625 690.823242188 266.040039062 690.823242188 c 2
 352.770507812 690.823242188 l 1
 352.770507812 593.803710938 l 1
 300.340820312 593.803710938 l 2
 277.594726562 593.803710938 262.987304688 589.166015625 255.374023438 582.060546875 c 0
 247.745117188 574.938476562 243.010742188 562.25390625 243.010742188 542.353515625 c 2
 243.010742188 524.223632812 l 1
 352.770507812 524.223632812 l 1
 352.770507812 424.263671875 l 1
 243.010742188 424.263671875 l 1
 243.010742188 -0.0771484375 l 1
 107.770507812 -0.0771484375 l 1
 107.770507812 424.263671875 l 1
 39.1708984375 424.263671875 l 1
 39.1708984375 524.223632812 l 1
 107.770507812 524.223632812 l 1
 107.770507812 537.453125 l 2
EndSplineSet
EndChar

StartChar: g
Encoding: 103 103 74
Width: 573
GlyphClass: 2
Flags: MW
HStem: -160.797 110.74<270.677 316.933> 28.3438 123.479<241.644 283.564> 410.543 122.5<255.645 280.658 223.048 301.221> 504.224 20G<390.99 525.25 525.25 525.25>
VStem: 48.9707 136.22<263.054 267.953 267.953 296.373 241.243 302.253 241.243 338.148> 390.99 134.26<46.4736 54.3135 54.3135 79.6953 79.6953 79.6953 480.288 524.224>
LayerCount: 2
Fore
SplineSet
284.66015625 -50.056640625 m 0xdc
 369.467773438 -50.056640625 390.990234375 -5.572265625 390.990234375 46.4736328125 c 2
 390.990234375 79.6953125 l 1
 357.532226562 45.3955078125 311.868164062 28.34375 255.260742188 28.34375 c 0
 193.49609375 28.34375 143.068359375 48.689453125 105.314453125 89.5048828125 c 0
 67.4130859375 130.479492188 48.970703125 188.711914062 48.970703125 263.053710938 c 2
 48.970703125 302.252929688 l 2
 48.970703125 374.043945312 67.466796875 430.965820312 105.314453125 471.881835938 c 0
 143.034179688 512.66015625 192.794921875 533.04296875 253.30078125 533.04296875 c 0xec
 308.015625 533.04296875 354.224609375 515.396484375 390.990234375 480.288085938 c 1
 390.990234375 524.223632812 l 1
 525.25 524.223632812 l 1
 525.25 54.3134765625 l 2
 525.25 -12.0146484375 503.424804688 -65.15625 459.530273438 -103.606445312 c 0
 415.671875 -142.025390625 355.084960938 -160.796875 278.780273438 -160.796875 c 0
 209.05859375 -160.796875 66.330078125 -143.63671875 60.736328125 -3.8046875 c 2
 60.4306640625 3.84375 l 1
 190.334960938 3.84375 l 1
 193.7734375 -8.9296875 197.862304688 -24.1142578125 220.17578125 -36.802734375 c 0
 235.256835938 -45.37890625 256.693359375 -50.056640625 284.66015625 -50.056640625 c 0xdc
185.190429688 267.953125 m 2
 185.190429688 214.533203125 200.587890625 151.823242188 282.700195312 151.823242188 c 0
 316.509765625 151.823242188 342.264648438 161.698242188 361.252929688 180.98828125 c 0
 380.245117188 200.28125 390.010742188 226.571289062 390.010742188 261.09375 c 2
 390.010742188 301.2734375 l 2
 390.010742188 335.822265625 380.383789062 362.13671875 361.702148438 381.420898438 c 0
 343.024414062 400.700195312 317.78125 410.54296875 284.66015625 410.54296875 c 0
 226.62890625 410.54296875 185.190429688 380.9375 185.190429688 296.373046875 c 2
 185.190429688 267.953125 l 2
EndSplineSet
EndChar

StartChar: h
Encoding: 104 104 75
Width: 574
GlyphClass: 2
Flags: MW
HStem: -0.0771484 21G<56.8105 193.03 56.8105 56.8105 390.011 390.011 390.011 526.23> 407.604 122.5<295.962 320.344> 670.823 20G<56.8105 193.03 193.03 193.03>
VStem: 56.8105 136.22<-0.0771484 295.394 480.729 690.823> 390.011 136.22<-0.0771484 300.293 300.293 324.793 -0.0771484 344.3>
LayerCount: 2
Fore
SplineSet
296.420898438 407.603515625 m 0
 249.543945312 407.603515625 193.030273438 388.331054688 193.030273438 295.393554688 c 2
 193.030273438 -0.0771484375 l 1
 56.810546875 -0.0771484375 l 1
 56.810546875 690.823242188 l 1
 193.030273438 690.823242188 l 1
 193.030273438 480.729492188 l 1
 214.146484375 499.801757812 259.243164062 530.103515625 332.680664062 530.103515625 c 0
 392.9296875 530.103515625 440.919921875 512.220703125 475.2265625 475.854492188 c 0
 509.513671875 439.510742188 526.23046875 388.760742188 526.23046875 324.79296875 c 2
 526.23046875 -0.0771484375 l 1
 390.010742188 -0.0771484375 l 1
 390.010742188 300.29296875 l 2
 390.010742188 388.307617188 344.267578125 407.603515625 296.420898438 407.603515625 c 0
EndSplineSet
EndChar

StartChar: i
Encoding: 105 105 76
Width: 248
GlyphClass: 2
Flags: MW
HStem: -0.0771484 21G<61.7109 196.95 61.7109 61.7109> 504.224 20G<61.7109 196.95 196.95 196.95> 582.043 111.721<61.7109 196.95 61.7109 196.95>
VStem: 61.7109 135.239<-0.0771484 524.224 -0.0771484 524.224 582.043 693.764>
LayerCount: 2
Fore
SplineSet
61.7109375 693.763671875 m 1
 196.950195312 693.763671875 l 1
 196.950195312 582.04296875 l 1
 61.7109375 582.04296875 l 1
 61.7109375 693.763671875 l 1
61.7109375 524.223632812 m 1
 196.950195312 524.223632812 l 1
 196.950195312 -0.0771484375 l 1
 61.7109375 -0.0771484375 l 1
 61.7109375 524.223632812 l 1
EndSplineSet
EndChar

StartChar: j
Encoding: 106 106 77
Width: 248
GlyphClass: 2
Flags: MW
HStem: -152.957 119.561<-54.9092 -1.49805 -1.49805 11.5654 -54.9092 16.1406 -54.9092 -1.49805> 504.223 20G<61.7109 196.951 196.951 196.951> 582.043 111.721<61.7109 196.95 61.7109 196.95>
VStem: 61.7109 135.24<26.8721 524.223>
LayerCount: 2
Fore
SplineSet
61.7109375 693.763671875 m 1
 196.950195312 693.763671875 l 1
 196.950195312 582.04296875 l 1
 61.7109375 582.04296875 l 1
 61.7109375 693.763671875 l 1
196.951171875 19.0322265625 m 2
 196.951171875 -105.91015625 129.590820312 -152.95703125 16.140625 -152.95703125 c 2
 -54.9091796875 -152.95703125 l 1
 -54.9091796875 -33.396484375 l 1
 -1.498046875 -33.396484375 l 2
 24.62890625 -33.396484375 40.9716796875 -28.3046875 48.76171875 -20.7666015625 c 0
 56.541015625 -13.2373046875 61.7109375 2.1328125 61.7109375 26.8720703125 c 2
 61.7109375 524.22265625 l 1
 196.951171875 524.22265625 l 1
 196.951171875 19.0322265625 l 2
EndSplineSet
EndChar

StartChar: k
Encoding: 107 107 78
Width: 579
GlyphClass: 2
Flags: MW
HStem: -0.0771484 21G<56.8105 193.03 56.8105 56.8105 405.169 577.173 405.169 405.169> 504.224 20G<389.328 566.395 566.395 566.395> 670.823 20G<56.8105 193.03 193.03 193.03>
VStem: 56.8105 136.22<-0.0771484 161.952 319.553 690.823>
LayerCount: 2
Fore
SplineSet
405.168945312 -0.0771484375 m 1
 256.962890625 224.15625 l 1
 193.030273438 161.952148438 l 1
 193.030273438 -0.0771484375 l 1
 56.810546875 -0.0771484375 l 1
 56.810546875 690.823242188 l 1
 193.030273438 690.823242188 l 1
 193.030273438 319.552734375 l 1
 389.328125 524.223632812 l 1
 566.39453125 524.223632812 l 1
 353.08984375 317.041992188 l 1
 577.172851562 -0.0771484375 l 1
 405.168945312 -0.0771484375 l 1
EndSplineSet
EndChar

StartChar: l
Encoding: 108 108 79
Width: 320
GlyphClass: 2
Flags: MW
HStem: -0.0771484 119.561<183.042 308.671 255.261 308.671 255.261 308.671> 670.822 20G<56.8105 193.03 193.03 193.03>
VStem: 56.8105 136.22<171.912 179.752 179.752 690.822>
LayerCount: 2
Fore
SplineSet
233.700195312 -0.0771484375 m 2
 132.3828125 -0.0771484375 56.810546875 40.802734375 56.810546875 171.912109375 c 2
 56.810546875 690.822265625 l 1
 193.030273438 690.822265625 l 1
 193.030273438 179.751953125 l 2
 193.030273438 155.731445312 198.130859375 140.455078125 206.06640625 132.51953125 c 0
 213.915039062 124.670898438 229.850585938 119.483398438 255.260742188 119.483398438 c 2
 308.670898438 119.483398438 l 1
 308.670898438 -0.0771484375 l 1
 233.700195312 -0.0771484375 l 2
EndSplineSet
EndChar

StartChar: m
Encoding: 109 109 80
Width: 893
GlyphClass: 2
Flags: MW
HStem: -0.0771484 21G<56.8105 193.03 56.8105 56.8105 382.171 382.171 382.171 518.391> 407.604 122.499<290.156 331.297 606.048 649.964>
VStem: 56.8105 136.22<-0.0771484 295.394 -0.0771484 524.224> 382.171 136.22<-0.0771484 297.354 -0.0771484 305.193 -0.0771484 327.153> 707.53 136.22<-0.078125 300.292 300.292 324.792 -0.078125 332.313>
LayerCount: 2
Fore
SplineSet
292.5 407.603515625 m 0
 252.418945312 407.603515625 193.030273438 391.404296875 193.030273438 295.393554688 c 2
 193.030273438 -0.0771484375 l 1
 56.810546875 -0.0771484375 l 1
 56.810546875 524.223632812 l 1
 190.090820312 524.223632812 l 1
 190.090820312 479.772460938 l 1
 206.837890625 494.958984375 253.510742188 530.102539062 326.80078125 530.102539062 c 0
 367.056640625 530.102539062 430.5 520.119140625 475.397460938 465.305664062 c 1
 518.965820312 508.440429688 573.655273438 530.102539062 638.440429688 530.102539062 c 0
 702.513671875 530.102539062 753.372070312 512.146484375 789.681640625 475.494140625 c 0
 825.954101562 438.877929688 843.75 388.21875 843.75 324.791992188 c 2
 843.75 -0.078125 l 1
 707.530273438 -0.078125 l 1
 707.530273438 300.291992188 l 2
 707.530273438 364.333984375 683.047851562 407.603515625 616.880859375 407.603515625 c 0
 585.098632812 407.603515625 561.442382812 397.967773438 544.421875 379.155273438 c 0
 527.369140625 360.307617188 518.390625 333.403320312 518.390625 297.353515625 c 2
 518.390625 -0.0771484375 l 1
 382.170898438 -0.0771484375 l 1
 382.170898438 305.193359375 l 2
 382.170898438 349.11328125 370.09375 407.603515625 292.5 407.603515625 c 0
EndSplineSet
EndChar

StartChar: n
Encoding: 110 110 81
Width: 574
GlyphClass: 2
Flags: MW
HStem: -0.0771484 21G<56.8105 193.03 56.8105 56.8105 390.011 390.011 390.011 526.23> 407.604 122.5<296.326 320.344>
VStem: 56.8105 136.22<-0.0771484 295.394 -0.0771484 524.224> 390.011 136.22<-0.0771484 300.293 300.293 324.793 -0.0771484 344.3>
LayerCount: 2
Fore
SplineSet
296.420898438 407.603515625 m 0
 249.543945312 407.603515625 193.030273438 388.331054688 193.030273438 295.393554688 c 2
 193.030273438 -0.0771484375 l 1
 56.810546875 -0.0771484375 l 1
 56.810546875 524.223632812 l 1
 190.090820312 524.223632812 l 1
 190.090820312 479.412109375 l 1
 213.611328125 500.267578125 259.970703125 530.103515625 332.680664062 530.103515625 c 0
 392.946289062 530.103515625 440.950195312 512.041015625 475.250976562 475.33984375 c 0
 509.49609375 438.696289062 526.23046875 388.12890625 526.23046875 324.79296875 c 2
 526.23046875 -0.0771484375 l 1
 390.010742188 -0.0771484375 l 1
 390.010742188 300.29296875 l 2
 390.010742188 388.307617188 344.267578125 407.603515625 296.420898438 407.603515625 c 0
EndSplineSet
EndChar

StartChar: o
Encoding: 111 111 82
Width: 565
GlyphClass: 2
Flags: MW
HStem: -8.89648 123.479<261.627 314.412 261.627 325.19> 410.543 122.5<261.631 325.19 251.658 334.458>
VStem: 48.9707 135.24<232.673 233.653 233.653 291.474 185.157 293.434 185.157 331.974> 390.99 135.24<233.653 291.474 291.474 293.434 193.819 315.119>
LayerCount: 2
Fore
SplineSet
48.970703125 232.672851562 m 2
 48.970703125 293.43359375 l 2
 48.970703125 370.514648438 69.9833984375 430.422851562 112.971679688 471.704101562 c 0
 155.796875 512.830078125 214.735351562 533.04296875 288.580078125 533.04296875 c 0
 361.799804688 533.04296875 420.2734375 512.642578125 462.762695312 471.172851562 c 0
 505.377929688 429.580078125 526.23046875 369.866210938 526.23046875 293.43359375 c 2
 526.23046875 232.672851562 l 2
 526.23046875 154.965820312 505.40625 94.5947265625 462.762695312 52.9736328125 c 0
 420.2734375 11.50390625 361.799804688 -8.896484375 288.580078125 -8.896484375 c 0
 214.72265625 -8.896484375 155.770507812 11.4912109375 112.94921875 52.953125 c 0
 69.9697265625 94.568359375 48.970703125 154.953125 48.970703125 232.672851562 c 2
288.580078125 114.583007812 m 0
 340.243164062 114.583007812 390.990234375 135.51953125 390.990234375 233.653320312 c 2
 390.990234375 291.473632812 l 2
 390.990234375 338.764648438 380.334960938 410.54296875 288.580078125 410.54296875 c 0
 234.682617188 410.54296875 184.2109375 388.47265625 184.2109375 291.473632812 c 2
 184.2109375 233.653320312 l 2
 184.2109375 136.66015625 234.674804688 114.583007812 288.580078125 114.583007812 c 0
EndSplineSet
EndChar

StartChar: p
Encoding: 112 112 83
Width: 573
GlyphClass: 2
Flags: MW
HStem: -8.89648 123.479<299.282 327.441 281.864 386.72> 410.543 122.5<300.632 321.734> 504.224 20G<56.8105 190.092 190.092 190.092>
VStem: 56.8105 136.22<-152.957 40.3584 -152.957 524.224> 397.852 136.22<238.554 291.474 291.474 297.354 156.766 340.792>
LayerCount: 2
Fore
SplineSet
534.071289062 233.653320312 m 2xd8
 534.071289062 79.8779296875 446.638671875 -8.896484375 326.80078125 -8.896484375 c 0
 271.762695312 -8.896484375 226.79296875 7.4658203125 193.030273438 40.3583984375 c 1
 193.030273438 -152.95703125 l 1
 56.810546875 -152.95703125 l 1
 56.810546875 524.223632812 l 1
 190.091796875 524.223632812 l 1xb8
 190.091796875 477.76171875 l 1
 227.28515625 514.491210938 273.483398438 533.04296875 327.78125 533.04296875 c 0
 390.174804688 533.04296875 440.788085938 512.713867188 478.240234375 471.857421875 c 0
 515.81640625 430.865234375 534.071289062 372.319335938 534.071289062 297.353515625 c 2
 534.071289062 233.653320312 l 2xd8
298.381835938 114.583007812 m 0
 356.5 114.583007812 397.8515625 146.83203125 397.8515625 238.553710938 c 2
 397.8515625 291.473632812 l 2
 397.8515625 390.109375 347.045898438 410.54296875 296.421875 410.54296875 c 0xd8
 263.380859375 410.54296875 238.587890625 400.296875 220.557617188 380.163085938 c 0
 202.497070312 359.99609375 193.03125 331.440429688 193.03125 293.43359375 c 2
 193.03125 228.752929688 l 2
 193.03125 192.84375 202.708007812 165.3125 221.456054688 145.052734375 c 0
 240.166015625 124.834960938 265.346679688 114.583007812 298.381835938 114.583007812 c 0
EndSplineSet
EndChar

StartChar: q
Encoding: 113 113 84
Width: 573
GlyphClass: 2
Flags: MW
HStem: -8.89746 123.479<236.75 283.283> 410.542 122.501<251.709 282.107 224.659 302.507> 504.224 20G<391.971 525.25 525.25 525.25>
VStem: 48.9707 136.219<230.713 235.612 235.612 288.532 217.211 294.413 217.211 331.595> 390.011 135.239<-152.957 42.4404 42.4404 42.4404>
LayerCount: 2
Fore
SplineSet
391.970703125 480.120117188 m 1xd8
 391.970703125 524.223632812 l 1
 525.25 524.223632812 l 1xb8
 525.25 -152.95703125 l 1
 390.010742188 -152.95703125 l 1
 390.010742188 42.4404296875 l 1
 356.63671875 8.1650390625 311.3046875 -8.8974609375 255.260742188 -8.8974609375 c 0
 193.462890625 -8.8974609375 143.014648438 11.8076171875 105.2734375 53.2890625 c 0
 67.37890625 94.9384765625 48.970703125 154.451171875 48.970703125 230.712890625 c 2
 48.970703125 294.413085938 l 2
 48.970703125 368.77734375 67.5966796875 427.62109375 105.745117188 469.856445312 c 0
 143.775390625 511.961914062 194.056640625 533.04296875 255.260742188 533.04296875 c 0
 308.953125 533.04296875 354.813476562 515.306640625 391.970703125 480.120117188 c 1xd8
185.189453125 235.612304688 m 2
 185.189453125 198.810546875 190.799804688 114.58203125 282.69921875 114.58203125 c 0
 316.452148438 114.58203125 342.1640625 124.731445312 361.172851562 144.645507812 c 0
 380.1640625 164.541015625 390.009765625 192.178710938 390.009765625 228.751953125 c 2
 390.009765625 293.432617188 l 2
 390.009765625 331.439453125 380.543945312 359.995117188 362.483398438 380.162109375 c 0
 344.482421875 400.26171875 319.374023438 410.541992188 285.639648438 410.541992188 c 0xd8
 217.778320312 410.541992188 185.189453125 368.771484375 185.189453125 288.532226562 c 2
 185.189453125 235.612304688 l 2
EndSplineSet
EndChar

StartChar: r
Encoding: 114 114 85
Width: 399
GlyphClass: 2
Flags: MW
HStem: -0.0771484 21G<56.8105 193.03 56.8105 56.8105> 413.483 121.52<293.546 326.12> 504.224 20G<56.8105 190.092 190.092 190.092>
VStem: 56.8105 136.22<-0.0771484 289.514 -0.0771484 524.224>
LayerCount: 2
Fore
SplineSet
307.200195312 413.483398438 m 0xd0
 261.623046875 413.483398438 193.030273438 395.823242188 193.030273438 289.513671875 c 2
 193.030273438 -0.0771484375 l 1
 56.810546875 -0.0771484375 l 1
 56.810546875 524.223632812 l 1
 190.091796875 524.223632812 l 1xb0
 190.091796875 479.250976562 l 1
 211.0703125 501.455078125 255.392578125 535.002929688 331.700195312 535.002929688 c 0
 359.639648438 535.002929688 372.971679688 532.580078125 387.0703125 529.759765625 c 1
 387.0703125 397.413085938 l 1
 366.6171875 405.233398438 345.040039062 413.483398438 307.200195312 413.483398438 c 0xd0
EndSplineSet
EndChar

StartChar: s
Encoding: 115 115 86
Width: 529
GlyphClass: 2
Flags: MW
HStem: -5.95703 112.7<231.914 298.491 227.818 335.052> 420.344 109.76<238.676 302.448 234.516 305.547>
VStem: 47.9902 128.38<361.581 389.582 361.581 391.116> 372.371 130.34<137.021 166.652>
LayerCount: 2
Fore
SplineSet
502.7109375 165.053710938 m 0
 502.7109375 47.9580078125 403.083007812 -5.95703125 267.020507812 -5.95703125 c 0
 196.807617188 -5.95703125 141.249023438 8.4033203125 100.96484375 38.103515625 c 0
 60.509765625 67.9306640625 40.1513671875 110.502929688 40.1513671875 164.073242188 c 2
 40.1513671875 174.36328125 l 1
 168.53125 174.36328125 l 1
 168.53125 165.053710938 l 2
 168.53125 143.786132812 181.75390625 106.743164062 273.881835938 106.743164062 c 0
 323.099609375 106.743164062 372.37109375 116.828125 372.37109375 157.212890625 c 0
 372.37109375 176.090820312 364.23046875 196.233398438 297.520507812 203.813476562 c 2
 222.001953125 212.640625 l 2
 110.969726562 226.518554688 47.990234375 269.641601562 47.990234375 364.973632812 c 0
 47.990234375 417.2578125 68.0498046875 458.7109375 107.875976562 487.549804688 c 0
 147.45703125 516.211914062 201.032226562 530.103515625 268 530.103515625 c 0
 336.896484375 530.103515625 391.748046875 516.236328125 431.99609375 487.584960938 c 0
 472.388671875 458.831054688 492.91015625 418.387695312 492.91015625 367.913085938 c 2
 492.91015625 356.643554688 l 1
 365.510742188 356.643554688 l 1
 365.510742188 366.93359375 l 2
 365.510742188 395.0625 344.07421875 420.34375 267.020507812 420.34375 c 0
 210.33203125 420.34375 176.370117188 406.349609375 176.370117188 372.813476562 c 0
 176.370117188 350.348632812 190.912109375 335.357421875 242.427734375 329.150390625 c 2
 323.700195312 319.358398438 l 2
 391.119140625 311.866210938 502.7109375 287.229492188 502.7109375 165.053710938 c 0
EndSplineSet
EndChar

StartChar: t
Encoding: 116 116 87
Width: 400
GlyphClass: 2
Flags: MW
HStem: -0.0771484 117.601<258.229 357.671 307.2 357.671 307.2 357.671> 424.264 99.96<28.3906 117.57 28.3906 117.57 252.811 368.45>
VStem: 117.57 135.239<164.073 213.972 161.246 424.264>
LayerCount: 2
Fore
SplineSet
252.810546875 524.223632812 m 1
 368.450195312 524.223632812 l 1
 368.450195312 424.263671875 l 1
 252.810546875 424.263671875 l 1
 252.810546875 340.146484375 252.809570312 256.030273438 252.809570312 171.9140625 c 0
 252.809570312 150.578125 257.5078125 136.9375 264.865234375 129.579101562 c 0
 272.223632812 122.221679688 285.864257812 117.5234375 307.200195312 117.5234375 c 2
 357.670898438 117.5234375 l 1
 357.670898438 -0.0771484375 l 1
 284.66015625 -0.0771484375 l 2
 231.798828125 -0.0771484375 190.112304688 13.8671875 160.916015625 42.7158203125 c 0
 131.734375 71.5498046875 117.5703125 112.456054688 117.5703125 164.073242188 c 2
 117.5703125 424.263671875 l 1
 28.390625 424.263671875 l 1
 28.390625 524.223632812 l 1
 117.5703125 524.223632812 l 1
 117.5703125 622.051757812 l 1
 252.810546875 669.330078125 l 1
 252.810546875 524.223632812 l 1
EndSplineSet
EndChar

StartChar: u
Encoding: 117 117 88
Width: 574
GlyphClass: 2
Flags: MW
HStem: -8.89648 123.479<273.518 309.885 273.518 396.233> 504.224 20G<56.8096 193.029 193.029 193.029 390.011 526.23 526.23 526.23>
VStem: 56.8096 136.22<220.913 226.793 226.793 524.224> 390.011 136.22<226.793 524.224>
LayerCount: 2
Fore
SplineSet
291.520507812 -8.896484375 m 0
 178.774414062 -8.896484375 56.8095703125 34.2431640625 56.8095703125 220.913085938 c 2
 56.8095703125 524.223632812 l 1
 193.029296875 524.223632812 l 1
 193.029296875 226.79296875 l 2
 193.029296875 188.561523438 201.216796875 160.672851562 216.348632812 142.27734375 c 0
 231.133789062 124.303710938 255.515625 114.583007812 291.51953125 114.583007812 c 0
 328.25 114.583007812 352.7734375 124.209960938 367.173828125 141.778320312 c 0
 381.940429688 159.79296875 390.010742188 187.857421875 390.010742188 226.79296875 c 2
 390.010742188 524.223632812 l 1
 526.23046875 524.223632812 l 1
 526.23046875 220.913085938 l 2
 526.23046875 134.237304688 500.9453125 -8.896484375 291.520507812 -8.896484375 c 0
EndSplineSet
EndChar

StartChar: v
Encoding: 118 118 89
Width: 542
GlyphClass: 2
Flags: MW
HStem: -0.0771484 21G<219.912 329.8 219.912 219.912> 504.224 20G<9.18359 156.549 156.549 156.549 394.139 541.537 541.537 541.537>
LayerCount: 2
Fore
SplineSet
9.18359375 524.223632812 m 1
 156.548828125 524.223632812 l 1
 275.813476562 192.724609375 l 1
 394.138671875 524.223632812 l 1
 541.537109375 524.223632812 l 1
 329.799804688 -0.0771484375 l 1
 219.912109375 -0.0771484375 l 1
 9.18359375 524.223632812 l 1
EndSplineSet
EndChar

StartChar: w
Encoding: 119 119 90
Width: 824
GlyphClass: 2
Flags: MW
HStem: -0.0771484 21G<189.246 302.647 189.246 189.246 528.319 641.726 528.319 528.319> 504.224 20G<9.77441 153.901 153.901 153.901 364.693 466.26 466.26 466.26 677.049 822.205 822.205 822.205>
LayerCount: 2
Fore
SplineSet
9.7744140625 524.223632812 m 1
 153.901367188 524.223632812 l 1
 251.8359375 199.641601562 l 1
 364.693359375 524.223632812 l 1
 466.259765625 524.223632812 l 1
 580.981445312 199.64453125 l 1
 677.048828125 524.223632812 l 1
 822.205078125 524.223632812 l 1
 641.725585938 -0.0771484375 l 1
 528.319335938 -0.0771484375 l 1
 415.951171875 329.53515625 l 1
 302.647460938 -0.0771484375 l 1
 189.24609375 -0.0771484375 l 1
 9.7744140625 524.223632812 l 1
EndSplineSet
EndChar

StartChar: x
Encoding: 120 120 91
Width: 517
GlyphClass: 2
Flags: MW
HStem: -0.0771484 21G<6.27051 157.429 6.27051 6.27051 369.926 519.972 369.926 369.926> 504.224 20G<16.0371 167.06 167.06 167.06 359.973 510.396 510.396 510.396>
LayerCount: 2
Fore
SplineSet
369.92578125 -0.0771484375 m 1
 259.427734375 164.254882812 l 1
 157.428710938 -0.0771484375 l 1
 6.2705078125 -0.0771484375 l 1
 187.600585938 269.904296875 l 1
 16.037109375 524.223632812 l 1
 167.059570312 524.223632812 l 1
 266.809570312 375.5390625 l 1
 359.97265625 524.223632812 l 1
 510.396484375 524.223632812 l 1
 335.708984375 272.793945312 l 1
 519.971679688 -0.0771484375 l 1
 369.92578125 -0.0771484375 l 1
EndSplineSet
EndChar

StartChar: y
Encoding: 121 121 92
Width: 543
GlyphClass: 2
Flags: MW
HStem: -150.996 123.48<87.1904 141.58 87.1904 147.461> 504.224 20G<9.03613 156.414 156.414 156.414 400.016 542.389 542.389 542.389>
LayerCount: 2
Fore
SplineSet
141.580078125 -150.99609375 m 2
 87.1904296875 -150.99609375 l 1
 87.1904296875 -27.515625 l 1
 147.4609375 -27.515625 l 2
 170.399414062 -27.515625 186.395507812 -24.2802734375 195.250976562 -19.181640625 c 0
 210.606445312 -10.3408203125 217.2890625 9.7060546875 219.9765625 17.767578125 c 1
 9.0361328125 524.223632812 l 1
 156.4140625 524.223632812 l 1
 283.387695312 196.9140625 l 1
 400.015625 524.223632812 l 1
 542.388671875 524.223632812 l 1
 321.900390625 -39.46875 l 2
 294.025390625 -111.688476562 240.584960938 -150.99609375 141.580078125 -150.99609375 c 2
EndSplineSet
EndChar

StartChar: z
Encoding: 122 122 93
Width: 505
GlyphClass: 2
Flags: MW
HStem: -0.0771484 116.62<211.481 465.471 211.481 465.471> 407.604 116.62<48.9707 465.471 48.9707 302.019>
LayerCount: 2
Fore
SplineSet
48.970703125 407.603515625 m 1
 48.970703125 524.223632812 l 1
 465.470703125 524.223632812 l 1
 465.470703125 412.231445312 l 1
 211.481445312 116.54296875 l 1
 465.470703125 116.54296875 l 1
 465.470703125 -0.0771484375 l 1
 48.970703125 -0.0771484375 l 1
 48.970703125 111.907226562 l 1
 302.018554688 407.603515625 l 1
 48.970703125 407.603515625 l 1
EndSplineSet
EndChar

StartChar: braceleft
Encoding: 123 123 94
Width: 405
GlyphClass: 2
Flags: MW
HStem: -82.3965 112.7<255.753 366.49 319.94 366.49 319.94 366.49> 271.384 118.579<48.9717 56.3213 48.9717 56.3213> 627.123 112.7<309.152 319.94 319.94 366.49>
VStem: 137.171 129.359<70.9736 200.333 200.333 206.213 70.9736 213.888 461.014 586.453>
LayerCount: 2
Fore
SplineSet
281.720703125 -82.396484375 m 2
 229.786132812 -82.396484375 137.170898438 -70.0263671875 137.170898438 50.3935546875 c 2
 137.170898438 200.333007812 l 2
 137.170898438 227.442382812 130.783203125 245.169921875 119.931640625 255.20703125 c 0
 109.124023438 265.204101562 88.2802734375 271.383789062 56.3212890625 271.383789062 c 2
 48.9716796875 271.383789062 l 1
 48.9716796875 389.962890625 l 1
 56.3212890625 389.962890625 l 2
 88.2802734375 389.962890625 109.124023438 396.141601562 119.931640625 406.139648438 c 0
 130.783203125 416.176757812 137.170898438 433.904296875 137.170898438 461.013671875 c 2
 137.170898438 608.013671875 l 2
 137.170898438 677.669921875 168.806640625 739.823242188 281.720703125 739.823242188 c 2
 366.490234375 739.823242188 l 1
 366.490234375 627.123046875 l 1
 319.940429688 627.123046875 l 2
 298.36328125 627.123046875 284.354492188 623.346679688 277.435546875 617.911132812 c 0
 270.809570312 612.704101562 266.530273438 602.981445312 266.530273438 586.453125 c 2
 266.530273438 455.133789062 l 2
 266.530273438 385.84765625 249.364257812 351.505859375 208.90234375 330.672851562 c 1
 249.360351562 309.841796875 266.530273438 275.504882812 266.530273438 206.212890625 c 2
 266.530273438 70.9736328125 l 2
 266.53125 54.4453125 270.809570312 44.72265625 277.435546875 39.515625 c 0
 284.354492188 34.0791015625 298.36328125 30.3037109375 319.940429688 30.3037109375 c 2
 366.490234375 30.3037109375 l 1
 366.490234375 -82.396484375 l 1
 281.720703125 -82.396484375 l 2
EndSplineSet
Substitution2: "'rtla' Right to Left Alternates lookup 0 subtable" braceright
EndChar

StartChar: bar
Encoding: 124 124 95
Width: 303
GlyphClass: 2
Flags: MW
VStem: 93.0703 127.4<-82.3965 739.823 -82.3965 739.823>
LayerCount: 2
Fore
SplineSet
93.0703125 739.823242188 m 1
 220.470703125 739.823242188 l 1
 220.470703125 -82.396484375 l 1
 93.0703125 -82.396484375 l 1
 93.0703125 739.823242188 l 1
EndSplineSet
EndChar

StartChar: braceright
Encoding: 125 125 96
Width: 405
GlyphClass: 2
Flags: MW
HStem: -82.3965 112.7<48.9707 94.5381 94.5381 117.016 48.9707 133.74 48.9707 94.5381> 271.384 118.579<342.83 366.49 359.141 366.49> 627.123 112.7<48.9707 94.54 48.9707 133.74>
VStem: 148.93 128.381<70.9736 200.333 455.134 461.014 461.014 586.453 586.453 594.717>
LayerCount: 2
Fore
SplineSet
277.310546875 50.3935546875 m 2
 277.310546875 -19.765625 245.900390625 -82.396484375 133.740234375 -82.396484375 c 2
 48.970703125 -82.396484375 l 1
 48.970703125 30.3037109375 l 1
 94.5380859375 30.3037109375 l 2
 139.494140625 30.3037109375 148.9296875 45.5673828125 148.9296875 70.9736328125 c 2
 148.9296875 206.212890625 l 2
 148.9296875 275.499023438 166.095703125 309.840820312 206.557617188 330.672851562 c 1
 166.099609375 351.50390625 148.9296875 385.841796875 148.9296875 455.133789062 c 2
 148.9296875 586.453125 l 2
 148.9296875 602.981445312 144.650390625 612.704101562 138.024414062 617.911132812 c 0
 131.153320312 623.309570312 116.803710938 627.123046875 94.5400390625 627.123046875 c 2
 48.970703125 627.123046875 l 1
 48.970703125 739.823242188 l 1
 133.740234375 739.823242188 l 2
 185.141601562 739.823242188 277.310546875 727.646484375 277.310546875 608.013671875 c 2
 277.310546875 461.013671875 l 2
 277.310546875 434.615234375 283.642578125 416.9921875 294.62109375 406.561523438 c 0
 305.405273438 396.31640625 326.51953125 389.962890625 359.140625 389.962890625 c 2
 366.490234375 389.962890625 l 1
 366.490234375 271.383789062 l 1
 359.140625 271.383789062 l 2
 326.51953125 271.383789062 305.405273438 265.030273438 294.62109375 254.78515625 c 0
 283.642578125 244.354492188 277.310546875 226.731445312 277.310546875 200.333007812 c 2
 277.310546875 50.3935546875 l 2
EndSplineSet
Substitution2: "'rtla' Right to Left Alternates lookup 0 subtable" braceleft
EndChar

StartChar: asciitilde
Encoding: 126 126 97
Width: 532
GlyphClass: 2
Flags: MW
HStem: 191.022 115.64<340.783 363.592 340.783 367.117> 246.884 114.658<179.188 201.062>
LayerCount: 2
Fore
SplineSet
189.599609375 361.541992188 m 0x40
 217.005859375 361.541992188 239.208007812 356.703125 287.254882812 329.254882812 c 0
 324.78515625 308.7890625 334.186523438 306.662109375 347.379882812 306.662109375 c 0
 379.8046875 306.662109375 394.018554688 330.626953125 411.02734375 364.64453125 c 1
 501.705078125 309.103515625 l 1
 493.170898438 289.4375 475.859375 249.546875 437.571289062 220.447265625 c 0
 411.880859375 200.922851562 382.934570312 191.022460938 351.299804688 191.022460938 c 0x80
 325.522460938 191.022460938 302.354492188 195.44140625 253.603515625 224.3125 c 0
 216.099609375 244.62109375 207.625 246.883789062 194.5 246.883789062 c 0
 163.876953125 246.883789062 148.8671875 223.119140625 130.674804688 189.010742188 c 1
 40.087890625 244.495117188 l 1
 49.0361328125 264.255859375 67.0537109375 304.043945312 104.810546875 332.616210938 c 0
 130.162109375 351.802734375 158.611328125 361.541992188 189.599609375 361.541992188 c 0x40
EndSplineSet
EndChar

StartChar: exclamdown
Encoding: 161 161 99
Width: 256
GlyphClass: 2
Flags: MW
HStem: 381.144 143.08<60.7305 205.771 60.7305 205.771>
VStem: 60.7305 145.04<381.144 524.224 381.144 524.224> 80.7148 105.071<298.823 298.823>
LayerCount: 2
Fore
SplineSet
60.73046875 524.223632812 m 1xc0
 205.770507812 524.223632812 l 1
 205.770507812 381.143554688 l 1
 60.73046875 381.143554688 l 1
 60.73046875 524.223632812 l 1xc0
185.786132812 298.823242188 m 1xa0
 210.096679688 -152.95703125 l 1
 56.404296875 -152.95703125 l 1
 80.71484375 298.823242188 l 1
 185.786132812 298.823242188 l 1xa0
EndSplineSet
EndChar

StartChar: cent
Encoding: 162 162 100
Width: 562
GlyphClass: 2
Flags: MW
HStem: -7.2002 121.783<248.891 309.609> 410.542 120.798<248.89 320.452>
VStem: 48.9697 135.241<232.673 233.652 233.652 291.473 198.476 293.434 198.476 328.99> 248.891 85.2598<-98.0771 -7.2002 -7.2002 -7.2002> 388.051 133.279<185.634 196.903 158.388 196.903>
LayerCount: 2
Fore
SplineSet
389.028320312 335.572265625 m 2
 389.028320312 385.337890625 349.381835938 410.541992188 291.521484375 410.541992188 c 0
 206.989257812 410.541992188 184.2109375 359.399414062 184.2109375 291.47265625 c 2
 184.2109375 233.65234375 l 2
 184.2109375 163.299804688 207.946289062 114.583007812 294.4609375 114.583007812 c 0
 324.7578125 114.583007812 347.66015625 121.377929688 363.928710938 134.096679688 c 0
 380.115234375 146.750976562 388.05078125 163.40625 388.05078125 185.633789062 c 2
 388.05078125 196.903320312 l 1
 521.330078125 196.903320312 l 1
 521.330078125 185.633789062 l 2
 521.330078125 131.141601562 504.172851562 86.349609375 469.633789062 52.4951171875 c 0
 436.4453125 19.9638671875 391.01171875 0.568359375 334.150390625 -6.177734375 c 1
 334.150390625 -98.0771484375 l 1
 248.890625 -98.0771484375 l 1
 248.890625 -7.2001953125 l 1
 192.272460938 -0.8017578125 48.9697265625 30.4091796875 48.9697265625 232.672851562 c 2
 48.9697265625 293.43359375 l 2
 48.9697265625 364.546875 66.9560546875 421.096679688 103.775390625 462.006835938 c 0
 139.193359375 501.361328125 187.911132812 524.379882812 248.889648438 531.33984375 c 1
 248.889648438 620.263671875 l 1
 334.149414062 620.263671875 l 1
 334.149414062 530.333007812 l 1
 391.6328125 523.596679688 437.396484375 504.2109375 470.614257812 471.651367188 c 0
 505.172851562 437.77734375 522.310546875 392.654296875 522.310546875 337.533203125 c 2
 522.310546875 324.303710938 l 1
 389.028320312 324.303710938 l 1
 389.028320312 335.572265625 l 2
EndSplineSet
EndChar

StartChar: sterling
Encoding: 163 163 101
Width: 521
GlyphClass: 2
Flags: MW
HStem: -0.0761719 125.44<217.434 504.67 217.434 504.67> 270.403 126.42<243.011 401.771 243.011 401.771> 577.144 123.48<293.291 336.122>
VStem: 99.9297 143.081<204.254 216.993 216.993 270.403 195.236 270.404 195.236 270.404 396.824 499.234 499.234 513.934>
LayerCount: 2
Fore
SplineSet
308.180664062 577.143554688 m 0
 278.401367188 577.143554688 243.010742188 566.848632812 243.010742188 513.93359375 c 2
 243.010742188 396.823242188 l 1
 401.770507812 396.823242188 l 1
 401.770507812 270.403320312 l 1
 243.010742188 270.403320312 l 1
 243.010742188 216.993164062 l 2
 243.010742188 173.478515625 232.783203125 145.879882812 217.43359375 125.364257812 c 1
 504.669921875 125.364257812 l 1
 504.669921875 -0.076171875 l 1
 50.9296875 -0.076171875 l 1
 50.9296875 118.057617188 l 1
 78.3779296875 129.240234375 99.9296875 141.827148438 99.9296875 204.25390625 c 2
 99.9296875 270.404296875 l 1
 31.3291015625 270.404296875 l 1
 31.3291015625 396.82421875 l 1
 99.9296875 396.82421875 l 1
 99.9296875 499.234375 l 2
 99.9296875 562.021484375 117.740234375 611.9140625 154.073242188 647.560546875 c 0
 190.416015625 683.216796875 241.557617188 700.624023438 306.219726562 700.624023438 c 0
 366.858398438 700.624023438 415.500976562 685.59765625 451.166015625 654.733398438 c 0
 486.953125 623.764648438 504.670898438 580.227539062 504.670898438 525.694335938 c 2
 504.670898438 518.344726562 l 1
 370.41015625 518.344726562 l 1
 370.41015625 525.694335938 l 2
 370.41015625 545.228515625 364.0625 577.143554688 308.180664062 577.143554688 c 0
EndSplineSet
EndChar

StartChar: currency
Encoding: 164 164 102
Width: 597
GlyphClass: 2
Flags: MW
HStem: 109.684 110.739<288.823 316.129 288.823 320.845> 412.503 110.74<288.806 316.146>
VStem: 96.0107 113.681<303.076 330.831 303.076 334.306> 395.891 113.68<303.076 330.831>
LayerCount: 2
Fore
SplineSet
302.30078125 109.68359375 m 0
 265.212890625 109.68359375 231.208007812 118.213867188 200.610351562 135.291015625 c 1
 135.700195312 70.380859375 l 1
 53.767578125 152.313476562 l 1
 119.680664062 218.225585938 l 1
 103.853515625 247.05859375 96.0107421875 280.076171875 96.0107421875 316.953125 c 0
 96.0107421875 351.658203125 104.287109375 384.62890625 120.731445312 415.609375 c 1
 53.767578125 482.573242188 l 1
 135.700195312 564.505859375 l 1
 201.685546875 498.520507812 l 1
 232.767578125 514.985351562 266.396484375 523.243164062 302.30078125 523.243164062 c 0
 338.21875 523.243164062 371.861328125 514.978515625 402.953125 498.5 c 1
 469.955078125 564.501953125 l 1
 550.758789062 482.576171875 l 1
 484.829101562 415.647460938 l 1
 501.286132812 384.655273438 509.5703125 351.672851562 509.5703125 316.953125 c 0
 509.5703125 280.572265625 501.672851562 247.263671875 485.830078125 217.31640625 c 1
 551.8125 151.333007812 l 1
 469.880859375 69.400390625 l 1
 403.990234375 135.291015625 l 1
 373.393554688 118.213867188 339.388671875 109.68359375 302.30078125 109.68359375 c 0
395.890625 316.953125 m 0
 395.890625 344.708007812 387.118164062 367.158203125 369.536132812 385.346679688 c 0
 352.012695312 403.474609375 329.991210938 412.502929688 302.30078125 412.502929688 c 0
 275.310546875 412.502929688 253.603515625 403.510742188 236.045898438 385.346679688 c 0
 218.462890625 367.158203125 209.69140625 344.708007812 209.69140625 316.953125 c 0
 209.69140625 289.19921875 218.467773438 266.557617188 236.087890625 248.026367188 c 0
 253.657226562 229.546875 275.344726562 220.422851562 302.30078125 220.422851562 c 0
 329.958007812 220.422851562 351.958984375 229.583984375 369.494140625 248.026367188 c 0
 387.114257812 266.557617188 395.890625 289.19921875 395.890625 316.953125 c 0
EndSplineSet
EndChar

StartChar: yen
Encoding: 165 165 103
Width: 561
GlyphClass: 2
Flags: MW
HStem: -0.0771484 21G<213.61 355.711 213.61 213.61> 114.583 100.94<62.6904 213.61 62.6904 213.61 355.711 506.631> 254.724 100.939<62.6904 187.067 62.6904 213.61 62.6904 187.067 382.253 506.631> 670.823 20G<5.76758 161.886 161.886 161.886 407.344 563.553 563.553 563.553>
VStem: 213.61 142.101<-0.0771484 114.583 -0.0771484 114.583 215.523 254.724 -0.0771484 254.724>
LayerCount: 2
Fore
SplineSet
355.7109375 114.583007812 m 1
 355.7109375 -0.0771484375 l 1
 213.610351562 -0.0771484375 l 1
 213.610351562 114.583007812 l 1
 62.6904296875 114.583007812 l 1
 62.6904296875 215.5234375 l 1
 213.610351562 215.5234375 l 1
 213.610351562 254.723632812 l 1
 62.6904296875 254.723632812 l 1
 62.6904296875 355.663085938 l 1
 187.067382812 355.663085938 l 1
 5.767578125 690.823242188 l 1
 161.885742188 690.823242188 l 1
 287.447265625 429.31640625 l 1
 407.34375 690.823242188 l 1
 563.552734375 690.823242188 l 1
 382.252929688 355.663085938 l 1
 506.630859375 355.663085938 l 1
 506.630859375 254.723632812 l 1
 355.7109375 254.723632812 l 1
 355.7109375 215.5234375 l 1
 506.630859375 215.5234375 l 1
 506.630859375 114.583007812 l 1
 355.7109375 114.583007812 l 1
EndSplineSet
EndChar

StartChar: brokenbar
Encoding: 166 166 104
Width: 303
GlyphClass: 2
Flags: MW
VStem: 93.0703 127.4<-82.3965 279.224 -82.3965 279.224 380.163 739.823>
LayerCount: 2
Fore
SplineSet
93.0703125 739.823242188 m 1
 220.470703125 739.823242188 l 1
 220.470703125 380.163085938 l 1
 93.0703125 380.163085938 l 1
 93.0703125 739.823242188 l 1
93.0703125 279.223632812 m 1
 220.470703125 279.223632812 l 1
 220.470703125 -82.396484375 l 1
 93.0703125 -82.396484375 l 1
 93.0703125 279.223632812 l 1
EndSplineSet
EndChar

StartChar: section
Encoding: 167 167 105
Width: 563
GlyphClass: 2
Flags: MW
HStem: -164.717 114.661<249.81 299.115 245.991 312.352> 601.643 114.661<273.934 316.555>
VStem: 61.7109 132.301<265.333 298.848> 86.2109 131.319<539.909 572.079 539.909 597.745> 356.69 131.32<-19.2642 12.9551> 365.511 124.46<534.022 541.372 534.022 559.299> 377.271 132.299<263.445 299.045>
LayerCount: 2
Fore
SplineSet
421.166015625 128.454101562 m 1xd2
 446.920898438 113.131835938 488.010742188 82.1103515625 488.010742188 1.392578125 c 0
 488.010742188 -48.9228515625 468.821289062 -89.8916015625 430.831054688 -120.008789062 c 0
 392.953125 -150.0390625 342.983398438 -164.716796875 281.720703125 -164.716796875 c 0
 217.8984375 -164.716796875 167.473632812 -149.759765625 131.411132812 -118.848632812 c 0
 95.267578125 -87.869140625 77.390625 -43.9853515625 77.390625 11.1943359375 c 2
 77.390625 18.5439453125 l 1
 202.830078125 18.5439453125 l 1
 202.830078125 11.1943359375 l 2
 202.830078125 -10.0673828125 209.28125 -50.0556640625 282.700195312 -50.0556640625 c 0
 315.530273438 -50.0556640625 356.690429688 -40.90234375 356.690429688 2.3740234375 c 0
 356.690429688 23.5361328125 348.100585938 38.802734375 329.827148438 50.0029296875 c 0
 310.853515625 61.6328125 277.399414062 73.3740234375 229.934570312 84.427734375 c 0
 119.307617188 112.41796875 61.7109375 176.411132812 61.7109375 274.814453125 c 0xe8
 61.7109375 322.880859375 77.0986328125 388.123046875 149.794921875 428.157226562 c 1
 107.616210938 455.291015625 86.2109375 496.90625 86.2109375 551.173828125 c 0
 86.2109375 644.315429688 162.81640625 716.303710938 289.560546875 716.303710938 c 0
 352.763671875 716.303710938 402.4609375 700.991210938 437.560546875 669.33203125 c 0
 472.577148438 637.748046875 489.970703125 594.618164062 489.970703125 541.372070312 c 2
 489.970703125 534.022460938 l 1
 365.510742188 534.022460938 l 1
 365.510742188 541.372070312 l 2xd4
 365.510742188 577.225585938 344.529296875 601.642578125 288.580078125 601.642578125 c 0
 259.287109375 601.642578125 217.530273438 593.965820312 217.530273438 550.192382812 c 0
 217.530273438 529.625 225.66015625 515.255859375 242.833007812 505.068359375 c 0
 260.83984375 494.385742188 294.313476562 482.756835938 342.336914062 471.076171875 c 0
 452.2734375 443.091796875 509.5703125 379.779296875 509.5703125 282.65234375 c 0
 509.5703125 244.23828125 500.430664062 211.004882812 481.856445312 183.487304688 c 0
 466.137695312 160.200195312 445.81640625 141.794921875 421.166015625 128.454101562 c 1xd2
286.620117188 198.864257812 m 0
 327.893554688 198.864257812 377.271484375 212.5 377.271484375 277.75390625 c 0xe2
 377.271484375 320.3359375 356.719726562 356.64453125 286.62109375 356.64453125 c 0
 236.688476562 356.64453125 194.01171875 338.790039062 194.01171875 277.75390625 c 0
 194.01171875 252.911132812 200.975585938 198.864257812 286.620117188 198.864257812 c 0
EndSplineSet
EndChar

StartChar: dieresis
Encoding: 168 168 106
Width: 504
GlyphClass: 2
Flags: MW
HStem: 575.184 128.38<84.25 203.811 84.25 203.811 84.25 308.671 308.671 428.23>
VStem: 84.25 119.561<575.184 703.563 575.184 703.563> 308.671 119.56<575.184 703.563 575.184 703.563>
LayerCount: 2
Fore
SplineSet
84.25 703.563476562 m 1
 203.810546875 703.563476562 l 1
 203.810546875 575.18359375 l 1
 84.25 575.18359375 l 1
 84.25 703.563476562 l 1
308.670898438 703.563476562 m 1
 428.23046875 703.563476562 l 1
 428.23046875 575.18359375 l 1
 308.670898438 575.18359375 l 1
 308.670898438 703.563476562 l 1
EndSplineSet
EndChar

StartChar: copyright
Encoding: 169 169 107
Width: 783
GlyphClass: 2
Flags: MW
HStem: -8.89648 90.1602<361.196 439.407 361.196 504.578> 144.963 92.1201<377.445 412.684 377.445 452.076> 446.804 93.0986<376.712 420.002> 604.583 89.1807<361.203 439.4>
VStem: 57.79 94.082<301.615 383.251 301.615 448.569> 231.249 101.921<320.872 320.873 320.873 363.014 295.517 363.992 295.517 392.06> 466.45 99.96<286.573 296.863 243.006 296.863> 648.73 94.082<301.615 383.251>
LayerCount: 2
Fore
SplineSet
400.301757812 -8.896484375 m 0
 191.743164062 -8.896484375 57.7900390625 132.823242188 57.7900390625 342.43359375 c 0
 57.7900390625 554.704101562 192.194335938 693.763671875 400.301757812 693.763671875 c 0
 608.859375 693.763671875 742.8125 552.04296875 742.8125 342.43359375 c 0
 742.8125 132.817382812 608.854492188 -8.896484375 400.301757812 -8.896484375 c 0
648.73046875 342.43359375 m 0
 648.73046875 424.069335938 626.484375 487.670898438 582.612304688 534.383789062 c 0
 538.803710938 581.029296875 478.499023438 604.583007812 400.301757812 604.583007812 c 0
 322.103515625 604.583007812 261.799804688 581.029296875 217.990234375 534.383789062 c 0
 174.118164062 487.670898438 151.872070312 424.069335938 151.872070312 342.43359375 c 0
 151.872070312 260.795898438 174.119140625 197.369140625 217.97265625 150.991210938 c 0
 261.77734375 104.665039062 322.090820312 81.263671875 400.301757812 81.263671875 c 0
 478.51171875 81.263671875 538.825195312 104.665039062 582.629882812 150.991210938 c 0
 626.483398438 197.369140625 648.73046875 260.795898438 648.73046875 342.43359375 c 0
566.41015625 286.573242188 m 2
 566.41015625 199.439453125 503.8515625 144.962890625 400.30078125 144.962890625 c 0
 349.215820312 144.962890625 307.717773438 159.877929688 277.043945312 190.208007812 c 0
 246.182617188 220.720703125 231.249023438 264.736328125 231.249023438 320.872070312 c 2
 231.249023438 363.9921875 l 2
 231.249023438 420.127929688 246.180664062 464.14453125 277.041992188 494.658203125 c 0
 307.716796875 524.987304688 349.21484375 539.90234375 400.299804688 539.90234375 c 0
 450.485351562 539.90234375 491.095703125 527.48828125 521.1875 501.892578125 c 0
 551.358398438 476.23046875 566.409179688 440.864257812 566.409179688 397.3125 c 2
 566.409179688 385.0625 l 1
 466.44921875 385.0625 l 1
 466.44921875 395.352539062 l 2
 466.44921875 432.331054688 436.764648438 446.803710938 403.239257812 446.803710938 c 0
 350.184570312 446.803710938 333.169921875 414.974609375 333.169921875 363.013671875 c 2
 333.169921875 320.873046875 l 2
 333.169921875 270.16015625 349.690429688 237.083007812 405.200195312 237.083007812 c 0
 420.166992188 237.083007812 466.450195312 240.78515625 466.450195312 286.573242188 c 2
 466.450195312 296.86328125 l 1
 566.41015625 296.86328125 l 1
 566.41015625 286.573242188 l 2
EndSplineSet
EndChar

StartChar: ordfeminine
Encoding: 170 170 108
Width: 382
GlyphClass: 2
Flags: MW
HStem: 417.403 83.2998<164.045 182.038> 549.703 71.54<170.981 181.762 181.762 243.012> 668.283 79.3799<180.818 211.49>
VStem: 39.1719 98.9795<521.024 533.632 521.024 544.952> 243.012 101.919<548.233 549.703 549.703 549.703 421.323 624.673 421.323 637.373>
LayerCount: 2
Fore
SplineSet
190.580078125 747.663085938 m 0
 241.776367188 747.663085938 344.930664062 738.040039062 344.930664062 618.79296875 c 2
 344.930664062 421.323242188 l 1
 245.951171875 421.323242188 l 1
 245.951171875 442.180664062 l 1
 224.377929688 425.81640625 200.934570312 417.403320312 163.141601562 417.403320312 c 0
 124.788085938 417.403320312 94.099609375 426.489257812 72.078125 445.668945312 c 0
 50.0771484375 464.831054688 39.171875 491.352539062 39.171875 523.733398438 c 0
 39.171875 566.169921875 60.4619140625 621.243164062 170.981445312 621.243164062 c 2
 243.01171875 621.243164062 l 1
 243.01171875 624.672851562 l 2
 243.01171875 650.073242188 233.37890625 668.283203125 189.6015625 668.283203125 c 0
 172.03515625 668.283203125 160.227539062 665.118164062 153.752929688 660.38671875 c 0
 146.72265625 655.245117188 144.030273438 649.900390625 144.030273438 643.29296875 c 2
 144.030273438 633.983398438 l 1
 48.970703125 633.983398438 l 1
 48.970703125 643.29296875 l 2
 48.970703125 674.752929688 61.5517578125 700.709960938 86.13671875 719.67578125 c 0
 110.84375 738.736328125 145.887695312 747.663085938 190.580078125 747.663085938 c 0
182.741210938 500.703125 m 0
 236.384765625 500.703125 243.01171875 527.672851562 243.01171875 548.233398438 c 2
 243.01171875 549.703125 l 1
 181.76171875 549.703125 l 2
 148.348632812 549.703125 138.151367188 540.590820312 138.151367188 526.672851562 c 0
 138.151367188 515.375976562 145.348632812 500.703125 182.741210938 500.703125 c 0
EndSplineSet
EndChar

StartChar: guillemotleft
Encoding: 171 171 109
Width: 584
GlyphClass: 2
Flags: W
LayerCount: 2
Fore
SplineSet
286.130859375 504.834960938 m 1
 286.130859375 362.630859375 l 1
 176.229492188 265.993164062 l 1
 286.130859375 169.35546875 l 1
 286.130859375 27.1513671875 l 1
 17.828125 265.993164062 l 1
 286.130859375 504.834960938 l 1
536.030273438 504.834960938 m 1
 536.030273438 362.611328125 l 1
 425.203125 265.993164062 l 1
 536.030273438 169.375 l 1
 536.030273438 27.1513671875 l 1
 267.728515625 265.993164062 l 1
 536.030273438 504.834960938 l 1
EndSplineSet
EndChar

StartChar: logicalnot
Encoding: 172 172 110
Width: 532
GlyphClass: 2
Flags: MW
HStem: 248.844 123.479<52.8906 351.79 52.8906 487.03>
VStem: 351.79 135.24<117.523 248.844 248.844 248.844>
LayerCount: 2
Fore
SplineSet
351.790039062 248.84375 m 1
 52.890625 248.84375 l 1
 52.890625 372.323242188 l 1
 487.030273438 372.323242188 l 1
 487.030273438 117.5234375 l 1
 351.790039062 117.5234375 l 1
 351.790039062 248.84375 l 1
EndSplineSet
EndChar

StartChar: uni00AD
Encoding: 173 173 111
Width: 405
GlyphClass: 2
Flags: MW
HStem: 282.163 127.4<48.9707 366.49 48.9707 366.49>
VStem: 48.9707 317.52<282.163 409.563 282.163 409.563>
LayerCount: 2
Fore
SplineSet
48.970703125 409.563476562 m 1
 366.490234375 409.563476562 l 1
 366.490234375 282.163085938 l 1
 48.970703125 282.163085938 l 1
 48.970703125 409.563476562 l 1
EndSplineSet
EndChar

StartChar: registered
Encoding: 174 174 112
Width: 498
GlyphClass: 2
Flags: MW
HStem: 301.764 53.8984<233.243 273.699 233.243 310.038> 551.662 57.8203<236.149 261.14 236.149 236.149> 637.902 53.9004<233.231 273.368>
VStem: 61.7109 55.8584<476.157 518.389 476.157 553.501> 170.489 65.6602<387.022 463.462 387.022 521.282 521.282 551.662> 281.229 65.6602<533.501 539.445> 389.029 56.8408<476.146 518.389>
LayerCount: 2
Fore
SplineSet
253.30078125 301.763671875 m 0
 138.709960938 301.763671875 61.7109375 389.848632812 61.7109375 497.272460938 c 0
 61.7109375 609.73046875 144.963867188 691.802734375 253.30078125 691.802734375 c 0
 368.487304688 691.802734375 445.870117188 603.553710938 445.870117188 497.2734375 c 0
 445.870117188 387.811523438 366.774414062 301.763671875 253.30078125 301.763671875 c 0
389.029296875 497.272460938 m 0
 389.029296875 539.504882812 376.26171875 573.020507812 350.940429688 598.959960938 c 0
 325.592773438 624.92578125 293.436523438 637.90234375 253.299804688 637.90234375 c 0
 213.163085938 637.90234375 181.005859375 624.92578125 155.658203125 598.959960938 c 0
 130.336914062 573.020507812 117.569335938 539.504882812 117.569335938 497.272460938 c 0
 117.569335938 455.041992188 130.338867188 421.341796875 155.688476562 395.063476562 c 0
 181.044921875 368.780273438 213.186523438 355.662109375 253.299804688 355.662109375 c 0
 294.098632812 355.662109375 326.374023438 368.802734375 351.369140625 395.03125 c 0
 376.404296875 421.302734375 389.029296875 455.01953125 389.029296875 497.272460938 c 0
264.079101562 609.482421875 m 2
 290.02734375 609.482421875 346.889648438 602.106445312 346.889648438 537.452148438 c 0
 346.889648438 510.091796875 335.275390625 488.841796875 312.98046875 475.540039062 c 1
 356.209960938 387.022460938 l 1
 284.91015625 387.022460938 l 1
 248.650390625 463.461914062 l 1
 236.149414062 463.461914062 l 1
 236.149414062 387.022460938 l 1
 170.489257812 387.022460938 l 1
 170.489257812 609.482421875 l 1
 264.079101562 609.482421875 l 2
281.229492188 536.47265625 m 0
 281.229492188 542.41796875 280.50390625 551.662109375 261.139648438 551.662109375 c 2
 236.149414062 551.662109375 l 1
 236.149414062 521.282226562 l 1
 261.139648438 521.282226562 l 2
 280.505859375 521.282226562 281.229492188 530.529296875 281.229492188 536.47265625 c 0
EndSplineSet
EndChar

StartChar: macron
Encoding: 175 175 113
Width: 504
GlyphClass: 2
Flags: MW
HStem: 578.123 122.5<93.0703 419.41 93.0703 419.41>
VStem: 93.0703 326.34<578.123 700.623 578.123 700.623>
LayerCount: 2
Fore
SplineSet
93.0703125 700.623046875 m 1
 419.41015625 700.623046875 l 1
 419.41015625 578.123046875 l 1
 93.0703125 578.123046875 l 1
 93.0703125 700.623046875 l 1
EndSplineSet
EndChar

StartChar: degree
Encoding: 176 176 114
Width: 399
GlyphClass: 2
Flags: MW
HStem: 398.783 88.2012<199.892 218.119 199.892 253.5> 613.403 88.2002<199.892 218.119>
VStem: 57.7891 91.1396<540.483 559.902 540.483 594.5> 269.47 91.1396<540.867 559.522>
LayerCount: 2
Fore
SplineSet
360.609375 550.194335938 m 0
 360.609375 466.6640625 297.80078125 398.783203125 209.200195312 398.783203125 c 0
 166.329101562 398.783203125 129.936523438 413.264648438 101.104492188 442.096679688 c 0
 72.2724609375 470.9296875 57.7890625 507.323242188 57.7890625 550.194335938 c 0
 57.7890625 638.805664062 125.681640625 701.603515625 209.200195312 701.603515625 c 0
 294.4765625 701.603515625 360.609375 635.462890625 360.609375 550.194335938 c 0
269.469726562 550.193359375 m 0
 269.469726562 568.850585938 263.76171875 583.640625 252.384765625 595.598632812 c 0
 241.04296875 607.522460938 227.0390625 613.403320312 209.19921875 613.403320312 c 0
 190.583984375 613.403320312 176.452148438 607.591796875 165.52734375 596.092773438 c 0
 154.555664062 584.541992188 148.928710938 569.610351562 148.928710938 550.193359375 c 0
 148.928710938 530.772460938 154.556640625 515.83984375 165.526367188 504.294921875 c 0
 176.451171875 492.795898438 190.583984375 486.984375 209.19921875 486.984375 c 0
 227.0390625 486.984375 241.041992188 492.864257812 252.383789062 504.788085938 c 0
 263.762695312 516.752929688 269.469726562 531.540039062 269.469726562 550.193359375 c 0
EndSplineSet
EndChar

StartChar: plusminus
Encoding: 177 177 115
Width: 532
GlyphClass: 2
Flags: MW
HStem: -35.3564 126.42<50.9307 489.971 50.9307 489.971> 275.304 126.42<50.9307 207.73 50.9307 207.73 334.15 489.971>
VStem: 207.73 126.42<118.503 275.304 118.503 275.304 401.724 558.523>
LayerCount: 2
Fore
SplineSet
334.150390625 275.303710938 m 1
 334.150390625 118.502929688 l 1
 207.73046875 118.502929688 l 1
 207.73046875 275.303710938 l 1
 50.9306640625 275.303710938 l 1
 50.9306640625 401.723632812 l 1
 207.73046875 401.723632812 l 1
 207.73046875 558.5234375 l 1
 334.150390625 558.5234375 l 1
 334.150390625 401.723632812 l 1
 489.970703125 401.723632812 l 1
 489.970703125 275.303710938 l 1
 334.150390625 275.303710938 l 1
50.9306640625 91.0634765625 m 1
 489.970703125 91.0634765625 l 1
 489.970703125 -35.3564453125 l 1
 50.9306640625 -35.3564453125 l 1
 50.9306640625 91.0634765625 l 1
EndSplineSet
EndChar

StartChar: uni00B2
Encoding: 178 178 116
Width: 395
GlyphClass: 2
Flags: MW
HStem: 421.323 101.92<219.631 355.711 219.631 355.711> 754.523 98.9795<188.771 216.221>
VStem: 52.8906 302.82<421.323 510.102 510.102 510.102> 238.109 117.601<715.813 718.753 718.753 721.693 721.693 726.594 695.153 729.569>
LayerCount: 2
Fore
SplineSet
199.399414062 754.5234375 m 0xd0
 178.142578125 754.5234375 160.689453125 747.088867188 160.689453125 722.672851562 c 2
 160.689453125 709.443359375 l 1
 48.9697265625 709.443359375 l 1
 48.9697265625 725.61328125 l 2
 48.9697265625 764.607421875 62.564453125 796.384765625 89.7958984375 819.42578125 c 0
 117.034179688 842.473632812 154.860351562 853.502929688 202.33984375 853.502929688 c 0
 248.604492188 853.502929688 286.109375 842.0703125 313.916015625 818.435546875 c 0
 341.641601562 794.868164062 355.709960938 763.811523438 355.709960938 726.59375 c 2
 355.709960938 718.752929688 l 2xd0
 355.709960938 671.553710938 334.750976562 642.680664062 285.842773438 591.9375 c 2
 219.630859375 523.243164062 l 1
 355.7109375 523.243164062 l 1
 355.7109375 421.323242188 l 1
 52.890625 421.323242188 l 1
 52.890625 510.1015625 l 1xe0
 104.017578125 561.548828125 155.120117188 613.01953125 206.26171875 664.452148438 c 0
 230.311523438 685.96875 238.109375 700.67578125 238.109375 715.813476562 c 2
 238.109375 721.693359375 l 2
 238.109375 737.4453125 233.041992188 754.5234375 199.399414062 754.5234375 c 0xd0
EndSplineSet
EndChar

StartChar: uni00B3
Encoding: 179 179 117
Width: 389
GlyphClass: 2
Flags: MW
HStem: 414.463 97.0215<182.797 208.052 174.835 220.937> 589.884 98<156.771 186.661 186.661 187.642 156.771 186.661> 756.483 97.0195<174.119 211.019>
VStem: 46.0312 105.84<539.414 541.374 541.374 554.604 536.577 554.604> 232.231 111.72<718.753 725.613 725.613 726.594 726.594 732.275> 239.092 112.698<545.293 546.273 546.273 552.153 552.153 554.113 526.412 559.356>
LayerCount: 2
Fore
SplineSet
198.420898438 414.462890625 m 0xf4
 167.172851562 414.462890625 46.03125 415.978515625 46.03125 539.4140625 c 2
 46.03125 554.604492188 l 1
 151.87109375 554.604492188 l 1
 151.87109375 541.374023438 l 2
 151.87109375 531.779296875 153.209960938 511.484375 196.4609375 511.484375 c 0
 219.643554688 511.484375 239.091796875 519.24609375 239.091796875 545.29296875 c 2
 239.091796875 552.153320312 l 2xf4
 239.091796875 566.55859375 235.412109375 589.883789062 187.641601562 589.883789062 c 2
 156.771484375 589.883789062 l 1
 156.771484375 687.883789062 l 1
 186.661132812 687.883789062 l 2
 230.655273438 687.883789062 232.231445312 708.640625 232.231445312 718.752929688 c 2
 232.231445312 725.61328125 l 2
 232.231445312 738.936523438 228.516601562 756.483398438 193.521484375 756.483398438 c 0
 154.715820312 756.483398438 152.8515625 737.762695312 152.8515625 727.573242188 c 2
 152.8515625 713.36328125 l 1
 47.9912109375 713.36328125 l 1
 47.9912109375 726.59375 l 2
 47.9912109375 775.329101562 68.1435546875 853.502929688 197.44140625 853.502929688 c 0
 241.682617188 853.502929688 277.48828125 843.102539062 304.002929688 821.470703125 c 0
 330.580078125 799.7890625 343.951171875 769.940429688 343.951171875 733.453125 c 2
 343.951171875 726.59375 l 2xf8
 343.951171875 710.721679688 339.38671875 672.962890625 299.153320312 648.41796875 c 1
 313.936523438 641.502929688 351.790039062 617.599609375 351.790039062 554.11328125 c 2
 351.790039062 546.2734375 l 2
 351.790039062 506.55078125 337.477539062 473.970703125 308.98828125 449.997070312 c 0
 280.611328125 426.119140625 243.453125 414.462890625 198.420898438 414.462890625 c 0xf4
EndSplineSet
EndChar

StartChar: acute
Encoding: 180 180 118
Width: 504
GlyphClass: 2
Flags: MW
HStem: 576.163 145.04<238.042 243.523 120.266 394.017>
VStem: 120.266 273.751<576.163 721.203>
LayerCount: 2
Fore
SplineSet
238.041992188 721.203125 m 1
 394.016601562 721.203125 l 1
 243.5234375 576.163085938 l 1
 120.265625 576.163085938 l 1
 238.041992188 721.203125 l 1
EndSplineSet
EndChar

StartChar: uni00B5
Encoding: 181 181 119
Width: 574
GlyphClass: 2
Flags: MW
HStem: -5.95703 122.5<256.45 305.143 246.36 306.292> 504.224 20G<56.8105 193.03 193.03 193.03 390.011 526.23 526.23 526.23>
VStem: 56.8105 136.22<-152.957 9.20215 200.112 223.854 223.854 524.224> 390.011 136.22<228.753 524.224 -0.0771484 524.224>
LayerCount: 2
Fore
SplineSet
392.950195312 41.099609375 m 1
 380.806640625 28.322265625 341.64453125 -5.95703125 270.940429688 -5.95703125 c 0
 241.959960938 -5.95703125 215.92578125 -0.955078125 193.030273438 9.2021484375 c 1
 193.030273438 -152.95703125 l 1
 56.810546875 -152.95703125 l 1
 56.810546875 524.223632812 l 1
 193.030273438 524.223632812 l 1
 193.030273438 223.853515625 l 2
 193.030273438 176.37109375 206.100585938 116.54296875 286.620117188 116.54296875 c 0
 323.665039062 116.54296875 390.010742188 130.288085938 390.010742188 228.752929688 c 2
 390.010742188 524.223632812 l 1
 526.23046875 524.223632812 l 1
 526.23046875 -0.0771484375 l 1
 392.950195312 -0.0771484375 l 1
 392.950195312 41.099609375 l 1
EndSplineSet
EndChar

StartChar: paragraph
Encoding: 182 182 120
Width: 698
GlyphClass: 2
Flags: MW
HStem: 578.123 112.7<424.311 424.311 424.311 493.891>
VStem: 61.7109 362.6<440.638 508.827> 301.811 122.5<-152.957 257.694 257.694 257.694> 493.891 121.52<-152.957 578.123 578.123 578.123>
LayerCount: 2
Fore
SplineSet
424.310546875 578.123046875 m 1xb0
 424.310546875 -152.95703125 l 1
 301.810546875 -152.95703125 l 1
 301.810546875 257.694335938 l 1xb0
 227.438476562 258.546875 168.659179688 277.140625 126.43359375 314.379882812 c 0
 83.1259765625 352.571289062 61.7109375 406.54296875 61.7109375 474.733398438 c 0xd0
 61.7109375 542.920898438 83.126953125 596.747070312 126.458007812 634.619140625 c 0
 169.66015625 672.377929688 229.262695312 690.823242188 304.260742188 690.823242188 c 2
 615.41015625 690.823242188 l 1
 615.41015625 -152.95703125 l 1
 493.890625 -152.95703125 l 1
 493.890625 578.123046875 l 1
 424.310546875 578.123046875 l 1xb0
EndSplineSet
EndChar

StartChar: periodcentered
Encoding: 183 183 121
Width: 222
GlyphClass: 2
Flags: MW
HStem: 203.764 153.859<41.1309 192.051 41.1309 192.051>
VStem: 41.1309 150.92<203.764 357.623 203.764 357.623>
LayerCount: 2
Fore
SplineSet
41.130859375 357.623046875 m 1
 192.05078125 357.623046875 l 1
 192.05078125 203.763671875 l 1
 41.130859375 203.763671875 l 1
 41.130859375 357.623046875 l 1
EndSplineSet
EndChar

StartChar: cedilla
Encoding: 184 184 122
Width: 504
GlyphClass: 2
Flags: MW
HStem: -152.957 180.32<232.157 272.939 139.329 346.562>
VStem: 139.329 207.232<-152.957 27.3633>
LayerCount: 2
Fore
SplineSet
346.561523438 27.36328125 m 1
 272.939453125 -152.95703125 l 1
 139.329101562 -152.95703125 l 1
 232.157226562 27.36328125 l 1
 346.561523438 27.36328125 l 1
EndSplineSet
EndChar

StartChar: uni00B9
Encoding: 185 185 123
Width: 291
GlyphClass: 2
Flags: MW
VStem: 121.49 115.641<421.323 721.996 721.996 721.996>
LayerCount: 2
Fore
SplineSet
34.2705078125 673.975585938 m 1
 34.2705078125 794.594726562 l 1
 126.916992188 846.643554688 l 1
 237.130859375 846.643554688 l 1
 237.130859375 421.323242188 l 1
 121.490234375 421.323242188 l 1
 121.490234375 721.99609375 l 1
 34.2705078125 673.975585938 l 1
EndSplineSet
EndChar

StartChar: ordmasculine
Encoding: 186 186 124
Width: 383
GlyphClass: 2
Flags: MW
HStem: 417.403 93.0986<173.63 203.522 173.63 219.989> 654.563 93.0986<184.354 218.58>
VStem: 41.1309 101.92<568.812 569.792 569.792 600.172 557.806 623.418> 249.87 101.92<569.793 600.172 544.928 600.173 544.928 612.502>
LayerCount: 2
Fore
SplineSet
196.4609375 417.403320312 m 0
 142.247070312 417.403320312 41.130859375 435.299804688 41.130859375 568.8125 c 2
 41.130859375 600.171875 l 2
 41.130859375 646.6640625 54.73828125 683.591796875 82.6923828125 709.448242188 c 0
 110.51953125 735.188476562 148.819335938 747.662109375 196.4609375 747.662109375 c 0
 244.1015625 747.662109375 282.401367188 735.188476562 310.228515625 709.448242188 c 0
 338.182617188 683.591796875 351.790039062 646.6640625 351.790039062 600.171875 c 2
 351.790039062 568.8125 l 2
 351.790039062 521.04296875 338.045898438 483.15625 309.77734375 456.6328125 c 0
 281.671875 430.262695312 243.517578125 417.403320312 196.4609375 417.403320312 c 0
196.4609375 510.501953125 m 0
 210.583984375 510.501953125 249.870117188 513.630859375 249.870117188 569.79296875 c 2
 249.870117188 600.172851562 l 2
 249.870117188 624.831054688 240.69921875 654.563476562 196.4609375 654.563476562 c 0
 172.248046875 654.563476562 143.05078125 645.223632812 143.05078125 600.171875 c 2
 143.05078125 569.791992188 l 2
 143.05078125 545.819335938 150.798828125 510.501953125 196.4609375 510.501953125 c 0
EndSplineSet
EndChar

StartChar: guillemotright
Encoding: 187 187 125
Width: 584
GlyphClass: 2
Flags: W
LayerCount: 2
Fore
SplineSet
56.810546875 27.1513671875 m 1
 56.810546875 169.375 l 1
 167.637695312 265.993164062 l 1
 56.810546875 362.611328125 l 1
 56.810546875 504.834960938 l 1
 325.112304688 265.993164062 l 1
 56.810546875 27.1513671875 l 1
306.7109375 362.630859375 m 1
 306.7109375 504.834960938 l 1
 575.012695312 265.993164062 l 1
 306.7109375 27.1513671875 l 1
 306.7109375 169.35546875 l 1
 416.611328125 265.993164062 l 1
 306.7109375 362.630859375 l 1
EndSplineSet
EndChar

StartChar: onequarter
Encoding: 188 188 126
Width: 857
GlyphClass: 3
Flags: MW
HStem: -0.0771484 21G<118.38 118.38 118.38 234.786 686.95 686.95 686.95 802.591> 55.7832 101.92<617.896 686.95 617.896 686.95 802.591 831.99> 675.724 20G<561.89 679.298 679.298 679.298>
VStem: 121.49 115.641<265.503 566.176 566.176 566.176> 686.95 115.641<-0.0771484 55.7832 -0.0771484 55.7832 157.703 243.943>
LayerCount: 2
Fore
SplineSet
118.379882812 -0.0771484375 m 1
 561.889648438 695.723632812 l 1
 679.297851562 695.723632812 l 1
 234.786132812 -0.0771484375 l 1
 118.379882812 -0.0771484375 l 1
34.2705078125 518.15625 m 1
 34.2705078125 638.774414062 l 1
 126.916992188 690.823242188 l 1
 237.130859375 690.823242188 l 1
 237.130859375 265.502929688 l 1
 121.490234375 265.502929688 l 1
 121.490234375 566.17578125 l 1
 34.2705078125 518.15625 l 1
802.590820312 157.703125 m 1
 831.990234375 157.703125 l 1
 831.990234375 55.783203125 l 1
 802.590820312 55.783203125 l 1
 802.590820312 -0.0771484375 l 1
 686.950195312 -0.0771484375 l 1
 686.950195312 55.783203125 l 1
 495.850585938 55.783203125 l 1
 495.850585938 152.061523438 l 1
 629.939453125 425.243164062 l 1
 749.216796875 425.243164062 l 1
 617.896484375 157.703125 l 1
 686.950195312 157.703125 l 1
 686.950195312 243.943359375 l 1
 802.590820312 243.943359375 l 1
 802.590820312 157.703125 l 1
EndSplineSet
Ligature2: "'frac' Diagonal Fractions lookup 2 subtable" one slash four
EndChar

StartChar: onehalf
Encoding: 189 189 127
Width: 879
GlyphClass: 3
Flags: MW
HStem: -0.0771484 101.921<701.791 837.87 701.791 837.87> 333.123 98.9805<670.932 698.382> 675.724 20G<561.89 679.298 679.298 679.298>
VStem: 121.49 115.641<265.503 566.176 566.176 566.176> 535.051 302.819<-0.0771484 88.7021 88.7021 88.7021> 720.271 117.6<294.413 297.354 297.354 300.293 300.293 305.193>
LayerCount: 2
Fore
SplineSet
561.889648438 695.723632812 m 1xf0
 679.297851562 695.723632812 l 1
 234.786132812 -0.0771484375 l 1
 118.379882812 -0.0771484375 l 1
 561.889648438 695.723632812 l 1xf0
34.2705078125 518.15625 m 1
 34.2705078125 638.774414062 l 1
 126.916992188 690.823242188 l 1
 237.130859375 690.823242188 l 1
 237.130859375 265.502929688 l 1
 121.490234375 265.502929688 l 1
 121.490234375 566.17578125 l 1
 34.2705078125 518.15625 l 1
681.560546875 333.123046875 m 0
 660.303710938 333.123046875 642.850585938 325.689453125 642.850585938 301.2734375 c 2
 642.850585938 288.04296875 l 1
 531.130859375 288.04296875 l 1
 531.130859375 304.212890625 l 2
 531.130859375 343.20703125 544.725585938 374.984375 571.95703125 398.026367188 c 0
 599.1953125 421.073242188 637.021484375 432.103515625 684.5 432.103515625 c 0
 730.764648438 432.103515625 768.270507812 420.670898438 796.076171875 397.03515625 c 0
 823.802734375 373.467773438 837.870117188 342.412109375 837.870117188 305.193359375 c 2
 837.870117188 297.353515625 l 2xf8
 837.870117188 250.159179688 816.921875 221.291015625 768.002929688 170.538085938 c 2
 701.791015625 101.84375 l 1
 837.870117188 101.84375 l 1xf4
 837.870117188 -0.0771484375 l 1
 535.05078125 -0.0771484375 l 1
 535.05078125 88.7021484375 l 1xf8
 586.177734375 140.149414062 637.28125 191.620117188 688.422851562 243.051757812 c 0
 712.471679688 264.568359375 720.270507812 279.276367188 720.270507812 294.413085938 c 2
 720.270507812 300.29296875 l 2xf4
 720.270507812 316.045898438 715.203125 333.123046875 681.560546875 333.123046875 c 0
EndSplineSet
Ligature2: "'frac' Diagonal Fractions lookup 2 subtable" one slash two
EndChar

StartChar: threequarters
Encoding: 190 190 128
Width: 949
GlyphClass: 3
Flags: MW
HStem: -0.0771484 21G<209.521 209.521 209.521 325.928 778.092 778.092 778.092 893.731> 55.7832 101.92<709.037 778.092 709.037 778.092 893.731 923.132> 258.644 97.0195<182.804 208.052 174.824 220.938> 434.063 98<156.771 186.661 186.661 187.642 156.771 186.661> 600.663 97.0205<174.119 211.019>
VStem: 46.0312 105.84<383.594 385.554 385.554 398.783 380.771 398.783> 232.231 111.72<562.934 569.793 569.793 570.773 570.773 576.455> 239.092 112.698<389.474 390.453 390.453 396.333 396.333 398.293 370.592 403.536> 778.092 115.64<-0.0771484 55.7832 -0.0771484 55.7832 157.703 243.943>
LayerCount: 2
Fore
SplineSet
299.565429688 492.403320312 m 1xfe80
 314.311523438 485.4140625 351.790039062 461.436523438 351.790039062 398.29296875 c 2
 351.790039062 390.453125 l 2
 351.790039062 350.73046875 337.477539062 318.150390625 308.98828125 294.177734375 c 0
 280.611328125 270.298828125 243.454101562 258.643554688 198.421875 258.643554688 c 0
 167.186523438 258.643554688 46.03125 260.154296875 46.03125 383.59375 c 2
 46.03125 398.783203125 l 1
 151.87109375 398.783203125 l 1
 151.87109375 385.553710938 l 2
 151.87109375 375.98828125 153.1875 355.663085938 196.4609375 355.663085938 c 0
 219.643554688 355.663085938 239.091796875 363.42578125 239.091796875 389.473632812 c 2
 239.091796875 396.333007812 l 2xfd80
 239.091796875 410.73828125 235.412109375 434.063476562 187.641601562 434.063476562 c 2
 156.771484375 434.063476562 l 1
 156.771484375 532.063476562 l 1
 186.661132812 532.063476562 l 2
 230.655273438 532.063476562 232.231445312 552.8203125 232.231445312 562.93359375 c 2
 232.231445312 569.79296875 l 2
 232.231445312 583.1171875 228.516601562 600.663085938 193.521484375 600.663085938 c 0
 154.715820312 600.663085938 152.8515625 581.943359375 152.8515625 571.752929688 c 2
 152.8515625 557.54296875 l 1
 47.9912109375 557.54296875 l 1
 47.9912109375 570.7734375 l 2
 47.9912109375 619.508789062 68.1435546875 697.68359375 197.44140625 697.68359375 c 0
 241.682617188 697.68359375 277.48828125 687.282226562 304.002929688 665.651367188 c 0
 330.580078125 643.96875 343.951171875 614.120117188 343.951171875 577.633789062 c 2
 343.951171875 570.7734375 l 2
 343.951171875 542.536132812 330.8828125 511.030273438 299.565429688 492.403320312 c 1xfe80
209.520507812 -0.0771484375 m 1
 653.030273438 695.723632812 l 1
 770.438476562 695.723632812 l 1
 325.927734375 -0.0771484375 l 1
 209.520507812 -0.0771484375 l 1
893.731445312 157.703125 m 1
 923.131835938 157.703125 l 1
 923.131835938 55.783203125 l 1
 893.731445312 55.783203125 l 1
 893.731445312 -0.0771484375 l 1
 778.091796875 -0.0771484375 l 1
 778.091796875 55.783203125 l 1
 586.991210938 55.783203125 l 1
 586.991210938 152.061523438 l 1
 721.081054688 425.243164062 l 1
 840.357421875 425.243164062 l 1
 709.037109375 157.703125 l 1
 778.091796875 157.703125 l 1
 778.091796875 243.943359375 l 1
 893.731445312 243.943359375 l 1
 893.731445312 157.703125 l 1
EndSplineSet
Ligature2: "'frac' Diagonal Fractions lookup 2 subtable" three slash four
EndChar

StartChar: questiondown
Encoding: 191 191 129
Width: 504
GlyphClass: 2
Flags: MW
HStem: -162.757 124.46<229.894 304.531 229.894 366.997> 384.083 140.141<193.03 336.11 193.03 336.11>
VStem: 37.2109 140.14<9.99902 40.3975 9.99902 60.877> 193.03 143.08<384.083 524.224 384.083 524.224> 349.031 133.253<40.1035 40.1035>
LayerCount: 2
Fore
SplineSet
193.030273438 524.223632812 m 1
 336.110351562 524.223632812 l 1
 336.110351562 384.083007812 l 1
 193.030273438 384.083007812 l 1
 193.030273438 524.223632812 l 1
177.350585938 26.873046875 m 0
 177.350585938 -6.875 195.708984375 -38.296875 264.079101562 -38.296875 c 0
 344.983398438 -38.296875 348.205078125 7.0888671875 349.03125 40.103515625 c 1
 482.284179688 40.103515625 l 1
 481.006835938 -21.197265625 471.875 -162.756835938 262.119140625 -162.756835938 c 0
 193.090820312 -162.756835938 138.03515625 -146.997070312 97.7763671875 -114.583984375 c 0
 57.4306640625 -82.1015625 37.2109375 -37.03125 37.2109375 19.0341796875 c 0
 37.2109375 102.719726562 81.7060546875 147.876953125 106.168945312 170.408203125 c 0
 106.223632812 170.458984375 155.208984375 216.505859375 155.208984375 216.505859375 c 2
 187.833984375 246.71484375 196.950195312 266.578125 196.950195312 309.11328125 c 2
 196.950195312 333.123046875 l 1
 333.170898438 333.123046875 l 1
 333.170898438 294.413085938 l 2
 333.170898438 261.169921875 329.260742188 234.640625 320.837890625 214.635742188 c 0
 312.3671875 194.518554688 295.6796875 173.490234375 271.065429688 150.87109375 c 0
 271.010742188 150.8203125 224.025390625 106.771484375 223.892578125 106.649414062 c 0
 188.56640625 75.1083984375 177.350585938 53.921875 177.350585938 26.873046875 c 0
EndSplineSet
EndChar

StartChar: Agrave
Encoding: 192 192 130
Width: 681
GlyphClass: 2
Flags: MW
HStem: -0.0771484 21G<4.2002 4.2002 4.2002 157.464 532.396 532.396 532.396 685.66> 131.243 121.521<252.135 437.69 252.135 483.396 206.464 437.69> 670.823 20G<287.569 402.291 402.291 402.291>
LayerCount: 2
Fore
SplineSet
4.2001953125 -0.0771484375 m 1
 287.569335938 690.823242188 l 1
 402.291015625 690.823242188 l 1
 685.66015625 -0.0771484375 l 1
 532.396484375 -0.0771484375 l 1
 483.396484375 131.243164062 l 1
 206.463867188 131.243164062 l 1
 157.463867188 -0.0771484375 l 1
 4.2001953125 -0.0771484375 l 1
252.134765625 252.763671875 m 1
 437.690429688 252.763671875 l 1
 344.47265625 499.87890625 l 1
 252.134765625 252.763671875 l 1
147.995117188 887.803710938 m 1
 317.326171875 887.803710938 l 1
 448.189453125 742.763671875 l 1
 319.208007812 742.763671875 l 1
 147.995117188 887.803710938 l 1
EndSplineSet
EndChar

StartChar: Aacute
Encoding: 193 193 131
Width: 681
GlyphClass: 2
Flags: MW
HStem: -0.0771484 21G<4.2002 4.2002 4.2002 157.464 532.396 532.396 532.396 685.66> 131.243 121.521<252.135 437.69 252.135 483.396 206.464 437.69> 670.823 20G<287.569 402.291 402.291 402.291>
LayerCount: 2
Fore
SplineSet
4.2001953125 -0.0771484375 m 1
 287.569335938 690.823242188 l 1
 402.291015625 690.823242188 l 1
 685.66015625 -0.0771484375 l 1
 532.396484375 -0.0771484375 l 1
 483.396484375 131.243164062 l 1
 206.463867188 131.243164062 l 1
 157.463867188 -0.0771484375 l 1
 4.2001953125 -0.0771484375 l 1
252.134765625 252.763671875 m 1
 437.690429688 252.763671875 l 1
 344.47265625 499.87890625 l 1
 252.134765625 252.763671875 l 1
508.545898438 887.803710938 m 1
 337.333007812 742.763671875 l 1
 208.3515625 742.763671875 l 1
 339.21484375 887.803710938 l 1
 508.545898438 887.803710938 l 1
EndSplineSet
EndChar

StartChar: Acircumflex
Encoding: 194 194 132
Width: 681
GlyphClass: 2
Flags: MW
HStem: -0.0771484 21G<4.2002 4.2002 4.2002 157.464 532.396 532.396 532.396 685.66> 131.243 121.521<252.135 437.69 252.135 483.396 206.464 437.69> 670.823 20G<287.569 402.291 402.291 402.291>
LayerCount: 2
Fore
SplineSet
4.2001953125 -0.0771484375 m 1
 287.569335938 690.823242188 l 1
 402.291015625 690.823242188 l 1
 685.66015625 -0.0771484375 l 1
 532.396484375 -0.0771484375 l 1
 483.396484375 131.243164062 l 1
 206.463867188 131.243164062 l 1
 157.463867188 -0.0771484375 l 1
 4.2001953125 -0.0771484375 l 1
252.134765625 252.763671875 m 1
 437.690429688 252.763671875 l 1
 344.47265625 499.87890625 l 1
 252.134765625 252.763671875 l 1
297.0546875 894.663085938 m 1
 392.806640625 894.663085938 l 1
 538.249023438 731.983398438 l 1
 416.747070312 731.983398438 l 1
 345.385742188 807.100585938 l 1
 273.0859375 731.983398438 l 1
 151.612304688 731.983398438 l 1
 297.0546875 894.663085938 l 1
EndSplineSet
EndChar

StartChar: Atilde
Encoding: 195 195 133
Width: 681
GlyphClass: 2
Flags: MW
HStem: -0.0771484 21G<4.2002 4.2002 4.2002 157.464 532.396 532.396 532.396 685.66> 131.243 121.521<252.135 437.69 252.135 483.396 206.464 437.69> 670.823 20G<287.569 402.291 402.291 402.291> 737.863 106.819<398.436 433.512> 775.104 106.817<257.52 281.983>
LayerCount: 2
Fore
SplineSet
4.2001953125 -0.0771484375 m 1xe0
 287.569335938 690.823242188 l 1
 402.291015625 690.823242188 l 1
 685.66015625 -0.0771484375 l 1
 532.396484375 -0.0771484375 l 1
 483.396484375 131.243164062 l 1
 206.463867188 131.243164062 l 1
 157.463867188 -0.0771484375 l 1
 4.2001953125 -0.0771484375 l 1xe0
252.134765625 252.763671875 m 1
 437.690429688 252.763671875 l 1
 344.47265625 499.87890625 l 1
 252.134765625 252.763671875 l 1
278.78125 881.921875 m 0xe8
 344.575195312 881.921875 368.696289062 844.682617188 418.921875 844.682617188 c 0
 448.546875 844.682617188 465.159179688 857.294921875 508.590820312 891.7421875 c 1
 508.590820312 783.23828125 l 1
 480.311523438 756.127929688 454.962890625 737.86328125 412.060546875 737.86328125 c 0xf0
 384.811523438 737.86328125 373.180664062 741.403320312 316.087890625 765.3984375 c 0
 306.49609375 769.481445312 291.06640625 775.104492188 272.900390625 775.104492188 c 0
 242.138671875 775.104492188 222.80078125 760.939453125 181.270507812 729.432617188 c 1
 181.270507812 836.547851562 l 1
 210.848632812 864.892578125 235.665039062 881.921875 278.78125 881.921875 c 0xe8
EndSplineSet
EndChar

StartChar: Adieresis
Encoding: 196 196 134
Width: 681
GlyphClass: 2
Flags: MW
HStem: -0.0771484 21G<4.2002 4.2002 4.2002 157.464 532.396 532.396 532.396 685.66> 131.243 121.521<252.135 437.69 252.135 483.396 206.464 437.69> 670.823 20G<287.569 402.291 402.291 402.291> 741.783 128.38<172.45 292.011 172.45 292.011 172.45 397.851 397.851 517.41>
VStem: 172.45 119.561<741.783 870.163 741.783 870.163> 397.851 119.56<741.783 870.163 741.783 870.163>
LayerCount: 2
Fore
SplineSet
4.2001953125 -0.0771484375 m 1
 287.569335938 690.823242188 l 1
 402.291015625 690.823242188 l 1
 685.66015625 -0.0771484375 l 1
 532.396484375 -0.0771484375 l 1
 483.396484375 131.243164062 l 1
 206.463867188 131.243164062 l 1
 157.463867188 -0.0771484375 l 1
 4.2001953125 -0.0771484375 l 1
252.134765625 252.763671875 m 1
 437.690429688 252.763671875 l 1
 344.47265625 499.87890625 l 1
 252.134765625 252.763671875 l 1
172.450195312 870.163085938 m 1
 292.010742188 870.163085938 l 1
 292.010742188 741.783203125 l 1
 172.450195312 741.783203125 l 1
 172.450195312 870.163085938 l 1
397.850585938 870.163085938 m 1
 517.41015625 870.163085938 l 1
 517.41015625 741.783203125 l 1
 397.850585938 741.783203125 l 1
 397.850585938 870.163085938 l 1
EndSplineSet
EndChar

StartChar: Aring
Encoding: 197 197 135
Width: 681
GlyphClass: 2
Flags: MW
HStem: -0.0742188 21G<4.19434 157.464 4.19434 4.19434> 131.246 121.521<252.135 252.62> 810.386 68.5986<333.899 356.548>
VStem: 237.131 70.5596<758.419 781.155 758.419 785.252> 384.131 69.5801<761.531 781.607>
LayerCount: 2
Fore
SplineSet
453.7109375 769.713867188 m 0
 453.7109375 753.348632812 449.625 707.541992188 406.545898438 679.477539062 c 1
 685.666015625 -0.0771484375 l 1
 532.396484375 -0.0771484375 l 1
 483.396484375 131.243164062 l 1
 391.0859375 131.243164062 298.775390625 131.24609375 206.463867188 131.24609375 c 1
 157.463867188 -0.07421875 l 1
 4.1943359375 -0.07421875 l 1
 283.381835938 679.645507812 l 1
 266.60546875 691.174804688 237.130859375 718.689453125 237.130859375 769.713867188 c 0
 237.130859375 800.791015625 247.502929688 827.228515625 268.194335938 847.920898438 c 0
 288.8515625 868.578125 314.951171875 878.984375 345.420898438 878.984375 c 0
 375.889648438 878.984375 401.989257812 868.578125 422.646484375 847.920898438 c 0
 443.337890625 827.228515625 453.7109375 800.791015625 453.7109375 769.713867188 c 0
345.420898438 810.385742188 m 0
 322.377929688 810.385742188 307.690429688 792.594726562 307.690429688 769.715820312 c 0
 307.690429688 747.123046875 324.538085938 730.02734375 345.420898438 730.02734375 c 0
 368.4140625 730.02734375 384.130859375 747.985351562 384.130859375 769.715820312 c 0
 384.130859375 793.499023438 367.67578125 810.385742188 345.420898438 810.385742188 c 0
252.134765625 252.766601562 m 1
 437.690429688 252.766601562 l 1
 344.47265625 499.881835938 l 1
 252.134765625 252.766601562 l 1
EndSplineSet
EndChar

StartChar: AE
Encoding: 198 198 136
Width: 991
GlyphClass: 2
Flags: MW
HStem: -0.0771484 126.421<609.53 959.391 609.53 959.391> 138.104 121.52<305.961 465.471 305.961 465.471 239.015 465.471> 285.104 126.42<609.53 909.41 609.53 909.41> 564.403 126.42<609.53 959.391 609.53 609.53>
VStem: 465.471 144.06<126.344 138.104 138.104 138.104 259.623 285.104 411.523 547.263 547.263 547.263>
LayerCount: 2
Fore
SplineSet
2.419921875 -0.0771484375 m 1
 401.940429688 690.823242188 l 1
 959.390625 690.823242188 l 1
 959.390625 564.403320312 l 1
 609.530273438 564.403320312 l 1
 609.530273438 411.5234375 l 1
 909.41015625 411.5234375 l 1
 909.41015625 285.103515625 l 1
 609.530273438 285.103515625 l 1
 609.530273438 126.34375 l 1
 959.390625 126.34375 l 1
 959.390625 -0.0771484375 l 1
 465.470703125 -0.0771484375 l 1
 465.470703125 138.103515625 l 1
 239.014648438 138.103515625 l 1
 162.57421875 -0.0771484375 l 1
 2.419921875 -0.0771484375 l 1
465.470703125 259.623046875 m 1
 465.470703125 547.262695312 l 1
 305.9609375 259.623046875 l 1
 465.470703125 259.623046875 l 1
EndSplineSet
EndChar

StartChar: Ccedilla
Encoding: 199 199 137
Width: 673
GlyphClass: 2
Flags: MW
HStem: 576.163 127.4<308.17 376.203>
VStem: 57.79 144.062<293.433 295.394 295.394 392.413 237.331 399.272 237.331 449.201> 490.951 142.101<231.693 243.943 198.962 243.943>
LayerCount: 2
Fore
SplineSet
201.8515625 295.393554688 m 2
 201.8515625 179.268554688 248.963867188 119.483398438 355.221679688 119.483398438 c 0
 399.186523438 119.483398438 432.4140625 129.831054688 455.834960938 149.6015625 c 0
 479.20703125 169.331054688 490.951171875 196.177734375 490.951171875 231.693359375 c 2
 490.951171875 243.943359375 l 1
 633.051757812 243.943359375 l 1
 633.051757812 231.693359375 l 2
 633.051757812 166.23046875 614.060546875 112.271484375 575.724609375 70.880859375 c 0
 538.296875 30.47265625 487.166015625 5.19140625 423.186523438 -5.2236328125 c 1
 363.108398438 -152.95703125 l 1
 229.5390625 -152.95703125 l 1
 303.583007812 -7.8310546875 l 1
 228.2578125 0.421875 168.473632812 28.7197265625 125.301757812 77.3681640625 c 0
 79.951171875 128.471679688 57.7900390625 200.842773438 57.7900390625 293.432617188 c 2
 57.7900390625 399.272460938 l 2
 57.7900390625 499.129882812 83.62109375 575.51953125 136.453125 626.997070312 c 0
 189.088867188 678.284179688 262.100585938 703.563476562 354.240234375 703.563476562 c 0
 438.404296875 703.563476562 506.409179688 682.81640625 557.373046875 640.626953125 c 0
 608.516601562 598.2890625 634.030273438 539.19140625 634.030273438 464.93359375 c 2
 634.030273438 449.743164062 l 1
 490.948242188 449.743164062 l 1
 490.948242188 461.013671875 l 2
 490.948242188 497.19140625 479.030273438 524.719726562 455.295898438 545.106445312 c 0
 431.526367188 565.5234375 398.1640625 576.163085938 354.241210938 576.163085938 c 0
 258.588867188 576.163085938 201.8515625 525.948242188 201.8515625 392.413085938 c 2
 201.8515625 295.393554688 l 2
EndSplineSet
EndChar

StartChar: Egrave
Encoding: 200 200 138
Width: 589
GlyphClass: 2
Flags: MW
HStem: -0.0771484 126.421<204.79 559.551 204.79 559.551> 285.104 126.42<204.79 509.57 204.79 509.57> 564.403 126.42<204.79 559.551 204.79 204.79>
VStem: 61.7109 143.079<126.344 126.344 126.344 285.104 411.523 564.403>
LayerCount: 2
Fore
SplineSet
204.790039062 126.34375 m 1
 559.55078125 126.34375 l 1
 559.55078125 -0.0771484375 l 1
 61.7109375 -0.0771484375 l 1
 61.7109375 690.823242188 l 1
 559.55078125 690.823242188 l 1
 559.55078125 564.403320312 l 1
 204.790039062 564.403320312 l 1
 204.790039062 411.5234375 l 1
 509.5703125 411.5234375 l 1
 509.5703125 285.103515625 l 1
 204.790039062 285.103515625 l 1
 204.790039062 126.34375 l 1
108.794921875 887.803710938 m 1
 278.126953125 887.803710938 l 1
 408.989257812 742.763671875 l 1
 280.0078125 742.763671875 l 1
 108.794921875 887.803710938 l 1
EndSplineSet
EndChar

StartChar: Eacute
Encoding: 201 201 139
Width: 589
GlyphClass: 2
Flags: MW
HStem: -0.0771484 126.421<204.79 559.551 204.79 559.551> 285.104 126.42<204.79 509.57 204.79 509.57> 564.403 126.42<204.79 559.551 204.79 204.79>
VStem: 61.7109 143.079<126.344 126.344 126.344 285.104 411.523 564.403>
LayerCount: 2
Fore
SplineSet
204.790039062 126.34375 m 1
 559.55078125 126.34375 l 1
 559.55078125 -0.0771484375 l 1
 61.7109375 -0.0771484375 l 1
 61.7109375 690.823242188 l 1
 559.55078125 690.823242188 l 1
 559.55078125 564.403320312 l 1
 204.790039062 564.403320312 l 1
 204.790039062 411.5234375 l 1
 509.5703125 411.5234375 l 1
 509.5703125 285.103515625 l 1
 204.790039062 285.103515625 l 1
 204.790039062 126.34375 l 1
337.25390625 887.803710938 m 1
 506.5859375 887.803710938 l 1
 335.373046875 742.763671875 l 1
 206.391601562 742.763671875 l 1
 337.25390625 887.803710938 l 1
EndSplineSet
EndChar

StartChar: Ecircumflex
Encoding: 202 202 140
Width: 589
GlyphClass: 2
Flags: MW
HStem: -0.0771484 126.421<204.79 559.551 204.79 559.551> 285.104 126.42<204.79 509.57 204.79 509.57> 564.403 126.42<204.79 559.551 204.79 204.79>
VStem: 61.7109 143.079<126.344 126.344 126.344 285.104 411.523 564.403>
LayerCount: 2
Fore
SplineSet
204.790039062 126.34375 m 1
 559.55078125 126.34375 l 1
 559.55078125 -0.0771484375 l 1
 61.7109375 -0.0771484375 l 1
 61.7109375 690.823242188 l 1
 559.55078125 690.823242188 l 1
 559.55078125 564.403320312 l 1
 204.790039062 564.403320312 l 1
 204.790039062 411.5234375 l 1
 509.5703125 411.5234375 l 1
 509.5703125 285.103515625 l 1
 204.790039062 285.103515625 l 1
 204.790039062 126.34375 l 1
257.854492188 894.663085938 m 1
 353.606445312 894.663085938 l 1
 499.048828125 731.983398438 l 1
 377.546875 731.983398438 l 1
 306.185546875 807.100585938 l 1
 233.885742188 731.983398438 l 1
 112.412109375 731.983398438 l 1
 257.854492188 894.663085938 l 1
EndSplineSet
EndChar

StartChar: Edieresis
Encoding: 203 203 141
Width: 589
GlyphClass: 2
Flags: MW
HStem: -0.0771484 126.421<204.79 559.551 204.79 559.551> 285.104 126.42<204.79 509.57 204.79 509.57> 564.403 126.42<204.79 559.551 204.79 204.79> 741.783 128.38<133.25 252.811 133.25 252.811 133.25 358.65 358.65 478.211>
VStem: 61.7109 143.079<126.344 126.344 126.344 285.104 411.523 564.403> 133.25 119.561<741.783 870.163 741.783 870.163> 358.65 119.561<741.783 870.163 741.783 870.163>
LayerCount: 2
Fore
SplineSet
204.790039062 126.34375 m 1xfa
 559.55078125 126.34375 l 1
 559.55078125 -0.0771484375 l 1
 61.7109375 -0.0771484375 l 1
 61.7109375 690.823242188 l 1
 559.55078125 690.823242188 l 1
 559.55078125 564.403320312 l 1
 204.790039062 564.403320312 l 1
 204.790039062 411.5234375 l 1
 509.5703125 411.5234375 l 1
 509.5703125 285.103515625 l 1
 204.790039062 285.103515625 l 1
 204.790039062 126.34375 l 1xfa
133.25 870.163085938 m 1xf6
 252.810546875 870.163085938 l 1
 252.810546875 741.783203125 l 1
 133.25 741.783203125 l 1
 133.25 870.163085938 l 1xf6
358.650390625 870.163085938 m 1
 478.2109375 870.163085938 l 1
 478.2109375 741.783203125 l 1
 358.650390625 741.783203125 l 1
 358.650390625 870.163085938 l 1
EndSplineSet
EndChar

StartChar: Igrave
Encoding: 204 204 142
Width: 268
GlyphClass: 2
Flags: MW
HStem: -0.0771484 21G<67.5908 210.671 67.5908 67.5908> 670.823 20G<67.5908 210.671 210.671 210.671>
VStem: 67.5908 143.08<-0.0771484 690.823 -0.0771484 690.823>
LayerCount: 2
Fore
SplineSet
67.5908203125 690.823242188 m 1
 210.670898438 690.823242188 l 1
 210.670898438 -0.0771484375 l 1
 67.5908203125 -0.0771484375 l 1
 67.5908203125 690.823242188 l 1
-58.78515625 887.803710938 m 1
 110.546875 887.803710938 l 1
 241.41015625 742.763671875 l 1
 112.427734375 742.763671875 l 1
 -58.78515625 887.803710938 l 1
EndSplineSet
EndChar

StartChar: Iacute
Encoding: 205 205 143
Width: 268
GlyphClass: 2
Flags: MW
HStem: -0.0771484 21G<67.5908 210.671 67.5908 67.5908> 670.823 20G<67.5908 210.671 210.671 210.671>
VStem: 67.5908 143.08<-0.0771484 690.823 -0.0771484 690.823>
LayerCount: 2
Fore
SplineSet
67.5908203125 690.823242188 m 1
 210.670898438 690.823242188 l 1
 210.670898438 -0.0771484375 l 1
 67.5908203125 -0.0771484375 l 1
 67.5908203125 690.823242188 l 1
169.674804688 887.803710938 m 1
 339.005859375 887.803710938 l 1
 167.79296875 742.763671875 l 1
 38.8115234375 742.763671875 l 1
 169.674804688 887.803710938 l 1
EndSplineSet
EndChar

StartChar: Icircumflex
Encoding: 206 206 144
Width: 268
GlyphClass: 2
Flags: MW
HStem: -0.0771484 21G<67.5908 210.671 67.5908 67.5908> 670.823 20G<67.5908 210.671 210.671 210.671>
VStem: 67.5908 143.08<-0.0771484 690.823 -0.0771484 690.823>
LayerCount: 2
Fore
SplineSet
67.5908203125 690.823242188 m 1
 210.670898438 690.823242188 l 1
 210.670898438 -0.0771484375 l 1
 67.5908203125 -0.0771484375 l 1
 67.5908203125 690.823242188 l 1
90.2744140625 894.663085938 m 1
 186.026367188 894.663085938 l 1
 331.46875 731.983398438 l 1
 209.966796875 731.983398438 l 1
 138.60546875 807.100585938 l 1
 66.3056640625 731.983398438 l 1
 -55.16796875 731.983398438 l 1
 90.2744140625 894.663085938 l 1
EndSplineSet
EndChar

StartChar: Idieresis
Encoding: 207 207 145
Width: 268
GlyphClass: 2
Flags: MW
HStem: -0.0771484 21G<67.5908 210.671 67.5908 67.5908> 670.823 20G<67.5908 210.671 210.671 210.671> 741.783 128.38<-34.3291 85.2305 -34.3291 85.2305 -34.3291 191.07 191.07 310.631>
VStem: -34.3291 119.56<741.783 870.163 741.783 870.163> 67.5908 143.08<-0.0771484 690.823 -0.0771484 690.823> 191.07 119.561<741.783 870.163 741.783 870.163>
LayerCount: 2
Fore
SplineSet
67.5908203125 690.823242188 m 1xe8
 210.670898438 690.823242188 l 1
 210.670898438 -0.0771484375 l 1
 67.5908203125 -0.0771484375 l 1
 67.5908203125 690.823242188 l 1xe8
-34.3291015625 870.163085938 m 1xf0
 85.23046875 870.163085938 l 1
 85.23046875 741.783203125 l 1
 -34.3291015625 741.783203125 l 1
 -34.3291015625 870.163085938 l 1xf0
191.0703125 870.163085938 m 1xe4
 310.630859375 870.163085938 l 1
 310.630859375 741.783203125 l 1
 191.0703125 741.783203125 l 1
 191.0703125 870.163085938 l 1xe4
EndSplineSet
EndChar

StartChar: Eth
Encoding: 208 208 146
Width: 694
GlyphClass: 2
Flags: MW
HStem: -0.0771484 126.423<236.149 359.141> 288.045 127.4<236.149 390.01 236.149 390.01> 564.405 126.418<236.149 363.06 236.149 236.149>
VStem: 93.0703 143.079<126.346 288.043 288.043 288.043 415.445 564.405> 511.529 143.08<304.214 380.654 380.654 387.515 253.337 443.838>
LayerCount: 2
Fore
SplineSet
654.609375 387.514648438 m 2
 654.609375 304.213867188 l 2
 654.609375 202.4609375 629.163085938 125.559570312 576.908203125 75.0009765625 c 0
 524.889648438 24.6708984375 451.885742188 -0.0771484375 359.140625 -0.0771484375 c 2
 93.0703125 -0.0771484375 l 1
 93.0703125 288.04296875 l 1
 30.3505859375 288.04296875 l 1
 30.3505859375 415.443359375 l 1
 93.0703125 415.443359375 l 1
 93.0703125 690.823242188 l 1
 364.040039062 690.823242188 l 2
 455.489257812 690.823242188 527.373046875 666.228515625 578.4140625 616.202148438 c 0
 629.682617188 565.951171875 654.609375 489.237304688 654.609375 387.514648438 c 2
363.059570312 126.345703125 m 2
 464.217773438 126.345703125 511.529296875 180.19140625 511.529296875 304.213867188 c 2
 511.529296875 380.654296875 l 2
 511.529296875 507.022460938 466.461914062 564.405273438 363.059570312 564.405273438 c 2
 236.149414062 564.405273438 l 1
 236.149414062 415.4453125 l 1
 390.009765625 415.4453125 l 1
 390.009765625 288.044921875 l 1
 236.149414062 288.044921875 l 1
 236.149414062 126.345703125 l 1
 363.059570312 126.345703125 l 2
EndSplineSet
EndChar

StartChar: Ntilde
Encoding: 209 209 147
Width: 699
GlyphClass: 2
Flags: MW
HStem: -0.0771484 21G<61.7109 204.79 61.7109 61.7109 506.229 645.79 506.229 506.229> 670.823 20G<61.7109 201.277 201.277 201.277 502.711 645.79 645.79 645.79> 737.863 106.819<407.255 442.331> 775.104 106.817<266.339 290.804>
VStem: 61.7109 143.079<-0.0771484 431.764 -0.0771484 690.823> 502.711 143.079<258.045 690.823 -0.0771484 690.823>
LayerCount: 2
Fore
SplineSet
645.790039062 690.823242188 m 1xcc
 645.790039062 -0.0771484375 l 1
 506.228515625 -0.0771484375 l 1
 204.790039062 431.763671875 l 1
 204.790039062 -0.0771484375 l 1
 61.7109375 -0.0771484375 l 1
 61.7109375 690.823242188 l 1
 201.27734375 690.823242188 l 1
 502.7109375 258.044921875 l 1
 502.7109375 690.823242188 l 1
 645.790039062 690.823242188 l 1xcc
287.600585938 881.921875 m 0xdc
 353.39453125 881.921875 377.514648438 844.682617188 427.740234375 844.682617188 c 0
 457.366210938 844.682617188 473.978515625 857.294921875 517.409179688 891.7421875 c 1
 517.409179688 783.23828125 l 1
 489.130859375 756.127929688 463.782226562 737.86328125 420.879882812 737.86328125 c 0xec
 393.630859375 737.86328125 381.999023438 741.403320312 324.90625 765.3984375 c 0
 315.315429688 769.481445312 299.88671875 775.104492188 281.720703125 775.104492188 c 0
 250.958007812 775.104492188 231.62109375 760.939453125 190.090820312 729.432617188 c 1
 190.090820312 836.547851562 l 1
 219.66796875 864.892578125 244.482421875 881.921875 287.600585938 881.921875 c 0xdc
EndSplineSet
EndChar

StartChar: Ograve
Encoding: 210 210 148
Width: 673
GlyphClass: 2
Flags: MW
HStem: -10.8564 130.339<303.254 382.517 303.254 387.937> 576.162 127.402<304.758 381.286>
VStem: 57.7891 144.06<293.434 295.393 295.393 392.412 229.334 399.273 229.334 449.188> 490.949 143.081<295.393 392.412 392.412 399.273 243.829 470>
LayerCount: 2
Fore
SplineSet
57.7890625 293.43359375 m 2
 57.7890625 399.2734375 l 2
 57.7890625 499.1015625 83.1025390625 575.458984375 134.930664062 626.947265625 c 0
 186.560546875 678.241210938 257.802734375 703.564453125 347.379882812 703.564453125 c 0
 435.676757812 703.564453125 506.109375 678.217773438 557.396484375 626.930664062 c 0
 608.889648438 575.4375 634.030273438 499.092773438 634.030273438 399.2734375 c 2
 634.030273438 293.43359375 l 2
 634.030273438 194.224609375 608.359375 118.0234375 555.892578125 66.2333984375 c 0
 503.637695312 14.65234375 432.412109375 -10.8564453125 343.4609375 -10.8564453125 c 0
 254.528320312 -10.8564453125 184.068359375 14.4775390625 133.409179688 65.8115234375 c 0
 82.587890625 117.311523438 57.7890625 193.6328125 57.7890625 293.43359375 c 2
347.379882812 119.482421875 m 0
 417.653320312 119.482421875 490.94921875 149.073242188 490.94921875 295.392578125 c 2
 490.94921875 392.412109375 l 2
 490.94921875 547.588867188 415.192382812 576.162109375 347.379882812 576.162109375 c 0
 262.135742188 576.162109375 201.848632812 533.614257812 201.848632812 392.412109375 c 2
 201.848632812 295.392578125 l 2
 201.848632812 163.276367188 259.12890625 119.482421875 347.379882812 119.482421875 c 0
318.305664062 887.802734375 m 1
 449.168945312 742.762695312 l 1
 320.186523438 742.762695312 l 1
 148.973632812 887.802734375 l 1
 318.305664062 887.802734375 l 1
EndSplineSet
EndChar

StartChar: Oacute
Encoding: 211 211 149
Width: 673
GlyphClass: 2
Flags: MW
HStem: -10.8564 130.339<303.254 382.517 303.254 387.937> 576.162 127.402<304.758 381.286>
VStem: 57.7891 144.06<293.434 295.393 295.393 392.412 229.334 399.273 229.334 449.188> 490.949 143.081<295.393 392.412 392.412 399.273 243.829 470>
LayerCount: 2
Fore
SplineSet
57.7890625 293.43359375 m 2
 57.7890625 399.2734375 l 2
 57.7890625 499.1015625 83.1025390625 575.458984375 134.930664062 626.947265625 c 0
 186.560546875 678.241210938 257.802734375 703.564453125 347.379882812 703.564453125 c 0
 435.676757812 703.564453125 506.109375 678.217773438 557.396484375 626.930664062 c 0
 608.889648438 575.4375 634.030273438 499.092773438 634.030273438 399.2734375 c 2
 634.030273438 293.43359375 l 2
 634.030273438 194.224609375 608.359375 118.0234375 555.892578125 66.2333984375 c 0
 503.637695312 14.65234375 432.412109375 -10.8564453125 343.4609375 -10.8564453125 c 0
 254.528320312 -10.8564453125 184.068359375 14.4775390625 133.409179688 65.8115234375 c 0
 82.587890625 117.311523438 57.7890625 193.6328125 57.7890625 293.43359375 c 2
347.379882812 119.482421875 m 0
 417.653320312 119.482421875 490.94921875 149.073242188 490.94921875 295.392578125 c 2
 490.94921875 392.412109375 l 2
 490.94921875 547.588867188 415.192382812 576.162109375 347.379882812 576.162109375 c 0
 262.135742188 576.162109375 201.848632812 533.614257812 201.848632812 392.412109375 c 2
 201.848632812 295.392578125 l 2
 201.848632812 163.276367188 259.12890625 119.482421875 347.379882812 119.482421875 c 0
336.2734375 887.802734375 m 1
 505.604492188 887.802734375 l 1
 334.392578125 742.762695312 l 1
 205.41015625 742.762695312 l 1
 336.2734375 887.802734375 l 1
EndSplineSet
EndChar

StartChar: Ocircumflex
Encoding: 212 212 150
Width: 673
GlyphClass: 2
Flags: MW
HStem: -10.8564 130.339<303.254 382.517 303.254 387.937> 576.162 127.402<304.758 381.286>
VStem: 57.7891 144.06<293.434 295.393 295.393 392.412 229.334 399.273 229.334 449.188> 490.949 143.081<295.393 392.412 392.412 399.273 243.829 470>
LayerCount: 2
Fore
SplineSet
57.7890625 293.43359375 m 2
 57.7890625 399.2734375 l 2
 57.7890625 499.1015625 83.1025390625 575.458984375 134.930664062 626.947265625 c 0
 186.560546875 678.241210938 257.802734375 703.564453125 347.379882812 703.564453125 c 0
 435.676757812 703.564453125 506.109375 678.217773438 557.396484375 626.930664062 c 0
 608.889648438 575.4375 634.030273438 499.092773438 634.030273438 399.2734375 c 2
 634.030273438 293.43359375 l 2
 634.030273438 194.224609375 608.359375 118.0234375 555.892578125 66.2333984375 c 0
 503.637695312 14.65234375 432.412109375 -10.8564453125 343.4609375 -10.8564453125 c 0
 254.528320312 -10.8564453125 184.068359375 14.4775390625 133.409179688 65.8115234375 c 0
 82.587890625 117.311523438 57.7890625 193.6328125 57.7890625 293.43359375 c 2
347.379882812 119.482421875 m 0
 417.653320312 119.482421875 490.94921875 149.073242188 490.94921875 295.392578125 c 2
 490.94921875 392.412109375 l 2
 490.94921875 547.588867188 415.192382812 576.162109375 347.379882812 576.162109375 c 0
 262.135742188 576.162109375 201.848632812 533.614257812 201.848632812 392.412109375 c 2
 201.848632812 295.392578125 l 2
 201.848632812 163.276367188 259.12890625 119.482421875 347.379882812 119.482421875 c 0
298.033203125 894.662109375 m 1
 393.786132812 894.662109375 l 1
 539.228515625 731.982421875 l 1
 417.725585938 731.982421875 l 1
 346.365234375 807.099609375 l 1
 274.064453125 731.982421875 l 1
 152.590820312 731.982421875 l 1
 298.033203125 894.662109375 l 1
EndSplineSet
EndChar

StartChar: Otilde
Encoding: 213 213 151
Width: 673
GlyphClass: 2
Flags: MW
HStem: -10.8564 130.339<303.254 382.517 303.254 387.937> 576.162 127.402<304.758 381.286> 737.862 106.819<399.414 434.49> 775.104 106.818<258.499 282.963>
VStem: 57.7891 144.06<293.434 295.393 295.393 392.412 229.334 399.273 229.334 449.188> 490.949 143.081<295.393 392.412 392.412 399.273 243.829 470>
LayerCount: 2
Fore
SplineSet
57.7890625 293.43359375 m 2xcc
 57.7890625 399.2734375 l 2
 57.7890625 499.1015625 83.1025390625 575.458984375 134.930664062 626.947265625 c 0
 186.560546875 678.241210938 257.802734375 703.564453125 347.379882812 703.564453125 c 0
 435.676757812 703.564453125 506.109375 678.217773438 557.396484375 626.930664062 c 0
 608.889648438 575.4375 634.030273438 499.092773438 634.030273438 399.2734375 c 2
 634.030273438 293.43359375 l 2
 634.030273438 194.224609375 608.359375 118.0234375 555.892578125 66.2333984375 c 0
 503.637695312 14.65234375 432.412109375 -10.8564453125 343.4609375 -10.8564453125 c 0
 254.528320312 -10.8564453125 184.068359375 14.4775390625 133.409179688 65.8115234375 c 0
 82.587890625 117.311523438 57.7890625 193.6328125 57.7890625 293.43359375 c 2xcc
347.379882812 119.482421875 m 0
 417.653320312 119.482421875 490.94921875 149.073242188 490.94921875 295.392578125 c 2
 490.94921875 392.412109375 l 2
 490.94921875 547.588867188 415.192382812 576.162109375 347.379882812 576.162109375 c 0
 262.135742188 576.162109375 201.848632812 533.614257812 201.848632812 392.412109375 c 2
 201.848632812 295.392578125 l 2
 201.848632812 163.276367188 259.12890625 119.482421875 347.379882812 119.482421875 c 0
279.759765625 881.921875 m 0xdc
 345.553710938 881.921875 369.673828125 844.681640625 419.899414062 844.681640625 c 0
 449.525390625 844.681640625 466.13671875 857.293945312 509.568359375 891.741210938 c 1
 509.568359375 783.237304688 l 1
 481.290039062 756.126953125 455.94140625 737.862304688 413.038085938 737.862304688 c 0xec
 385.790039062 737.862304688 374.158203125 741.40234375 317.065429688 765.397460938 c 0
 307.474609375 769.48046875 292.045898438 775.103515625 273.879882812 775.103515625 c 0
 243.1171875 775.103515625 223.780273438 760.938476562 182.249023438 729.431640625 c 1
 182.249023438 836.546875 l 1
 211.827148438 864.891601562 236.641601562 881.921875 279.759765625 881.921875 c 0xdc
EndSplineSet
EndChar

StartChar: Odieresis
Encoding: 214 214 152
Width: 673
GlyphClass: 2
Flags: MW
HStem: -10.8564 130.339<303.254 382.517 303.254 387.937> 576.162 127.402<304.758 381.286> 741.782 128.38<173.43 292.989 173.43 292.989 173.43 398.829 398.829 518.39>
VStem: 57.7891 144.06<293.434 295.393 295.393 392.412 229.334 399.273 229.334 449.188> 173.43 119.56<741.782 870.162 741.782 870.162> 398.829 119.561<741.782 870.162 741.782 870.162> 490.949 143.081<295.393 392.412 392.412 399.273 243.829 470>
LayerCount: 2
Fore
SplineSet
57.7890625 293.43359375 m 2xf2
 57.7890625 399.2734375 l 2
 57.7890625 499.1015625 83.1025390625 575.458984375 134.930664062 626.947265625 c 0
 186.560546875 678.241210938 257.802734375 703.564453125 347.379882812 703.564453125 c 0
 435.676757812 703.564453125 506.109375 678.217773438 557.396484375 626.930664062 c 0
 608.889648438 575.4375 634.030273438 499.092773438 634.030273438 399.2734375 c 2
 634.030273438 293.43359375 l 2
 634.030273438 194.224609375 608.359375 118.0234375 555.892578125 66.2333984375 c 0
 503.637695312 14.65234375 432.412109375 -10.8564453125 343.4609375 -10.8564453125 c 0
 254.528320312 -10.8564453125 184.068359375 14.4775390625 133.409179688 65.8115234375 c 0
 82.587890625 117.311523438 57.7890625 193.6328125 57.7890625 293.43359375 c 2xf2
347.379882812 119.482421875 m 0
 417.653320312 119.482421875 490.94921875 149.073242188 490.94921875 295.392578125 c 2
 490.94921875 392.412109375 l 2
 490.94921875 547.588867188 415.192382812 576.162109375 347.379882812 576.162109375 c 0
 262.135742188 576.162109375 201.848632812 533.614257812 201.848632812 392.412109375 c 2
 201.848632812 295.392578125 l 2
 201.848632812 163.276367188 259.12890625 119.482421875 347.379882812 119.482421875 c 0
173.4296875 870.162109375 m 1xe8
 292.989257812 870.162109375 l 1
 292.989257812 741.782226562 l 1
 173.4296875 741.782226562 l 1
 173.4296875 870.162109375 l 1xe8
398.829101562 870.162109375 m 1xe4
 518.389648438 870.162109375 l 1
 518.389648438 741.782226562 l 1
 398.829101562 741.782226562 l 1
 398.829101562 870.162109375 l 1xe4
EndSplineSet
EndChar

StartChar: multiply
Encoding: 215 215 153
Width: 532
GlyphClass: 2
Flags: W
LayerCount: 2
Fore
SplineSet
270.918945312 192.859375 m 1
 153.306640625 75.2470703125 l 1
 68.501953125 161.166992188 l 1
 185.109375 277.775390625 l 1
 68.4892578125 395.375 l 1
 153.318359375 480.204101562 l 1
 270.918945312 363.583984375 l 1
 387.594726562 480.259765625 l 1
 472.399414062 394.33984375 l 1
 355.8125 277.752929688 l 1
 472.399414062 161.166992188 l 1
 387.572265625 75.224609375 l 1
 270.918945312 192.859375 l 1
EndSplineSet
EndChar

StartChar: Oslash
Encoding: 216 216 154
Width: 673
GlyphClass: 2
Flags: MW
HStem: -10.8574 130.339<329.226 383.497 329.226 388.915> 576.161 127.402<305.738 365.869>
VStem: 58.7695 144.06<293.433 295.392 295.392 392.411 280.936 399.272 280.936 449.187> 491.931 143.08<295.392 392.411 392.411 399.273 243.828 409.426>
LayerCount: 2
Fore
SplineSet
344.439453125 -10.857421875 m 0
 280.396484375 -10.857421875 226.096679688 2.1767578125 181.942382812 28.654296875 c 1
 149.411132812 -19.677734375 l 1
 51.4453125 -19.677734375 l 1
 119.749023438 83.3037109375 l 1
 78.837890625 135.544921875 58.76953125 205.853515625 58.76953125 293.432617188 c 2
 58.76953125 399.272460938 l 2
 58.76953125 499.1015625 84.0830078125 575.458007812 135.91015625 626.946289062 c 0
 187.541015625 678.240234375 258.783203125 703.563476562 348.359375 703.563476562 c 0
 409.909179688 703.563476562 462.838867188 691.422851562 506.81640625 666.811523438 c 1
 539.46875 715.323242188 l 1
 635.473632812 715.323242188 l 1
 569.245117188 615.455078125 l 1
 613.381835938 563.05859375 635.010742188 490.678710938 635.010742188 399.2734375 c 2
 635.010742188 293.432617188 l 2
 635.010742188 194.223632812 609.338867188 118.022460938 556.872070312 66.232421875 c 0
 504.616210938 14.6513671875 433.390625 -10.857421875 344.439453125 -10.857421875 c 0
348.360351562 576.161132812 m 0
 263.116210938 576.161132812 202.829101562 533.61328125 202.829101562 392.411132812 c 2
 202.829101562 295.391601562 l 2
 202.829101562 266.479492188 205.540039062 241.485351562 210.821289062 220.442382812 c 1
 432.484375 553.3984375 l 1
 411.203125 568.395507812 383.377929688 576.161132812 348.360351562 576.161132812 c 0
348.360351562 119.481445312 m 0
 418.633789062 119.481445312 491.930664062 149.072265625 491.930664062 295.391601562 c 2
 491.930664062 392.411132812 l 2
 491.930664062 426.44140625 488.060546875 456.171875 480.469726562 481.619140625 c 1
 258.254882812 144.114257812 l 1
 280.296875 127.91796875 310.090820312 119.481445312 348.360351562 119.481445312 c 0
EndSplineSet
EndChar

StartChar: Ugrave
Encoding: 217 217 155
Width: 676
GlyphClass: 2
Flags: MW
HStem: -5.95703 126.418<284.392 360.318 284.392 426.418> 670.822 20G<61.7109 204.791 204.791 204.791 480.171 623.25 623.25 623.25>
VStem: 61.7109 143.08<250.312 254.232 254.232 690.822> 480.171 143.079<254.232 690.822>
LayerCount: 2
Fore
SplineSet
341.5 -5.95703125 m 0
 173.609375 -5.95703125 61.7109375 93.01953125 61.7109375 250.3125 c 2
 61.7109375 690.822265625 l 1
 204.791015625 690.822265625 l 1
 204.791015625 254.232421875 l 2
 204.791015625 195.2890625 227.284179688 120.4609375 341.5 120.4609375 c 0
 379.13671875 120.4609375 480.170898438 128.11328125 480.170898438 254.232421875 c 2
 480.170898438 690.822265625 l 1
 623.25 690.822265625 l 1
 623.25 250.3125 l 2
 623.25 92.771484375 511.336914062 -5.95703125 341.5 -5.95703125 c 0
314.387695312 887.803710938 m 1
 445.250976562 742.763671875 l 1
 316.268554688 742.763671875 l 1
 145.055664062 887.803710938 l 1
 314.387695312 887.803710938 l 1
EndSplineSet
EndChar

StartChar: Uacute
Encoding: 218 218 156
Width: 676
GlyphClass: 2
Flags: MW
HStem: -5.95703 126.418<284.392 360.318 284.392 426.418> 670.822 20G<61.7109 204.791 204.791 204.791 480.171 623.25 623.25 623.25>
VStem: 61.7109 143.08<250.312 254.232 254.232 690.822> 480.171 143.079<254.232 690.822>
LayerCount: 2
Fore
SplineSet
341.5 -5.95703125 m 0
 173.609375 -5.95703125 61.7109375 93.01953125 61.7109375 250.3125 c 2
 61.7109375 690.822265625 l 1
 204.791015625 690.822265625 l 1
 204.791015625 254.232421875 l 2
 204.791015625 195.2890625 227.284179688 120.4609375 341.5 120.4609375 c 0
 379.13671875 120.4609375 480.170898438 128.11328125 480.170898438 254.232421875 c 2
 480.170898438 690.822265625 l 1
 623.25 690.822265625 l 1
 623.25 250.3125 l 2
 623.25 92.771484375 511.336914062 -5.95703125 341.5 -5.95703125 c 0
373.515625 887.803710938 m 1
 542.846679688 887.803710938 l 1
 371.633789062 742.763671875 l 1
 242.65234375 742.763671875 l 1
 373.515625 887.803710938 l 1
EndSplineSet
EndChar

StartChar: Ucircumflex
Encoding: 219 219 157
Width: 676
GlyphClass: 2
Flags: MW
HStem: -5.95703 126.418<284.392 360.318 284.392 426.418> 670.822 20G<61.7109 204.791 204.791 204.791 480.171 623.25 623.25 623.25>
VStem: 61.7109 143.08<250.312 254.232 254.232 690.822> 480.171 143.079<254.232 690.822>
LayerCount: 2
Fore
SplineSet
341.5 -5.95703125 m 0
 173.609375 -5.95703125 61.7109375 93.01953125 61.7109375 250.3125 c 2
 61.7109375 690.822265625 l 1
 204.791015625 690.822265625 l 1
 204.791015625 254.232421875 l 2
 204.791015625 195.2890625 227.284179688 120.4609375 341.5 120.4609375 c 0
 379.13671875 120.4609375 480.170898438 128.11328125 480.170898438 254.232421875 c 2
 480.170898438 690.822265625 l 1
 623.25 690.822265625 l 1
 623.25 250.3125 l 2
 623.25 92.771484375 511.336914062 -5.95703125 341.5 -5.95703125 c 0
294.115234375 894.663085938 m 1
 389.8671875 894.663085938 l 1
 535.309570312 731.983398438 l 1
 413.807617188 731.983398438 l 1
 342.446289062 807.100585938 l 1
 270.146484375 731.983398438 l 1
 148.672851562 731.983398438 l 1
 294.115234375 894.663085938 l 1
EndSplineSet
EndChar

StartChar: Udieresis
Encoding: 220 220 158
Width: 676
GlyphClass: 2
Flags: MW
HStem: -5.95703 126.418<284.392 360.318 284.392 426.418> 670.822 20G<61.7109 204.791 204.791 204.791 480.171 623.25 623.25 623.25> 741.783 128.38<169.512 289.071 169.512 289.071 169.512 394.911 394.911 514.472>
VStem: 61.7109 143.08<250.312 254.232 254.232 690.822> 169.512 119.56<741.783 870.163 741.783 870.163> 394.911 119.561<741.783 870.163 741.783 870.163> 480.171 143.079<254.232 690.822>
LayerCount: 2
Fore
SplineSet
341.5 -5.95703125 m 0xf2
 173.609375 -5.95703125 61.7109375 93.01953125 61.7109375 250.3125 c 2
 61.7109375 690.822265625 l 1
 204.791015625 690.822265625 l 1
 204.791015625 254.232421875 l 2
 204.791015625 195.2890625 227.284179688 120.4609375 341.5 120.4609375 c 0
 379.13671875 120.4609375 480.170898438 128.11328125 480.170898438 254.232421875 c 2
 480.170898438 690.822265625 l 1
 623.25 690.822265625 l 1
 623.25 250.3125 l 2
 623.25 92.771484375 511.336914062 -5.95703125 341.5 -5.95703125 c 0xf2
169.51171875 870.163085938 m 1xe8
 289.071289062 870.163085938 l 1
 289.071289062 741.783203125 l 1
 169.51171875 741.783203125 l 1
 169.51171875 870.163085938 l 1xe8
394.911132812 870.163085938 m 1xe4
 514.471679688 870.163085938 l 1
 514.471679688 741.783203125 l 1
 394.911132812 741.783203125 l 1
 394.911132812 870.163085938 l 1xe4
EndSplineSet
EndChar

StartChar: Yacute
Encoding: 221 221 159
Width: 610
GlyphClass: 2
Flags: MW
HStem: -0.0771484 21G<238.11 381.19 238.11 238.11> 670.823 20G<2.41406 164.64 164.64 164.64 453.681 615.896 615.896 615.896>
VStem: 238.11 143.08<-0.0771484 283.619 283.619 283.619>
LayerCount: 2
Fore
SplineSet
453.680664062 690.823242188 m 1
 615.895507812 690.823242188 l 1
 381.190429688 284.602539062 l 1
 381.190429688 -0.0771484375 l 1
 238.110351562 -0.0771484375 l 1
 238.110351562 283.619140625 l 1
 2.4140625 690.823242188 l 1
 164.639648438 690.823242188 l 1
 309.16015625 416.043945312 l 1
 453.680664062 690.823242188 l 1
340.194335938 887.803710938 m 1
 509.526367188 887.803710938 l 1
 338.313476562 742.763671875 l 1
 209.331054688 742.763671875 l 1
 340.194335938 887.803710938 l 1
EndSplineSet
EndChar

StartChar: Thorn
Encoding: 222 222 160
Width: 629
GlyphClass: 2
Flags: MW
HStem: -0.0771484 21G<61.7109 204.79 61.7109 61.7109> 145.943 126.42<204.79 356.2 204.79 366> 452.684 126.42<204.79 361.101 361.101 366 204.79 361.101> 670.823 20G<61.7109 204.79 204.79 204.79>
VStem: 61.7109 143.079<-0.0771484 145.943 -0.0771484 272.363 272.363 452.684 579.104 690.823> 467.431 143.08<338.348 372.214>
LayerCount: 2
Fore
SplineSet
610.510742188 360.073242188 m 0
 610.510742188 293.084960938 588.341796875 239.884765625 543.717773438 202.073242188 c 0
 499.143554688 164.3046875 436.325195312 145.943359375 356.200195312 145.943359375 c 2
 204.790039062 145.943359375 l 1
 204.790039062 -0.0771484375 l 1
 61.7109375 -0.0771484375 l 1
 61.7109375 690.823242188 l 1
 204.790039062 690.823242188 l 1
 204.790039062 579.103515625 l 1
 361.100585938 579.103515625 l 2
 438.025390625 579.103515625 499.209960938 560.685546875 543.717773438 522.97265625 c 0
 588.434570312 485.083007812 610.510742188 430.21875 610.510742188 360.073242188 c 0
366 272.36328125 m 2
 449.211914062 272.36328125 467.430664062 315.642578125 467.430664062 361.053710938 c 0
 467.430664062 383.375 465.688476562 452.68359375 366 452.68359375 c 2
 204.790039062 452.68359375 l 1
 204.790039062 272.36328125 l 1
 366 272.36328125 l 2
EndSplineSet
EndChar

StartChar: germandbls
Encoding: 223 223 161
Width: 579
GlyphClass: 2
Flags: MW
HStem: -3.99707 116.62<277.311 319.94 319.94 329.74 277.311 319.94> 354.684 115.64<277.311 310.141 277.311 318.961> 582.044 118.58<278.828 334.101 235.732 342.253>
VStem: 56.8105 136.22<-0.0761719 485.515 485.515 496.294 -0.0761719 573.93> 394.91 135.24<514.168 536.937> 404.711 135.239<216.527 272.018>
LayerCount: 2
Fore
SplineSet
539.950195312 232.673828125 m 0xf4
 539.950195312 60.9052734375 483.96875 -3.9970703125 329.740234375 -3.9970703125 c 2
 277.310546875 -3.9970703125 l 1
 277.310546875 112.623046875 l 1
 319.940429688 112.623046875 l 2
 369.708984375 112.623046875 389.263671875 128.02734375 397.618164062 158.659179688 c 0
 402.232421875 175.575195312 404.7109375 200.381835938 404.7109375 232.671875 c 0xf4
 404.7109375 311.36328125 388.984375 331.771484375 369.681640625 342.924804688 c 0
 356.680664062 350.436523438 336.864257812 354.68359375 310.140625 354.68359375 c 2
 277.310546875 354.68359375 l 1
 277.310546875 470.323242188 l 1
 318.9609375 470.323242188 l 2
 388.500976562 470.323242188 394.91015625 503.623046875 394.91015625 524.712890625 c 0
 394.91015625 549.16015625 386.125976562 582.043945312 298.380859375 582.043945312 c 0
 259.275390625 582.043945312 232.30859375 574.788085938 216.778320312 562.133789062 c 0
 201.500976562 549.685546875 193.030273438 528.439453125 193.030273438 496.293945312 c 2
 193.030273438 -0.076171875 l 1
 56.810546875 -0.076171875 l 1
 56.810546875 485.514648438 l 2
 56.810546875 662.344726562 174.063476562 700.624023438 297.400390625 700.624023438 c 0
 370.80078125 700.624023438 428.09375 686.653320312 468.755859375 657.609375 c 0
 509.622070312 628.41796875 530.150390625 585.78515625 530.150390625 531.57421875 c 0xf8
 530.150390625 468.6015625 502.99609375 436.673828125 470.487304688 416.959960938 c 1
 518.333007812 388.169921875 539.950195312 343.119140625 539.950195312 232.673828125 c 0xf4
EndSplineSet
EndChar

StartChar: agrave
Encoding: 224 224 162
Width: 556
GlyphClass: 2
Flags: MW
HStem: -5.95703 111.72<219.554 267.591> 217.482 98.001<243.5 266.039 266.039 372.369> 422.304 107.8<255.965 311.644 242.008 314.306>
VStem: 40.1504 132.299<153.466 174.813 153.466 189.05> 372.369 135.24<193.473 217.482 217.482 217.482>
LayerCount: 2
Fore
SplineSet
372.370117188 338.513671875 m 2
 372.370117188 378.907226562 356.69140625 422.303710938 271.920898438 422.303710938 c 0
 240.009765625 422.303710938 218.07421875 416.365234375 205.45703125 406.271484375 c 0
 192.331054688 395.770507812 186.170898438 383.087890625 186.170898438 366.93359375 c 2
 186.170898438 356.643554688 l 1
 55.830078125 356.643554688 l 1
 55.830078125 366.93359375 l 2
 55.830078125 417.384765625 76.1572265625 457.965820312 116.197265625 487.053710938 c 0
 156.061523438 516.014648438 209.15625 530.103515625 274.860351562 530.103515625 c 0
 348.427734375 530.103515625 406.00390625 513.559570312 446.674804688 479.3828125 c 0
 487.465820312 445.104492188 507.609375 395.622070312 507.609375 332.6328125 c 2
 507.609375 -0.078125 l 1
 375.309570312 -0.078125 l 1
 375.309570312 38.15234375 l 1
 340.227539062 9.689453125 300.501953125 -5.95703125 234.680664062 -5.95703125 c 0
 172.243164062 -5.95703125 123.762695312 7.9501953125 90.22265625 36.9951171875 c 0
 56.689453125 66.03515625 40.150390625 107.294921875 40.150390625 159.172851562 c 0
 40.150390625 218.926757812 67.39453125 315.483398438 243.5 315.483398438 c 2
 372.370117188 315.483398438 l 1
 372.370117188 338.513671875 l 2
261.139648438 105.762695312 m 0
 357.10546875 105.762695312 372.369140625 153.56640625 372.369140625 193.47265625 c 2
 372.369140625 217.482421875 l 1
 266.0390625 217.482421875 l 2
 182.485351562 217.482421875 172.44921875 187.513671875 172.44921875 162.112304688 c 0
 172.44921875 144.8203125 177.967773438 105.762695312 261.139648438 105.762695312 c 0
76.4541015625 721.202148438 m 1
 245.78515625 721.202148438 l 1
 376.6484375 576.162109375 l 1
 247.666992188 576.162109375 l 1
 76.4541015625 721.202148438 l 1
EndSplineSet
EndChar

StartChar: aacute
Encoding: 225 225 163
Width: 556
GlyphClass: 2
Flags: MW
HStem: -5.95703 111.72<219.554 267.591> 217.482 98.001<243.5 266.039 266.039 372.369> 422.304 107.8<255.965 311.644 242.008 314.306>
VStem: 40.1504 132.299<153.466 174.813 153.466 189.05> 372.369 135.24<193.473 217.482 217.482 217.482>
LayerCount: 2
Fore
SplineSet
372.370117188 338.513671875 m 2
 372.370117188 378.907226562 356.69140625 422.303710938 271.920898438 422.303710938 c 0
 240.009765625 422.303710938 218.07421875 416.365234375 205.45703125 406.271484375 c 0
 192.331054688 395.770507812 186.170898438 383.087890625 186.170898438 366.93359375 c 2
 186.170898438 356.643554688 l 1
 55.830078125 356.643554688 l 1
 55.830078125 366.93359375 l 2
 55.830078125 417.384765625 76.1572265625 457.965820312 116.197265625 487.053710938 c 0
 156.061523438 516.014648438 209.15625 530.103515625 274.860351562 530.103515625 c 0
 348.427734375 530.103515625 406.00390625 513.559570312 446.674804688 479.3828125 c 0
 487.465820312 445.104492188 507.609375 395.622070312 507.609375 332.6328125 c 2
 507.609375 -0.078125 l 1
 375.309570312 -0.078125 l 1
 375.309570312 38.15234375 l 1
 340.227539062 9.689453125 300.501953125 -5.95703125 234.680664062 -5.95703125 c 0
 172.243164062 -5.95703125 123.762695312 7.9501953125 90.22265625 36.9951171875 c 0
 56.689453125 66.03515625 40.150390625 107.294921875 40.150390625 159.172851562 c 0
 40.150390625 218.926757812 67.39453125 315.483398438 243.5 315.483398438 c 2
 372.370117188 315.483398438 l 1
 372.370117188 338.513671875 l 2
261.139648438 105.762695312 m 0
 357.10546875 105.762695312 372.369140625 153.56640625 372.369140625 193.47265625 c 2
 372.369140625 217.482421875 l 1
 266.0390625 217.482421875 l 2
 182.485351562 217.482421875 172.44921875 187.513671875 172.44921875 162.112304688 c 0
 172.44921875 144.8203125 177.967773438 105.762695312 261.139648438 105.762695312 c 0
279.43359375 721.202148438 m 1
 448.764648438 721.202148438 l 1
 277.552734375 576.162109375 l 1
 148.5703125 576.162109375 l 1
 279.43359375 721.202148438 l 1
EndSplineSet
EndChar

StartChar: acircumflex
Encoding: 226 226 164
Width: 556
GlyphClass: 2
Flags: MW
HStem: -5.95703 111.72<219.554 267.591> 217.482 98.001<243.5 266.039 266.039 372.369> 422.304 107.8<255.965 311.644 242.008 314.306>
VStem: 40.1504 132.299<153.466 174.813 153.466 189.05> 372.369 135.24<193.473 217.482 217.482 217.482>
LayerCount: 2
Fore
SplineSet
372.370117188 338.513671875 m 2
 372.370117188 378.907226562 356.69140625 422.303710938 271.920898438 422.303710938 c 0
 240.009765625 422.303710938 218.07421875 416.365234375 205.45703125 406.271484375 c 0
 192.331054688 395.770507812 186.170898438 383.087890625 186.170898438 366.93359375 c 2
 186.170898438 356.643554688 l 1
 55.830078125 356.643554688 l 1
 55.830078125 366.93359375 l 2
 55.830078125 417.384765625 76.1572265625 457.965820312 116.197265625 487.053710938 c 0
 156.061523438 516.014648438 209.15625 530.103515625 274.860351562 530.103515625 c 0
 348.427734375 530.103515625 406.00390625 513.559570312 446.674804688 479.3828125 c 0
 487.465820312 445.104492188 507.609375 395.622070312 507.609375 332.6328125 c 2
 507.609375 -0.078125 l 1
 375.309570312 -0.078125 l 1
 375.309570312 38.15234375 l 1
 340.227539062 9.689453125 300.501953125 -5.95703125 234.680664062 -5.95703125 c 0
 172.243164062 -5.95703125 123.762695312 7.9501953125 90.22265625 36.9951171875 c 0
 56.689453125 66.03515625 40.150390625 107.294921875 40.150390625 159.172851562 c 0
 40.150390625 218.926757812 67.39453125 315.483398438 243.5 315.483398438 c 2
 372.370117188 315.483398438 l 1
 372.370117188 338.513671875 l 2
261.139648438 105.762695312 m 0
 357.10546875 105.762695312 372.369140625 153.56640625 372.369140625 193.47265625 c 2
 372.369140625 217.482421875 l 1
 266.0390625 217.482421875 l 2
 182.485351562 217.482421875 172.44921875 187.513671875 172.44921875 162.112304688 c 0
 172.44921875 144.8203125 177.967773438 105.762695312 261.139648438 105.762695312 c 0
225.513671875 728.0625 m 1
 321.265625 728.0625 l 1
 466.708007812 565.3828125 l 1
 345.206054688 565.3828125 l 1
 273.844726562 640.499023438 l 1
 201.544921875 565.3828125 l 1
 80.0712890625 565.3828125 l 1
 225.513671875 728.0625 l 1
EndSplineSet
EndChar

StartChar: atilde
Encoding: 227 227 165
Width: 556
GlyphClass: 2
Flags: MW
HStem: -5.95703 111.72<219.554 267.591> 217.482 98.001<243.5 266.039 266.039 372.369> 422.304 107.8<255.965 311.644 242.008 314.306> 571.263 106.819<326.966 361.972> 608.503 106.819<185.979 210.345>
VStem: 40.1504 132.299<153.466 174.813 153.466 189.05> 372.369 135.24<193.473 217.482 217.482 217.482>
LayerCount: 2
Fore
SplineSet
372.370117188 338.513671875 m 2xe6
 372.370117188 378.907226562 356.69140625 422.303710938 271.920898438 422.303710938 c 0
 240.009765625 422.303710938 218.07421875 416.365234375 205.45703125 406.271484375 c 0
 192.331054688 395.770507812 186.170898438 383.087890625 186.170898438 366.93359375 c 2
 186.170898438 356.643554688 l 1
 55.830078125 356.643554688 l 1
 55.830078125 366.93359375 l 2
 55.830078125 417.384765625 76.1572265625 457.965820312 116.197265625 487.053710938 c 0
 156.061523438 516.014648438 209.15625 530.103515625 274.860351562 530.103515625 c 0
 348.427734375 530.103515625 406.00390625 513.559570312 446.674804688 479.3828125 c 0
 487.465820312 445.104492188 507.609375 395.622070312 507.609375 332.6328125 c 2
 507.609375 -0.078125 l 1
 375.309570312 -0.078125 l 1
 375.309570312 38.15234375 l 1
 340.227539062 9.689453125 300.501953125 -5.95703125 234.680664062 -5.95703125 c 0
 172.243164062 -5.95703125 123.762695312 7.9501953125 90.22265625 36.9951171875 c 0
 56.689453125 66.03515625 40.150390625 107.294921875 40.150390625 159.172851562 c 0
 40.150390625 218.926757812 67.39453125 315.483398438 243.5 315.483398438 c 2
 372.370117188 315.483398438 l 1
 372.370117188 338.513671875 l 2xe6
261.139648438 105.762695312 m 0
 357.10546875 105.762695312 372.369140625 153.56640625 372.369140625 193.47265625 c 2
 372.369140625 217.482421875 l 1
 266.0390625 217.482421875 l 2
 182.485351562 217.482421875 172.44921875 187.513671875 172.44921875 162.112304688 c 0
 172.44921875 144.8203125 177.967773438 105.762695312 261.139648438 105.762695312 c 0
207.239257812 715.322265625 m 0xee
 273.033203125 715.322265625 297.153320312 678.08203125 347.379882812 678.08203125 c 0
 377.004882812 678.08203125 393.616210938 690.694335938 437.049804688 725.141601562 c 1
 437.049804688 616.638671875 l 1
 408.771484375 589.530273438 383.423828125 571.262695312 340.51953125 571.262695312 c 0xf6
 313.412109375 571.262695312 301.559570312 574.796875 244.549804688 598.795898438 c 0
 234.64453125 603.0078125 219.331054688 608.502929688 201.359375 608.502929688 c 0
 170.59765625 608.502929688 151.259765625 594.338867188 109.729492188 562.83203125 c 1
 109.729492188 669.947265625 l 1
 139.306640625 698.291015625 164.119140625 715.322265625 207.239257812 715.322265625 c 0xee
EndSplineSet
EndChar

